<svg xmlns="http://www.w3.org/2000/svg" xmlns:xlink="http://www.w3.org/1999/xlink" id="Capa_1" x="0px" y="0px" viewBox="0 0 512 512" style="enable-background:new 0 0 512 512;" xml:space="preserve"><g>	<g>		<path d="M485.368,142.183c-16.846-33.884-41.527-64.186-71.377-87.629c-3.265-2.564-7.989-1.997-10.552,1.269   c-2.564,3.263-1.995,7.988,1.268,10.551c58.635,46.048,92.263,115.165,92.263,189.626c0,132.872-108.099,240.971-240.971,240.971   S15.029,388.872,15.029,256S123.128,15.029,256,15.029c41.48,0,82.381,10.71,118.278,30.974c3.611,2.037,8.196,0.765,10.238-2.851   c2.04-3.613,0.764-8.198-2.851-10.238C343.519,11.382,300.065,0,256,0C187.619,0,123.333,26.628,74.98,74.98   C26.628,123.333,0,187.619,0,256s26.628,132.667,74.98,181.02C123.333,485.372,187.619,512,256,512s132.667-26.628,181.02-74.98   C485.372,388.667,512,324.381,512,256C512,216.023,503.041,177.729,485.368,142.183z"></path>	</g></g><g>	<g>		<path d="M408.68,103.32C367.898,62.538,313.675,40.078,256,40.078s-111.898,22.46-152.68,63.242   C62.538,144.102,40.078,198.325,40.078,256c0,57.675,22.46,111.898,63.241,152.68c40.783,40.782,95.006,63.241,152.68,63.241   c57.675,0,111.898-22.46,152.68-63.242c40.782-40.783,63.241-95.005,63.241-152.68S449.462,144.102,408.68,103.32z    M433.577,349.847l-14.16-8.175c-3.594-2.074-8.192-0.845-10.265,2.75c-2.075,3.594-0.844,8.19,2.75,10.265l14.14,8.163   c-16.071,25.485-37.707,47.12-63.191,63.191l-8.163-14.14c-2.075-3.595-6.673-4.824-10.265-2.75   c-3.594,2.075-4.825,6.671-2.75,10.265l8.175,14.16c-25.946,13.768-55.247,22.011-86.333,23.16V440.36   c0-4.151-3.364-7.515-7.515-7.515c-4.151,0-7.515,3.364-7.515,7.515v16.377c-31.086-1.149-60.387-9.392-86.333-23.16l8.175-14.16   c2.075-3.594,0.844-8.19-2.75-10.265c-3.594-2.074-8.192-0.845-10.265,2.75l-8.163,14.14   c-25.485-16.071-47.12-37.707-63.191-63.191l14.14-8.163c3.594-2.075,4.825-6.671,2.75-10.265   c-2.075-3.595-6.673-4.824-10.265-2.75l-14.16,8.175c-13.768-25.946-22.011-55.247-23.16-86.333H71.64   c4.151,0,7.515-3.364,7.515-7.515s-3.364-7.515-7.515-7.515H55.263c1.149-31.086,9.392-60.387,23.16-86.333l14.16,8.175   c3.55,2.049,8.22,0.795,10.265-2.75c2.075-3.594,0.844-8.19-2.75-10.265l-14.14-8.163c16.071-25.485,37.707-47.12,63.191-63.191   l8.163,14.14c2.047,3.544,6.714,4.8,10.265,2.75c3.594-2.075,4.825-6.671,2.75-10.265l-8.175-14.16   c25.946-13.768,55.247-22.011,86.333-23.16V71.64c0,4.151,3.364,7.515,7.515,7.515s7.515-3.364,7.515-7.515V55.263   c31.086,1.149,60.387,9.392,86.333,23.16l-8.175,14.16c-1.888,3.268-0.994,7.569,2.049,9.806   c3.564,2.621,8.759,1.533,10.967-2.292l8.163-14.14c25.484,16.071,47.119,37.707,63.19,63.19l-14.14,8.163   c-3.268,1.888-4.646,6.058-3.129,9.518c1.772,4.044,6.81,5.712,10.644,3.499l14.16-8.175   c13.768,25.946,22.011,55.247,23.16,86.333H440.36c-4.151,0-7.515,3.364-7.515,7.515s3.364,7.515,7.515,7.515h16.377   C455.588,294.6,447.345,323.902,433.577,349.847z"></path>	</g></g><g>	<g>		<path d="M361.206,248.485H297.08c-17.403,0-31.562,14.159-31.562,31.562v88.172c0,4.151,3.364,7.515,7.515,7.515h112.219   c4.151,0,7.515-3.364,7.515-7.515v-88.172C392.767,262.644,378.608,248.485,361.206,248.485z M334.749,263.515l-3.006,9.018   h-5.199l-3.006-9.018H334.749z M327.645,287.562h2.996l6.563,45.939l-8.061,8.061l-8.061-8.061L327.645,287.562z M377.738,360.704   h-97.19v-80.658c0-9.116,7.416-16.532,16.532-16.532h10.615l5.742,17.226l-7.765,54.353c-0.335,2.342,0.453,4.703,2.125,6.376   l16.031,16.031c2.896,2.895,7.732,2.895,10.628,0l16.031-16.031c1.672-1.673,2.46-4.035,2.125-6.376l-7.765-54.353l5.743-17.226   h10.615c9.116,0,16.532,7.417,16.532,16.532V360.704z"></path>	</g></g><g>	<g>		<path d="M329.575,136.268l-71.743-7.972c-6.212-0.696-10.555,6.429-7.082,11.637l13.253,19.879l-13.253,19.879   c-3.27,4.908,0.374,11.683,6.252,11.683h16.545c-0.001,0.167-0.013,0.335-0.013,0.501c0,30.663,24.946,55.609,55.609,55.609   c18.113,0,35.144-8.865,45.557-23.712c0.091-0.13,0.169-0.267,0.251-0.401c0.061-0.082,0.129-0.157,0.187-0.242   c6.288-9.239,9.613-20.046,9.613-31.253C384.751,161.356,360.038,136.501,329.575,136.268z M329.143,232.454   c-22.376,0-40.579-18.204-40.579-40.579c0-0.166,0.011-0.334,0.013-0.501h52.613l18.463,27.237   C351.987,227.343,340.88,232.454,329.143,232.454z M367.888,203.974l-16.493-24.331c-1.399-2.063-3.728-3.298-6.22-3.298h-74.131   l8.243-12.364c1.683-2.525,1.683-5.812,0-8.336l-7.086-10.629l56.114,6.235c0.276,0.03,0.553,0.046,0.83,0.046   c22.376,0,40.579,18.204,40.579,40.579C369.722,196.021,369.099,200.091,367.888,203.974z"></path>	</g></g><g>	<g>		<path d="M268.567,232.748c-1.73-2.552-4.842-3.787-7.851-3.12l-27.894,6.199c-15.318-17.063-38.257-27.123-62.321-27.123   c-44.659,0-80.992,33.653-80.992,75.018s36.333,75.019,80.992,75.019c44.658,0,80.991-33.654,80.991-75.019   c0-5.07-0.553-10.127-1.646-15.083l18.709-27.442C270.291,238.649,270.296,235.3,268.567,232.748z M234.498,269.165   c1.304,4.75,1.964,9.648,1.964,14.555c0,33.079-29.59,59.989-65.962,59.989s-65.963-26.911-65.963-59.989   c0-33.078,29.591-59.988,65.963-59.988c21.179,0,41.221,9.372,53.612,25.072c1.786,2.265,4.712,3.306,7.53,2.68l13.799-3.067   l-9.903,14.526C234.296,264.765,233.916,267.04,234.498,269.165z"></path>	</g></g><g>	<g>		<path d="M162.325,299.92h-9.246c8.486-8.201,16.761-18.971,16.761-29.784c0-13.949-10.519-24.469-24.468-24.469   c-13.492,0-24.469,10.976-24.469,24.469c0,4.151,3.364,7.515,7.515,7.515c4.151,0,7.515-3.364,7.515-7.515   c0-5.204,4.235-9.439,9.439-9.439c4.697,0,9.438,2.919,9.438,9.439c0,8.884-15.89,23.505-27.17,31.046   c-2.81,1.873-4.035,5.507-2.937,8.7c1.031,2.999,3.935,5.068,7.105,5.068h30.517c4.151,0,7.515-3.364,7.515-7.515   S166.475,299.92,162.325,299.92z"></path>	</g></g><g>	<g>		<path d="M211.246,286.357h-2.657v-33.175c0-3.095-1.972-5.946-4.87-7.034c-3.09-1.16-6.676-0.117-8.657,2.525l-30.517,40.689   c-1.707,2.276-1.983,5.323-0.709,7.869c1.273,2.545,3.875,4.154,6.721,4.154h23.002v6.048c0,4.151,3.364,7.515,7.515,7.515   s7.515-3.364,7.515-7.515v-6.048h2.657c4.151,0,7.515-3.364,7.515-7.515C218.76,289.721,215.397,286.357,211.246,286.357z    M193.559,286.357h-7.973l7.973-10.631V286.357z"></path>	</g></g><g></g><g></g><g></g><g></g><g></g><g></g><g></g><g></g><g></g><g></g><g></g><g></g><g></g><g></g><g></g></svg>