<svg xmlns="http://www.w3.org/2000/svg" id="Layer_1" viewBox="0 0 64 64"><g><path d="m9.51 37.51c-.55 0-1-.45-1-1v-22.22h-2.06c-.37 0-.71-.2-.88-.53s-.15-.72.06-1.03l5.67-8.35c.37-.55 1.28-.55 1.65 0l5.67 8.35c.21.31.23.7.06 1.03s-.51.53-.88.53h-2.06v6.5c0 .55-.45 1-1 1s-1-.45-1-1v-7.5c0-.55.45-1 1-1h1.18l-3.79-5.57-3.79 5.57h1.18c.55 0 1 .45 1 1v23.22c-.01.55-.46 1-1.01 1z"></path></g><g><path d="m41.23 55.17c-1.14 0-2.17-.57-2.77-1.54-.03-.05-.06-.1-.08-.16l-4.38-11.1c-.05-.12-.07-.24-.07-.37v-6.33c0-.55.45-1 1-1s1 .45 1 1v6.14l4.28 10.83c.48.68 1.63.66 2.08-.06.23-.37.26-.81.07-1.2-.02-.04-.04-.08-.05-.13l-2.98-9.53c-.04-.12-.05-.25-.04-.38l.26-3.11c.05-.55.53-.96 1.08-.91s.96.53.91 1.08l-.24 2.91 2.91 9.28c.44 1 .36 2.14-.22 3.06-.61.95-1.64 1.52-2.76 1.52z"></path></g><g><path d="m17.32 30.41c-.45 0-.92-.12-1.34-.36-.65-.37-1.11-1-1.28-1.73-.28-1.26.38-2.54 1.57-3.04l7.19-2.74 5.36-6.39c.35-.42.99-.48 1.41-.12.42.35.48.99.12 1.41l-5.53 6.59c-.11.13-.25.23-.41.29l-7.4 2.82c-.27.11-.43.43-.36.75.06.25.22.38.32.43.1.06.29.13.54.06l8.03-1.85 3-3.81c.34-.43.97-.51 1.4-.17s.51.97.17 1.4l-3.22 4.09c-.14.18-.34.31-.56.36l-8.29 1.91c-.23.07-.47.1-.72.1z"></path></g><g><path d="m34.4 13.32c-3.27 0-5.94-2.66-5.94-5.94s2.66-5.94 5.94-5.94 5.94 2.66 5.94 5.94-2.67 5.94-5.94 5.94zm0-9.87c-2.17 0-3.94 1.77-3.94 3.94s1.77 3.94 3.94 3.94 3.94-1.77 3.94-3.94-1.77-3.94-3.94-3.94z"></path></g><g><path d="m22.96 48.76c-1.14 0-2.2-.57-2.82-1.54-.62-.96-.71-2.16-.24-3.21l2.74-7.88c.5-1.42 1.59-2.54 2.99-3.08l3.48-1.33c-.56-2.17-.84-6.43-.86-12.91 0-.27 0-.46 0-.52 0-2.48 1.99-4.47 4.44-4.47h4.54c1.62 0 3.16.61 4.33 1.73.03.03.05.06.08.08l4.88 5.85c.08.1.14.21.18.33l2.65 8.04c.06.21.09.41.09.62.03 1.03-.56 2-1.5 2.44-.37.17-.75.25-1.13.25-1.21 0-2.25-.8-2.55-1.96l-2.5-6.58-1.21-1.14.13 5.23c.01.69-.03 1.31-.12 1.91-.08.55-.6.92-1.14.83-.55-.08-.92-.6-.83-1.14.07-.48.11-.99.1-1.56l-.19-7.61c-.01-.4.22-.77.59-.94.37-.16.8-.09 1.09.18l3.13 2.93c.11.1.2.23.25.37l2.6 6.85c.02.04.03.09.04.14.1.44.56.58.91.42.21-.1.35-.33.34-.59l-2.58-7.88-4.71-5.65c-.8-.74-1.83-1.14-2.92-1.14h-4.54c-1.35 0-2.44 1.09-2.44 2.44v.55c.03 9.61.65 12.32 1.02 13.08.12.25.13.54.03.8s-.31.46-.57.56l-4.37 1.67c-.85.33-1.52 1.01-1.82 1.87l-2.78 7.96c-.23.51-.19.99.06 1.38.48.74 1.62.8 2.17.14l3.27-8.32c.1-.26.31-.46.56-.56l9.51-3.74c.13-.19.26-.4.39-.65.26-.48.87-.67 1.36-.4.48.26.66.87.4 1.36-.24.44-.47.8-.73 1.13-.11.14-.26.25-.42.31l-9.37 3.68-3.16 8.05c-.03.08-.07.15-.12.22-.63.87-1.65 1.4-2.73 1.4z"></path></g><g><path d="m38.61 33.32h-8.24c-.55 0-1-.45-1-1s.45-1 1-1h8.24c.55 0 1 .45 1 1s-.45 1-1 1z"></path></g><g><path d="m50.31 39.32h-11.7c-.55 0-1-.45-1-1v-7.85c0-.55.45-1 1-1h6.45c.55 0 1 .45 1 1s-.45 1-1 1h-5.45v5.85h9.7v-5.85h-.86c-.55 0-1-.45-1-1s.45-1 1-1h1.86c.55 0 1 .45 1 1v7.85c0 .55-.45 1-1 1z"></path></g><g><path d="m41.29 31.47c-.51 0-.94-.38-.99-.9-.35-3.39 2.58-5.05 2.7-5.12.48-.27 1.09-.09 1.36.39s.09 1.09-.38 1.36c-.09.05-1.9 1.12-1.69 3.17.06.55-.34 1.04-.89 1.1-.04 0-.07 0-.11 0z"></path></g><g><path d="m30.37 62.55h-14.73c-.55 0-1-.45-1-1v-13.8c0-.55.45-1 1-1h14.74c.55 0 1 .45 1 1v13.8c-.01.56-.45 1-1.01 1zm-13.73-2h12.74v-11.8h-12.74z"></path></g><g><path d="m58.69 62.55h-28.32c-.55 0-1-.45-1-1v-7.39c0-.55.45-1 1-1h28.31c.55 0 1 .45 1 1v7.39c.01.56-.44 1-.99 1zm-27.32-2h26.31v-5.39h-26.31z"></path></g><g><path d="m15.64 62.55h-10.33c-.55 0-1-.45-1-1v-21.68c0-.55.45-1 1-1h10.32c.55 0 1 .45 1 1v21.68c.01.56-.44 1-.99 1zm-9.33-2h8.32v-19.68h-8.32z"></path></g><g><path d="m55.62 36.02c-.55 0-1-.45-1-1v-23.22c0-.55.45-1 1-1h1.18l-3.79-5.57-3.79 5.57h1.18c.55 0 1 .45 1 1v7.5c0 .55-.45 1-1 1s-1-.45-1-1v-6.5h-2.07c-.37 0-.71-.2-.88-.53s-.15-.72.06-1.03l5.67-8.35c.37-.55 1.28-.55 1.65 0l5.67 8.35c.21.31.23.7.06 1.03s-.51.53-.88.53h-2.06v22.22c0 .55-.45 1-1 1z"></path></g></svg>