<svg xmlns="http://www.w3.org/2000/svg" viewBox="0 0 64 64"><g id="Layer_1"></g><g id="Keyword" display="none"></g><g id="Drone"></g><g id="Game_Console"></g><g id="Ebook"></g><g id="Cloud_Computing"></g><g id="Flashdisk"></g><g id="Smartlock"></g><g id="Electric_Car"></g><g id="Smartlamp"></g><g id="Eye_Scanner"></g><g id="Blockchain"></g><g id="Smartfarm"></g><g id="Hologram"></g><g id="Robot_Arm"></g><g id="Arficial_Inteligence"><g><path d="m49.55 22h9.45c2.757 0 5-2.243 5-5v-12c0-2.757-2.243-5-5-5h-12c-2.757 0-5 2.243-5 5v9.451c-2.983-.266-5.99-.41-9-.436v-3.156c1.72-.447 3-2 3-3.858 0-2.206-1.794-4-4-4s-4 1.794-4 4c0 1.858 1.28 3.411 3 3.858v3.157c-3.01.027-6.017.171-9 .436v-9.452c0-2.757-2.243-5-5-5h-12c-2.757 0-5 2.243-5 5v12c0 2.757 2.243 5 5 5h9.451c-.266 2.984-.412 6.002-.439 9h-3.154c-.447-1.72-2-3-3.858-3-2.206 0-4 1.794-4 4s1.794 4 4 4c1.858 0 3.411-1.28 3.858-3h3.154c.027 2.998.173 6.016.438 9h-9.45c-2.757 0-5 2.243-5 5v12c0 2.757 2.243 5 5 5h12c2.757 0 5-2.243 5-5v-9.451c2.984.266 6.002.412 9 .439v3.154c-1.72.447-3 2-3 3.858 0 2.206 1.794 4 4 4s4-1.794 4-4c0-1.858-1.28-3.411-3-3.858v-3.154c2.998-.027 6.016-.173 9-.438v9.45c0 2.146 1.367 3.966 3.27 4.673.183.198.439.327.73.327h1 12 1c.291 0 .547-.129.73-.327 1.903-.707 3.27-2.527 3.27-4.673v-12c0-2.757-2.243-5-5-5h-9.451c.266-2.984.412-6.002.439-9h3.154c.447 1.72 2 3 3.858 3 2.206 0 4-1.794 4-4s-1.794-4-4-4c-1.858 0-3.411 1.28-3.858 3h-3.154c-.027-2.998-.173-6.016-.438-9zm-7.136 25.509c-6.911.654-13.969.652-20.881-.005-2.667-.253-4.787-2.394-5.042-5.09-.326-3.447-.491-6.951-.491-10.414 0-3.48.167-7.002.497-10.467.253-2.667 2.394-4.787 5.09-5.042 3.446-.326 6.95-.491 10.413-.491 3.48 0 7.002.167 10.467.497 2.667.253 4.787 2.394 5.042 5.09.326 3.446.491 6.95.491 10.413 0 3.48-.167 7.002-.497 10.467-.253 2.667-2.393 4.787-5.089 5.042zm16.586-27.509h-9.767c-.607-2.116-2.091-3.855-4.032-4.787l2.799-2.799 2.293 2.293c.196.196.459.302.74.292.277-.009.537-.133.719-.341l6.168-7.049 4.08 5.712v3.679c0 1.654-1.346 3-3 3zm-12-18h12c1.654 0 3 1.346 3 3v4.879l-3.186-4.46c-.178-.249-.459-.403-.765-.418-.309-.005-.6.111-.802.34l-6.296 7.196-2.244-2.244c-.391-.391-1.023-.391-1.414 0l-3.293 3.293v-8.586c0-1.654 1.346-3 3-3zm-17 5c0-1.103.897-2 2-2s2 .897 2 2-.897 2-2 2-2-.897-2-2zm-28 10v-12c0-1.654 1.346-3 3-3h12c1.654 0 3 1.346 3 3v9.767c-2.534.727-4.526 2.713-5.241 5.233h-9.759c-1.654 0-3-1.346-3-3zm5 17c-1.103 0-2-.897-2-2s.897-2 2-2 2 .897 2 2-.897 2-2 2zm2 23c.552 0 1-.448 1-1s-.448-1-1-1h-1v-2h1c.552 0 1-.448 1-1s-.448-1-1-1h-.816c.414-1.161 1.514-2 2.816-2s2.402.839 2.816 2h-.816c-.552 0-1 .448-1 1s.448 1 1 1h1v2h-1c-.552 0-1 .448-1 1s.448 1 1 1h.816c-.414 1.161-1.514 2-2.816 2s-2.402-.839-2.816-2zm8 5h-5v-1.101c2.279-.465 4-2.484 4-4.899v-4c0-2.757-2.243-5-5-5s-5 2.243-5 5v4c0 2.414 1.721 4.434 4 4.899v1.101h-5c-1.654 0-3-1.346-3-3v-12c0-1.654 1.346-3 3-3h9.767c.727 2.534 2.713 4.526 5.233 5.241v9.759c0 1.654-1.346 3-3 3zm17-5c0 1.103-.897 2-2 2s-2-.897-2-2 .897-2 2-2 2 .897 2 2zm13.083 5c.478-2.834 2.949-5 5.917-5s5.439 2.166 5.917 5zm2.917-10c0-1.654 1.346-3 3-3s3 1.346 3 3-1.346 3-3 3-3-1.346-3-3zm12-5v12c0 .963-.464 1.811-1.17 2.36-.526-2.516-2.241-4.596-4.525-5.637 1.031-.917 1.695-2.238 1.695-3.723 0-2.757-2.243-5-5-5s-5 2.243-5 5c0 1.485.664 2.806 1.695 3.723-2.284 1.042-3.999 3.121-4.525 5.637-.706-.549-1.17-1.397-1.17-2.36v-9.767c2.534-.727 4.526-2.713 5.241-5.233h9.759c1.654 0 3 1.346 3 3zm-5-17c1.103 0 2 .897 2 2s-.897 2-2 2-2-.897-2-2 .897-2 2-2z"></path><path d="m40 21h-16c-1.654 0-3 1.346-3 3v16c0 1.654 1.346 3 3 3h16c1.654 0 3-1.346 3-3v-16c0-1.654-1.346-3-3-3zm0 20h-1v-1c0-.552-.448-1-1-1s-1 .448-1 1v1h-4v-1c0-.552-.448-1-1-1s-1 .448-1 1v1h-4v-1c0-.552-.448-1-1-1s-1 .448-1 1v1h-1c-.551 0-1-.449-1-1v-16c0-.551.449-1 1-1h1v13c0 .552.448 1 1 1h6c.552 0 1-.448 1-1s-.448-1-1-1h-5v-12h2v9c0 .552.448 1 1 1s1-.448 1-1v-9h6v5c0 .552.448 1 1 1s1-.448 1-1v-5h1c.551 0 1 .449 1 1v7h-6v-5c0-.552-.448-1-1-1s-1 .448-1 1v6c0 .552.448 1 1 1h7v2h-5c-.552 0-1 .448-1 1s.448 1 1 1h5v3c0 .551-.449 1-1 1z"></path><path d="m15.496 11.868c.312-.178.504-.509.504-.868s-.192-.69-.504-.868l-7-4c-.308-.176-.688-.176-.998.003-.308.179-.498.509-.498.865v8c0 .356.19.686.498.865.155.09.329.135.502.135.171 0 .342-.044.496-.132zm-6.496-3.145 3.984 2.277-3.984 2.277z"></path><circle cx="51" cy="6" r="1"></circle></g></g><g id="Digitalization"></g><g id="Digital_Transformation"></g><g id="Humanoid"></g><g id="Processor"></g><g id="Virtual_Reality"></g><g id="Fingerprint"></g></svg>