<svg xmlns="http://www.w3.org/2000/svg" id="Outline" viewBox="0 0 512 512"><g id="Arrow-52"><path d="m367.0088 444.07227 13.43408-30.16211h-31.44188a109.17275 109.17275 0 0 1 -77.20849-32.05469 7.49966 7.49966 0 0 1 -1.17676-9.14551c9.08213-15.35734 12.62967-27.16806 20.61523-61.49512 1.75471-7.54071 12.41537-7.73409 14.51807-.35546 1.34326 4.71386 2.45508 8.332 3.499 11.38671 5.12744 14.99317 21.47461 25.46485 39.75293 25.46485h31.70313l-13.6958-30.74707c-10.46392-20.8435 12.41142-37.36378 28.72314-24.69434 17.19873 13.35742 58.833 51.6709 82.11963 73.31934a20.39553 20.39553 0 0 1 0 29.85742c-23.28662 21.64844-64.9209 59.96191-82.11963 73.31934-15.80308 12.27276-39.47791-3.27632-28.72265-24.69336zm-80.499-68.98047a93.99389 93.99389 0 0 0 62.4912 23.81836h42.9751a7.5238 7.5238 0 0 1 6.85107 10.59179c-19.36944 43.47761-18.18617 40.85469-18.36717 41.21094-3.63521 7.101 2.78066 8.7593 6.0708 6.20606 17.3667-13.48829 62.50586-55.166 81.10742-72.459a5.37588 5.37588 0 0 0 -.00049-7.88476c-18.60107-17.293-63.74023-58.97071-81.10693-72.458-3.65943-2.84542-9.50547-.50479-6.07129 6.207.17683.34524-.913-2.06718 18.35107 41.1709 2.08544 4.68509-.70262 11.21582-6.85107 11.21582h-42.95851c-20.59424 0-38.94287-9.72461-48.83447-25.07324-4.13553 15.5891-7.20491 25.56448-13.65676 37.45413z"></path><path d="m116.26807 219.72754c-17.19873-13.35645-58.83252-51.66992-82.11914-73.31836a20.39553 20.39553 0 0 1 0-29.85742c23.28662-21.64844 64.92041-59.96192 82.11963-73.31934 16.03663-12.452 39.35276 3.52106 28.72266 24.69336l-13.44722 30.19141h40.53223c22.99853 0 46.93262 10.16992 67.39209 28.63574a7.49912 7.49912 0 0 1 1.07226 9.93457 130.24726 130.24726 0 0 0 -17.49951 33.585c-1.47607 4.31836-2.9956 9.30078-4.64453 15.22949a7.50481 7.50481 0 0 1 -13.4873 2.11817c-9.3335-14.15625-22.2212-23.30371-32.833-23.30371h-40.76715l13.68262 30.71777c10.58665 21.08788-12.67123 37.16332-28.72364 24.69332zm9.20117-164.64844c-17.36669 13.48828-62.50586 55.166-81.10742 72.459a5.37588 5.37588 0 0 0 .00049 7.88476c18.60107 17.293 63.74024 58.9707 81.10693 72.458 3.5 2.72054 9.5809.65186 6.07178-6.20606-.1768-.34525.9125 2.0662-18.35156-41.17187-2.08118-4.67552.71518-11.18652 6.85107-11.18652h52.03565c13.71826 0 26.43262 8.23242 36.02881 18.31836a142.86509 142.86509 0 0 1 16.34716-33.98536c-16.48291-13.28515-34.876-20.53222-52.376-20.53222h-52.05222a7.53853 7.53853 0 0 1 -6.85107-10.6211c19.36942-43.47761 18.18619-40.85468 18.36719-41.21093 3.69861-7.22152-2.85205-8.70488-6.07081-6.20606z"></path><path d="m116.26954 469.05859c-17.20264-13.35937-58.83545-51.67089-82.1211-73.31933a20.3959 20.3959 0 0 1 .00049-29.85742c23.2832-21.64649 64.9126-59.95606 82.11914-73.31934 16.03663-12.452 39.35374 3.52008 28.72364 24.69238l-13.565 30.4541h31.57229c18.27832 0 34.62549-10.47168 39.75293-25.46386 11.95258-34.947 24.044-110.40232 36.38135-146.47461 14.89355-43.54492 59.166-77.65528 100.79052-77.65528h40.66163l-13.57712-30.48046c-10.57857-21.07183 12.66037-37.169 28.72314-24.69532 17.19922 13.35743 58.833 51.6709 82.11963 73.31934a20.39681 20.39681 0 0 1 .00049 29.8584c-23.28711 21.64844-64.9209 59.96191-82.11963 73.31933-16.10464 12.50443-39.3192-3.58984-28.72363-24.69336l13.55269-30.42773h-40.63717c-15.97314 0-33.7705 19.49121-39.7539 36.9834-11.98275 35.03614-24.01694 110.324-36.38135 146.47461-14.23942 41.63734-57.27228 66.13574-100.78955 66.13574h-31.57324l13.56494 30.4541c10.59727 21.10697-12.5898 37.22165-28.72119 24.69531zm9.1997-164.64941c-17.375 13.49414-62.50878 55.168-81.10693 72.459a5.37687 5.37687 0 0 0 -.00049 7.88575c18.6001 17.292 63.7378 58.96777 81.10742 72.457 3.59839 2.79631 9.58531.65872 6.07129-6.20606-.1768-.34525.91257 2.06639-18.35107-41.17187-2.10311-4.7248.95187-10.92383 6.85107-10.92383h42.95847c39.7124 0 75.32275-23.02344 86.59668-55.98926 11.98189-35.03077 24.01626-110.32061 36.38184-146.47461 7.75195-22.666 30.58154-47.12988 53.94628-47.12988h52.05225c5.85838 0 8.95368 6.13376 6.85107 10.85742-19.3698 43.47744-18.18618 40.85371-18.36718 41.21-3.63152 7.0905 2.769 8.76933 6.07129 6.20606 17.36621-13.48731 62.50537-55.165 81.10693-72.458a5.37786 5.37786 0 0 0 -.00049-7.88574c-18.60107-17.293-63.74023-58.97071-81.10693-72.458-3.45961-2.68939-9.60221-.68856-6.07129 6.208.17683.34523-.913-2.06718 18.35107 41.1709 2.10219 4.72272-.91457 10.94921-6.85107 10.94921h-52.03562c-35.01806 0-73.86572 30.28418-86.59765 67.50879-11.9522 34.94969-24.0421 110.40039-36.38135 146.47461-7.28418 21.29981-28.96338 35.61035-53.9458 35.61035h-42.9751c-5.885 0-8.94933-6.17177-6.85156-10.88281 19.36985-43.47742 18.18668-40.85468 18.36768-41.21094 3.69689-7.22156-2.85237-8.70467-6.07081-6.20609z"></path></g></svg>