<svg xmlns="http://www.w3.org/2000/svg" id="Layer_1" data-name="Layer 1" viewBox="0 0 64 64"><path d="M53.817,23.559A8.19,8.19,0,0,0,45.7,30.742H41.719A9.788,9.788,0,0,0,33,22.024V18.057l3.605-3.606a3.059,3.059,0,1,0-1.523-1.3L31.3,16.936a1,1,0,0,0-.293.707v4.38a9.72,9.72,0,0,0-5.569,2.5H22.257V15.78a3.018,3.018,0,1,0-2,0v9.748a1,1,0,0,0,1,1h2.5a9.7,9.7,0,0,0-1.472,4.214H18.3A8.178,8.178,0,1,0,4.806,37.894c.018.021.04.035.059.054a8.144,8.144,0,0,0,10.631,0c.021-.022.047-.038.066-.061A8.166,8.166,0,0,0,18.3,32.742h3.984A9.737,9.737,0,0,0,24.962,38.5l-6.77,6.779a1,1,0,0,0-.292.706v3.54a3.017,3.017,0,1,0,2,0V46.4l6.59-6.6A9.7,9.7,0,0,0,31,41.46v4.03a3.018,3.018,0,1,0,2,0V41.46a9.788,9.788,0,0,0,8.719-8.718H45.7a8.168,8.168,0,0,0,2.74,5.154c.016.018.037.031.054.049a8.142,8.142,0,0,0,10.631.009.708.708,0,0,0,.07-.064,8.171,8.171,0,0,0-5.381-14.331ZM37.687,10.623a1.018,1.018,0,1,1-1.018,1.018A1.019,1.019,0,0,1,37.687,10.623Zm-16.43,1.306a1.018,1.018,0,1,1-1.018,1.017A1.018,1.018,0,0,1,21.257,11.929ZM18.9,53.377a1.017,1.017,0,0,1-.007-2.034l.009,0h.008a1.017,1.017,0,0,1-.01,2.033ZM6.645,36.8a3.611,3.611,0,0,1,7.078,0,6.147,6.147,0,0,1-7.078,0Zm3.538-5.137a1.487,1.487,0,1,1,1.486-1.487A1.489,1.489,0,0,1,10.183,31.667ZM15.3,35.206a5.38,5.38,0,0,0-2.574-2.657,3.487,3.487,0,1,0-5.083,0,5.637,5.637,0,0,0-2.571,2.662A6.182,6.182,0,1,1,15.3,35.206ZM32,49.342a1.018,1.018,0,1,1,1.018-1.018A1.019,1.019,0,0,1,32,49.342Zm0-9.831a7.769,7.769,0,0,1-.012-15.538l.016,0,.015,0A7.769,7.769,0,0,1,32,39.511Zm18.281-2.706a3.61,3.61,0,0,1,7.077,0,6.147,6.147,0,0,1-7.077,0Zm3.536-5.138a1.487,1.487,0,1,1,1.488-1.487A1.488,1.488,0,0,1,53.817,31.667Zm5.118,3.539a5.4,5.4,0,0,0-2.574-2.657,3.487,3.487,0,1,0-5.084,0,5.63,5.63,0,0,0-2.57,2.662,6.182,6.182,0,1,1,10.228-.008Z"></path><path d="M34.962,28.568l-3.86,3.86-2.064-2.063a1,1,0,0,0-1.414,1.414L30.4,34.55a1,1,0,0,0,1.414,0l4.567-4.568a1,1,0,0,0-1.414-1.414Z"></path></svg>