<svg xmlns="http://www.w3.org/2000/svg" id="Layer_1" viewBox="0 0 512 512" data-name="Layer 1"><path d="m499.92 230.25c0-65.54-53.32-118.86-118.86-118.86-11.09 0-21.84 1.53-32.03 4.39v-33.47c0-17.49-13.49-31.89-30.61-33.35v-12.52c0-21.4-17.06-32.95-33.11-32.95s-33.11 11.55-33.11 32.95v12.39h-38.55v-12.39c0-21.4-17.06-32.95-33.11-32.95s-33.11 11.55-33.11 32.95v12.39h-38.55v-12.39c0-21.4-17.06-32.95-33.11-32.95s-33.11 11.55-33.11 32.95v12.52c-17.11 1.47-30.59 15.86-30.59 33.34v247.15c0 10.53 4.43 20.04 11.51 26.78l-2.24.6c-3.2.86-5.93 2.95-7.59 5.82s-2.11 6.28-1.25 9.49l34.04 127.08c1.5 5.58 6.55 9.27 12.07 9.27 1.07 0 2.16-.14 3.24-.43l47.76-12.78c3.2-.86 5.93-2.95 7.59-5.82s2.11-6.28 1.25-9.49l-1.72-6.43 11.97-4.53c49.28 18.37 72.77 23.3 101.74 23.3 12.42 0 25.84-.91 42.73-2.04 10.53-.71 22.46-1.51 36.43-2.26 2.82-.15 5.5-1.25 7.61-3.12l112.28-99.24c3.49-3.08 4.98-7.85 3.86-12.37-4.17-16.83-12.6-24.83-20.14-28.6 49.97-14.06 86.7-60.04 86.7-114.43zm-239.66 136.21h51.78c15.29 0 28.45-9.33 34.07-22.59 7.69 2.37 15.71 3.98 23.97 4.74-19.17 9.16-38.75 25.16-54.86 38.32-3.68 3.01-7.01 5.73-9.88 7.98-11.71-.86-21.12-1.29-28.85-1.63-17.37-.78-25.3-1.13-33.39-4.99-6.94-3.31-14.86-9.44-28.58-21.2l45.72-.62zm51.78-25h-27.72c.48-2.18.73-4.42.73-6.69 0-11.78-6.56-22.61-17.55-28.96-1.49-.86-3.14-1.4-4.84-1.6l-7.9-.9c-50.04-5.73-75.16-8.6-94.89-5.51-21.03 3.3-34.26 12.94-58.28 30.45-5.3 3.87-11.37 8.29-18.3 13.21h-34.22c-6.61 0-11.99-5.38-11.99-11.99v-193.07h271.14c-27.98 21.77-46.02 55.74-46.02 93.85 0 44.52 24.61 83.39 60.93 103.75-1.79 4.37-6.09 7.45-11.09 7.45zm-203.2-267.62h38.63c.4 9.18 4.14 17.32 10.63 23.04 6.02 5.31 13.99 8.24 22.44 8.24 15.63 0 32.2-10.95 33.07-31.28h38.63c.4 9.18 4.14 17.32 10.63 23.04 6.02 5.31 13.99 8.24 22.44 8.24 15.17 0 31.23-10.32 32.95-29.52 3.45 2.11 5.77 5.9 5.77 10.23v25.57h-286.95v-25.57c0-4.32 2.31-8.11 5.75-10.22.78 8.45 4.44 15.91 10.51 21.27 6.02 5.31 13.99 8.24 22.44 8.24 15.63 0 32.2-10.95 33.07-31.28zm168.36-37.39c0-7.18 5.67-7.95 8.11-7.95s4.47.72 5.9 1.99c1.49 1.31 2.21 3.26 2.21 5.96v35.72c0 7.18-5.67 7.95-8.11 7.95s-8.11-.77-8.11-7.95zm-104.77 0c0-7.18 5.67-7.95 8.11-7.95s4.47.72 5.9 1.99c1.49 1.31 2.21 3.26 2.21 5.96v35.72c0 7.18-5.67 7.95-8.11 7.95s-8.11-.77-8.11-7.95zm-104.77 0c0-7.18 5.67-7.95 8.11-7.95s4.47.72 5.9 1.99c1.49 1.31 2.21 3.26 2.21 5.96v35.72c0 7.18-5.67 7.95-8.11 7.95s-8.11-.77-8.11-7.95zm-.2 444.25-27.57-102.93 23.61-6.32 26.14 97.59s.01.06.02.08l1.41 5.26zm236.47-17.4c-12.28.68-22.92 1.4-32.43 2.04-56.04 3.78-69.36 4.68-138.39-21.37-2.85-1.07-5.99-1.07-8.84 0l-14.03 5.31-21.69-80.97c1.94-1.34 3.81-2.66 5.63-3.94l.3-.21c8.44-5.94 15.65-11.21 21.85-15.72 22.22-16.2 32.36-23.59 47.42-25.95 16.37-2.57 40.37.18 88.17 5.65l4.88.56c2.08 1.72 3.25 3.85 3.24 6.06 0 2.38-1.35 4.75-3.77 6.75l-52.66.71c-3.73.05-7.24 1.76-9.58 4.67l-9.27 11.54c-4.2 5.23-3.53 12.84 1.52 17.25 44.4 38.76 48.56 40.75 89.09 42.57 8.57.38 19.23.86 32.77 1.95 3 .23 5.98-.61 8.41-2.39 4.03-2.96 8.88-6.93 14.5-11.52 11.66-9.53 26.16-21.38 40.2-29.86 18.97-11.46 27.24-10.62 29.91-9.73 2.17.72 4.03 2.65 5.55 5.75l-102.79 90.85zm77.14-139.18c-51.75 0-93.85-42.1-93.85-93.86s42.1-93.85 93.85-93.85 93.85 42.1 93.85 93.85-42.1 93.86-93.85 93.86zm28.13-96.88c-4.84-2.95-10.26-4.98-15.63-6.62v-23.43c2.7 1.96 5.35 4.72 7.6 8.62 3.45 5.98 11.1 8.02 17.08 4.57s8.02-11.1 4.57-17.08c-6.78-11.74-17.03-19.96-29.25-23.62v-6.1c0-6.9-5.6-12.5-12.5-12.5s-12.5 5.6-12.5 12.5v5.08c-7.29 1.54-14.03 4.64-19.3 9.12-8.99 7.64-13.47 18.52-12.32 29.83 1.16 11.33 7.79 21.08 18.2 26.78 4.13 2.25 8.71 3.9 13.42 5.29v25.19c-4.66-2.1-7.68-4.87-8.71-7.09-2.92-6.26-10.36-8.96-16.62-6.04s-8.96 10.36-6.04 16.62c5.03 10.78 16.71 19.24 31.37 22.81v5.75c0 6.9 5.6 12.5 12.5 12.5s12.5-5.6 12.5-12.5v-4.99c7.61-1.49 14.55-4.62 20.12-9.24 8.64-7.18 13.14-17.54 12.35-28.41-.8-11-7.09-21.11-16.84-27.06zm-42.06-14.78c-3.11-1.7-5-4.33-5.31-7.39-.31-3.05.98-5.97 3.65-8.24.83-.71 1.88-1.39 3.09-1.98v18.32c-.5-.23-.98-.46-1.43-.71zm30.58 51.01c-1.2.99-2.6 1.82-4.15 2.49v-18.75c.94.43 1.82.89 2.61 1.37 2.91 1.77 4.7 4.52 4.92 7.53.14 1.96-.33 4.82-3.38 7.36z"></path></svg>