<svg xmlns="http://www.w3.org/2000/svg" id="Layer_1" height="100" viewBox="0 0 100 100" width="100"><g><path d="m51.116 39c8.789 0 15.939-7.097 15.939-15.82 0-8.789-7.15-15.939-15.939-15.939-8.788 0-15.938 7.15-15.938 15.939.001 8.724 7.15 15.82 15.938 15.82zm0-29.759c7.686 0 13.939 6.253 13.939 13.939 0 7.62-6.253 13.82-13.939 13.82-7.685 0-13.938-6.2-13.938-13.82.001-7.685 6.253-13.939 13.938-13.939z"></path><path d="m49.941 31.943h.175v1.765h2v-1.765h.178c1.886 0 3.03-.842 3.658-1.549.789-.887 1.223-2.071 1.223-3.333 0-2.426-1.676-4.881-4.88-4.881h-.178v-5.882h.178c1.562 0 2.882 1.32 2.882 2.882v1h2v-1c0-2.692-2.19-4.882-4.882-4.882h-.178v-1.765h-2v1.765h-.175c-3.205 0-4.882 2.485-4.882 4.941 0 2.455 1.677 4.941 4.882 4.941h.175v5.763h-.175c-1.563 0-2.883-1.32-2.883-2.882v-1h-2v1c0 2.692 2.19 4.882 4.882 4.882zm2.175-7.762h.178c1.99 0 2.88 1.447 2.88 2.881 0 .761-.262 1.491-.718 2.004-.517.582-1.245.877-2.163.877h-.178v-5.762zm-2.175-2c-1.991 0-2.882-1.477-2.882-2.941 0-.778.264-1.526.723-2.051.518-.591 1.244-.89 2.159-.89h.175v5.882z"></path><path d="m14.383 26.474h15.475v2h-15.475z" transform="matrix(.707 .707 -.707 .707 25.904 -7.595)"></path><path d="m23.676 28.591h15.476v2h-15.476z" transform="matrix(.707 .707 -.707 .707 30.125 -13.546)"></path><path d="m29.911 40.824h15.475v2h-15.475z" transform="matrix(.707 .707 -.707 .707 40.596 -14.372)"></path><path d="m27.767 18.298h2v-4.234h4.234v-2h-4.234v-4.235h-2v4.235h-4.117v2h4.117zm.354-4.469v-1.53h1.41v1.53z"></path><path d="m94.642 32-7.294-7.293-24.294 24.293h-23.873l-24.287-24.286-7.427 7.282 18.419 18.418v2.938h-20.115v30.232h3.764v6.629l6.479-6.629h9.873v9.175h50.463v-42.347zm-7.294-4.465 4.47 4.47-16.884 16.995h-9.052zm-72.468-.007 21.473 21.472h-9.053l-16.991-16.99zm.291 54.056-3.637 3.721v-3.721h-3.763v-26.232h18.115 10.703v26.232h-10.703zm12.715 9.175v-7.175h10.703v-30.232h-10.703v-2.352h13.295 3.173v39.759zm18.468 0v-39.759h9.527v39.759zm27.996 0h-16.469v-39.759h3.173 13.296z"></path><path d="m72.376 26.474h15.474v2h-15.474z" transform="matrix(-.707 .707 -.707 -.707 156.188 -9.749)"></path><path d="m63.082 28.591h15.476v2h-15.476z" transform="matrix(.707 -.707 .707 .707 -.181 58.745)"></path><path d="m56.848 40.824h15.476v2h-15.476z" transform="matrix(-.707 .707 -.707 -.707 139.831 25.74)"></path><path d="m72.35 18.298h2v-4.234h4.235v-2h-4.235v-4.235h-2v4.235h-4.117v2h4.117zm.235-4.469v-1.53h1.527v1.53z"></path><path d="m32.586 68.067c.221-.369.357-.791.357-1.245 0-1.484-1.163-2.647-2.646-2.647h-3.058c-.144 0-.281.02-.417.041.035-1.375-.044-2.919-.25-4.65-.285-1.425-1.268-2.581-2.665-3.105-.666-.222-1.489-.051-2.004.405-.543.397-.842 1.009-.837 1.814.23 2.46-.129 4.214-1.066 5.213-.611.653-1.545 1.005-2.741 1.077-.097-.451-.479-.796-.959-.796h-4.588c-.552 0-1 .448-1 1v12.705c0 .552.448 1 1 1h4.588c.539 0 .971-.428.992-.961l3.327.925c.087.024.177.037.268.037h5.88 2.06.883c1.46 0 2.647-1.135 2.647-2.53 0-.442-.113-.849-.297-1.211.606-.464 1.002-1.168 1.002-1.966 0-.523-.151-1.003-.404-1.41.466-.457.756-1.078.756-1.765 0-.772-.318-1.452-.828-1.931zm-2.172 5.635h-.705-2.942c-.271 0-.527-.258-.527-.53 0-.398.274-.645.527-.645h3.647c.387 0 .647.259.647.645.001.261-.242.53-.647.53zm.353-4.352c.387 0 .647.26.647.647 0 .255-.248.53-.647.53h-.353-3.647c-.271 0-.527-.257-.527-.53 0-.4.274-.647.527-.647h.473 3.058zm-.47-3.175c.387 0 .646.26.646.647 0 .254-.247.528-.646.528h-3.058c-.4 0-.647-.274-.647-.528 0-.387.26-.647.647-.647zm-14.997 10.704h-2.588v-10.704h2.588zm2-1.035v-8.857c1.775-.09 3.167-.666 4.16-1.726 1.346-1.436 1.883-3.713 1.602-6.675 0-.073.013-.099.029-.111.055-.037.103-.083.15-.13.709.267 1.222.87 1.358 1.534.249 2.103.365 4.428.067 6.334-.017.075-.026.152-.037.229-.337 1.899-1.115 3.338-2.638 3.631l-.982.189.378 1.964.982-.189c.819-.158 1.519-.496 2.113-.994.084.178.19.342.312.495-.342.451-.554 1.014-.554 1.632 0 .578.214 1.112.554 1.543-.341.452-.554 1.014-.554 1.634 0 .182.023.358.062.53h-3.278zm12.409 1.035h-.883-2.06c-.271 0-.527-.258-.527-.53 0-.399.274-.647.527-.647h2.942c.387 0 .647.26.647.647.001.255-.246.53-.646.53z"></path></g></svg>