<svg xmlns="http://www.w3.org/2000/svg" id="Line" viewBox="0 0 64 64"><g fill="rgb(0,0,0)"><path d="m18.4917 60.49854c-.4165 0-.83691-.04199-1.25537-.12891-2.31299-.47852-4.17285-2.36816-4.62842-4.70215-.20703-1.08594-.12354-2.16602.23926-3.16699h-4.84717c-2.48145 0-4.5-2.01855-4.5-4.5v-5.11035c0-.87207.44043-1.66309 1.17871-2.11621.7583-.4668 1.69238-.5 2.49951-.0918 1.20752.62305 2.77832.2793 3.64844-.78906.58203-.71484.79639-1.62012.60449-2.54883-.23682-1.14355-1.17627-2.06445-2.33887-2.29102-.6626-.12598-1.32471-.03711-1.90771.2627-.81348.41211-1.74756.37891-2.50586-.08887-.73828-.45312-1.17871-1.24414-1.17871-2.11621v-6.11035c0-2.48145 2.01855-4.5 4.5-4.5h13c.82861 0 1.5.67188 1.5 1.5s-.67139 1.5-1.5 1.5h-13c-.82715 0-1.5.67285-1.5 1.5v5.34668c.99854-.3623 2.0791-.44531 3.16064-.24023 2.34082.45703 4.22998 2.31738 4.70801 4.62988.37305 1.80273-.06982 3.64355-1.21582 5.0498-1.14502 1.40723-2.84131 2.21387-4.65283 2.21387-.68506 0-1.36475-.11914-2-.34766v4.34766c0 .82715.67285 1.5 1.5 1.5h5.60986c.87256 0 1.66357.44043 2.11719 1.17871.46582.75879.5 1.69336.09082 2.5-.30176.58887-.39209 1.25098-.26416 1.91992.22559 1.15625 1.14648 2.0957 2.29053 2.33301.92773.19141 1.8335-.02344 2.54785-.60449.7041-.57422 1.10791-1.42188 1.10791-2.32715 0-.46875-.10498-.91016-.3125-1.31055-.41455-.81738-.38037-1.75195.08545-2.51074.45361-.73828 1.24463-1.17871 2.11719-1.17871h7.10986v-6.61035c0-.87207.44043-1.66309 1.17871-2.11621.7583-.4668 1.69287-.5 2.49951-.0918 1.21094.62598 2.78369.2793 3.65186-.78906.5791-.71094.79248-1.6123.60107-2.53906-.23975-1.1709-1.11377-2.04492-2.28174-2.28418-.70361-.14355-1.36572-.05957-1.96582.24609-.81494.41406-1.75244.37891-2.51025-.08691-.73486-.45117-1.17334-1.23926-1.17334-2.1084v-5.12012c0-.82812.67139-1.5 1.5-1.5s1.5.67188 1.5 1.5v4.34766c1.02051-.36914 2.13135-.44727 3.24902-.21777 2.36719.48438 4.13672 2.25488 4.62061 4.61914.37158 1.79688-.07031 3.63477-1.21338 5.03809-1.14502 1.40625-2.84229 2.21289-4.65625 2.21289-.68506 0-1.36475-.11914-2-.34766v7.34766c0 .82812-.67139 1.5-1.5 1.5h-7.84668c.22705.63281.34668 1.31348.34668 2 0 1.81152-.80664 3.50781-2.21338 4.65332-1.08057.87988-2.4165 1.34473-3.79492 1.34473z"></path><path d="m45.49316 60.49951c-.41748 0-.83838-.04297-1.25732-.12988-2.31201-.47754-4.17188-2.36621-4.62793-4.70117-.20703-1.08594-.12354-2.16602.23926-3.16699h-7.84717c-.82861 0-1.5-.67188-1.5-1.5s.67139-1.5 1.5-1.5h8.60986c.87256 0 1.66357.44043 2.11719 1.17871.46582.75879.5 1.69336.09082 2.5-.30176.58887-.39209 1.25098-.26416 1.91992.22559 1.15625 1.14648 2.0957 2.28955 2.33203.93164.19141 1.83496-.02148 2.54883-.60352.7041-.57324 1.10791-1.42188 1.10791-2.32715 0-.46875-.10498-.91016-.3125-1.31055-.41455-.81738-.38037-1.75195.08545-2.51074.45361-.73828 1.24463-1.17871 2.11719-1.17871h5.60986c.82715 0 1.5-.67285 1.5-1.50098v-21c0-.82715-.67285-1.5-1.5-1.5h-7c-.82861 0-1.5-.67188-1.5-1.5s.67139-1.5 1.5-1.5h7c2.48145 0 4.5 2.01855 4.5 4.5v21c0 2.48145-2.01855 4.50098-4.5 4.50098h-4.84668c.22705.63281.34668 1.31348.34668 2 0 1.81152-.80713 3.50781-2.21387 4.65332-1.08008.87891-2.41553 1.34473-3.79297 1.34473z"></path><path d="m41 29.50049h-18c-1.92969 0-3.5-1.57031-3.5-3.5v-13c0-1.92969 1.57031-3.5 3.5-3.5h18c1.92969 0 3.5 1.57031 3.5 3.5v13c0 1.92969-1.57031 3.5-3.5 3.5zm-18-17c-.27588 0-.5.22461-.5.5v13c0 .27539.22412.5.5.5h18c.27588 0 .5-.22461.5-.5v-13c0-.27539-.22412-.5-.5-.5z"></path><path d="m38 12.50049c-.82861 0-1.5-.67188-1.5-1.5v-3c0-.81348-.49072-1.5-1.07129-1.5h-6.85742c-.58057 0-1.07129.68652-1.07129 1.5v3c0 .82812-.67139 1.5-1.5 1.5s-1.5-.67188-1.5-1.5v-3c0-2.48145 1.82617-4.5 4.07129-4.5h6.85742c2.24512 0 4.07129 2.01855 4.07129 4.5v3c0 .82812-.67139 1.5-1.5 1.5z"></path><path d="m26 23.50049c-.82861 0-1.5-.67188-1.5-1.5v-4c0-.82812.67139-1.5 1.5-1.5s1.5.67188 1.5 1.5v4c0 .82812-.67139 1.5-1.5 1.5z"></path><path d="m38 23.50049c-.82861 0-1.5-.67188-1.5-1.5v-4c0-.82812.67139-1.5 1.5-1.5s1.5.67188 1.5 1.5v4c0 .82812-.67139 1.5-1.5 1.5z"></path><path d="m43 19.50049h-22c-.82861 0-1.5-.67188-1.5-1.5s.67139-1.5 1.5-1.5h22c.82861 0 1.5.67188 1.5 1.5s-.67139 1.5-1.5 1.5z"></path></g></svg>