<svg xmlns="http://www.w3.org/2000/svg" fill="none" height="64" viewBox="0 0 64 64" width="64"><g fill="#000"><path d="m48 26c0 1.1046-.8954 2-2 2h-14c-1.1046 0-2-.8954-2-2s.8954-2 2-2h14c1.1046 0 2 .8954 2 2z"></path><path d="m46 46c1.1046 0 2-.8954 2-2s-.8954-2-2-2h-14c-1.1046 0-2 .8954-2 2s.8954 2 2 2z"></path><path d="m29.369 18.542c.8053.7561.8451 2.0218.089 2.827l-7.5116 8c-.4152.4422-1.0086.672-1.6133.625-.6047-.0471-1.1553-.366-1.4971-.8671l-2.4883-3.6485c-.6224-.9125-.3871-2.1568.5254-2.7792s2.1568-.3871 2.7792.5254l1.084 1.5895 5.8057-6.1831c.7561-.8053 2.0218-.8451 2.827-.089z"></path><path d="m29.458 39.369c.7561-.8052.7163-2.0709-.089-2.827-.8052-.7561-2.0709-.7163-2.827.089l-5.8057 6.1831-1.084-1.5895c-.6224-.9125-1.8667-1.1478-2.7792-.5254s-1.1478 1.8667-.5254 2.7792l2.4883 3.6485c.3418.5011.8924.82 1.4971.8671.6047.047 1.1981-.1828 1.6133-.625z"></path><path clip-rule="evenodd" d="m7 12c0-5.52285 4.4772-10 10-10h18.4609c2.0652 0 4.0797.63938 5.7668 1.83032l11.5391 8.14528c2.6545 1.8737 4.2332 4.9204 4.2332 8.1696v31.8548c0 5.5228-4.4772 10-10 10h-30c-5.5228 0-10-4.4772-10-10zm10-6c-3.3137 0-6 2.68629-6 6v40c0 3.3137 2.6863 6 6 6h30c3.3137 0 6-2.6863 6-6v-31.8548c0-1.9495-.9472-3.7775-2.5399-4.9018l-11.5391-8.14521c-1.0123-.71456-2.221-1.09819-3.4601-1.09819z" fill-rule="evenodd"></path></g></svg>