<svg xmlns="http://www.w3.org/2000/svg" clip-rule="evenodd" fill-rule="evenodd" stroke-linejoin="round" stroke-miterlimit="2" viewBox="0 0 510 510"><path d="m71.289 197.834c-4.411 1.712-9.611.789-13.17-2.77l-11.458-11.448c-4.804-4.805-4.804-12.621 0-17.425 6.87-6.87 1.999-18.64-7.72-18.64-6.801 0-12.317-5.516-12.317-12.317v-16.189c0-6.801 5.516-12.317 12.317-12.317 9.719 0 14.59-11.77 7.72-18.64-4.808-4.808-4.808-12.607 0-17.415l11.456-11.456c4.808-4.808 12.607-4.808 17.415 0 6.87 6.87 18.641 1.999 18.641-7.72 0-6.801 5.515-12.317 12.316-12.317h16.189c6.801 0 12.317 5.516 12.317 12.317 0 9.719 11.77 14.59 18.64 7.72 4.805-4.804 12.62-4.804 17.425 0l11.446 11.456c4.808 4.808 4.808 12.607 0 17.415-6.87 6.87-1.993 18.64 7.72 18.64 6.823 0 12.317 5.516 12.317 12.317v1.011h147.385c-.635-.982-1.258-1.956-1.865-2.933-5.801-9.333-10.369-18.894-10.369-36.291 0-40.212 32.619-72.832 72.849-72.832 40.213 0 72.833 32.619 72.833 72.832 0 17.397-4.567 26.958-10.369 36.291-6.922 11.136-15.963 21.871-19.193 50.097 6.437 2.715 10.985 9.1 10.985 16.497v23.493c0 7.251-4.389 13.541-10.65 16.335v141.705c0 18.531-15.02 33.551-33.552 33.551h-103.394c1.325 21.87 5.63 40.992 10.602 56.689h21.815c12.765 0 23.231 10.454 23.231 23.255 0 12.8-10.466 23.255-23.231 23.255h-173.777c-12.797 0-23.255-10.458-23.255-23.255 0-12.798 10.458-23.255 23.255-23.255h26.044c3.776-15.721 6.082-34.841 6.288-56.689h-103.334c-18.532 0-33.552-15.02-33.552-33.551zm14.167 150.619v16.797c0 10.706 8.678 19.384 19.385 19.384h315.756c10.707 0 19.385-8.678 19.385-19.384v-16.797zm176.817 27.092c-5.71 0-10.346-4.636-10.346-10.346s4.636-10.346 10.346-10.346 10.346 4.636 10.346 10.346-4.636 10.346-10.346 10.346zm177.605-209.719c2.942-26.276 10.362-39.111 17.221-49.819 6.306-9.845 12.277-17.506 12.277-35.175 0-32.483-26.35-58.832-58.833-58.832-32.498 0-58.849 26.349-58.849 58.832 0 17.669 5.971 25.33 12.277 35.175 6.859 10.708 14.279 23.543 17.221 49.819h22.351v-68.686l-24.743-14.29c-3.346-1.933-4.493-6.217-2.561-9.563 1.932-3.345 6.217-4.493 9.563-2.561l24.74 14.289 24.725-14.288c3.345-1.933 7.63-.787 9.563 2.559 1.933 3.345.787 7.63-2.558 9.563l-24.729 14.29v68.687zm-237.335-31.603v1.011c0 6.801-5.494 12.317-12.317 12.317-9.713 0-14.59 11.77-7.72 18.64 4.805 4.804 4.805 12.62 0 17.425l-11.446 11.446c-4.805 4.804-12.62 4.804-17.425 0-6.87-6.87-18.64-1.993-18.64 7.72 0 6.823-5.516 12.317-12.317 12.317h-16.189c-6.801 0-12.316-5.494-12.316-12.317 0-5.678-4.011-9.701-8.717-10.698v142.37h354.526v-96.139c-3.084 4.778-8.456 7.964-14.52 7.964h-29.854c-9.481 0-17.27-7.788-17.27-17.27v-3.924h-4.176c-9.844 0-17.891-8.058-17.891-17.875v-23.493c0-7.397 4.548-13.782 10.985-16.497-1.726-15.084-5.111-25.173-8.947-32.997zm-10.303 115.584c-3.767-5.145-5.993-11.491-5.993-18.358 0-8.949 3.784-17.013 9.824-22.687-.157-1.203-.238-2.429-.238-3.674 0-12.178 7.728-22.551 18.545-26.493 3.305-11.896 14.21-20.641 27.164-20.641 8.438 0 16.012 3.949 21.177 9.92 5.165-5.971 12.74-9.92 21.177-9.92 12.954 0 23.86 8.745 27.164 20.641 10.817 3.942 18.545 14.315 18.545 26.493 0 1.245-.081 2.471-.238 3.674 6.041 5.674 9.824 13.738 9.824 22.687 0 6.867-2.226 13.213-5.992 18.358 2.359 4.412 3.697 9.451 3.697 14.801 0 15.13-10.678 27.762-24.909 30.774-1.211 14.442-13.321 25.795-28.091 25.795-8.438 0-16.012-3.817-21.177-9.736-5.165 5.919-12.739 9.736-21.177 9.736-14.769 0-26.88-11.353-28.09-25.795-14.232-3.012-24.909-15.644-24.909-30.774 0-5.35 1.337-10.389 3.697-14.801zm10.151-26.652c-1.365 2.457-2.144 5.284-2.144 8.294 0 2.657.607 5.172 1.688 7.415 5.111-3.591 11.341-5.7 18.064-5.7 3.864 0 7 3.137 7 7 0 3.864-3.136 7-7 7-9.641 0-17.456 7.812-17.456 17.444 0 9.642 7.814 17.457 17.456 17.457 4.818 0 9.177-1.944 12.337-5.096 2.736-2.728 7.172-2.722 9.9.014s2.721 7.172-.014 9.9c-3.994 3.982-9.048 6.895-14.705 8.28 1.042 6.802 6.924 12.014 14.025 12.014 7.828 0 14.177-6.527 14.177-14.177v-106.857c0-7.431-6.348-14.189-14.177-14.189-4.62 0-8.724 2.209-11.315 5.627 5.349 1.2 10.127 3.922 13.855 7.686 2.718 2.745 2.697 7.181-.049 9.899-2.745 2.718-7.181 2.697-9.899-.048-2.578-2.603-6.152-4.22-10.099-4.22-7.839 0-14.202 6.351-14.202 14.19 0 4.575 2.18 8.647 5.546 11.252 3.055 2.364 3.616 6.764 1.252 9.82-2.365 3.055-6.765 3.616-9.82 1.252-1.623-1.256-3.105-2.684-4.42-4.257zm92.821-45.574c-2.591-3.418-6.695-5.627-11.316-5.627-7.828 0-14.177 6.758-14.177 14.189v106.857c0 7.65 6.35 14.177 14.177 14.177 7.101 0 12.983-5.212 14.026-12.014-5.657-1.385-10.712-4.298-14.705-8.28-2.736-2.728-2.742-7.164-.014-9.9s7.163-2.742 9.899-.014c3.161 3.152 7.52 5.096 12.337 5.096 9.642 0 17.457-7.815 17.457-17.457 0-9.632-7.816-17.444-17.457-17.444-3.863 0-7-3.136-7-7 0-3.863 3.137-7 7-7 6.723 0 12.953 2.109 18.065 5.7 1.081-2.243 1.687-4.758 1.687-7.415 0-3.009-.778-5.835-2.142-8.29-1.31 1.569-2.787 2.994-4.402 4.247-3.052 2.369-7.453 1.813-9.821-1.239-2.368-3.053-1.813-7.454 1.24-9.822 3.358-2.606 5.539-6.68 5.539-11.257 0-7.839-6.363-14.19-14.202-14.19-3.947 0-7.521 1.617-10.099 4.22-2.718 2.745-7.154 2.766-9.899.048s-2.767-7.154-.048-9.899c3.727-3.764 8.506-6.486 13.855-7.686zm-254.588-56.905v12.927c20.497 1.283 30.672 25.869 17.087 41.263l9.15 9.142c15.406-13.593 39.978-3.418 41.259 17.091h12.927c1.284-20.485 25.869-30.671 41.264-17.087l9.145-9.146c-13.584-15.394-3.398-39.98 17.087-41.263v-12.927c-20.483-1.283-30.669-25.864-17.091-41.259l-9.142-9.15c-15.394 13.585-39.98 3.41-41.263-17.087h-12.927c-1.282 20.495-25.863 30.67-41.258 17.091l-9.146 9.147c13.578 15.394 3.403 39.976-17.092 41.258zm73.964 52.368c-25.285 0-45.899-20.626-45.899-45.9 0-25.285 20.614-45.899 45.899-45.899 25.275 0 45.9 20.614 45.9 45.899 0 25.274-20.625 45.9-45.9 45.9zm0-14c17.566 0 31.9-14.335 31.9-31.9 0-17.573-14.334-31.899-31.9-31.899-17.572 0-31.899 14.326-31.899 31.899 0 17.565 14.327 31.9 31.899 31.9zm188.59 239.757h-81.003c-.197 21.613-2.374 40.701-5.921 56.689h96.905c-4.768-16.007-8.748-35.095-9.981-56.689zm-127.335 70.689c-5.093 0-9.255 4.162-9.255 9.255s4.162 9.255 9.255 9.255h173.777c5.076 0 9.231-4.165 9.231-9.255s-4.155-9.255-9.231-9.255zm198.319-289.664c-2.14 0-3.891 1.751-3.891 3.891v23.493c0 2.132 1.754 3.875 3.891 3.875h11.176c3.866 0 7 3.134 7 7v10.924c0 1.795 1.475 3.27 3.27 3.27h29.854c1.795 0 3.27-1.475 3.27-3.27v-10.924c0-3.866 3.134-7 7-7h11.176c2.137 0 3.891-1.743 3.891-3.875v-23.493c0-2.14-1.751-3.891-3.891-3.891z"></path></svg>