<svg xmlns="http://www.w3.org/2000/svg" data-name="Layer 1" id="Layer_1" viewBox="0 0 128 128"><title></title><path d="M78.57861,50.19922A1.99984,1.99984,0,0,0,76.03076,51.709C75.28027,52.52246,71.05518,54,64,54s-11.28027-1.47754-12.03076-2.291a1.99984,1.99984,0,0,0-2.54785-1.50977A50.261,50.261,0,0,0,14,98.63965C14,128,38.28711,128,64,128s50,0,50-29.36035A50.261,50.261,0,0,0,78.57861,50.19922ZM64,124c-28.52,0-46-1.22559-46-25.36035A46.29877,46.29877,0,0,1,49.12354,54.50293C52.5376,57.88574,62.66309,58,64,58c.481,0,2.10657-.0174,4.14069-.19385a2.01046,2.01046,0,0,0,.38519.13721c20.374,4.97363,36.55664,27.76855,38.47949,54.20215a1.97375,1.97375,0,0,0,.03876.22729C100.93958,123.28229,85.658,124,64,124Zm45.80341-21.18848C105.684,81.104,92.80121,63.33234,75.97644,56.22229a8.46728,8.46728,0,0,0,2.9-1.71936A46.29877,46.29877,0,0,1,110,98.63965C110,100.11517,109.93262,101.50232,109.80341,102.81152Z"></path><path d="M84,85a16.9168,16.9168,0,0,0-4.32635.5791,17,17,0,1,0-31.34729,0,16.973,16.973,0,1,0,11.34729,9.8418,16.45023,16.45023,0,0,0,8.65271,0A16.999,16.999,0,1,0,84,85ZM44,115a13,13,0,1,1,13-13A13.01474,13.01474,0,0,1,44,115ZM64,92A13,13,0,1,1,77,79,13.01474,13.01474,0,0,1,64,92Zm20,23a13,13,0,1,1,13-13A13.01474,13.01474,0,0,1,84,115Z"></path><path d="M81.28027,97.8335c0-.99707.77344-1.9707,2.84424-1.9707a5.15473,5.15473,0,0,1,3.49268,1.32227,1.652,1.652,0,0,0,1.07275.54883,1.33627,1.33627,0,0,0,1.34717-1.32227,1.44016,1.44016,0,0,0-.24951-.79785,6.38122,6.38122,0,0,0-4.49023-2.24609V91.92139a1.16023,1.16023,0,1,0-2.32031,0v1.42188c-3.19336.34961-4.59033,2.27051-4.59033,4.49023,0,6.0127,9.106,4.3418,9.106,7.9834,0,1.54688-1.09766,2.2959-3.36816,2.2959a5.721,5.721,0,0,1-4.09131-1.89648,1.463,1.463,0,0,0-1.09766-.54883,1.34236,1.34236,0,0,0-1.12305,2.0459,7.15934,7.15934,0,0,0,5.16456,2.96875v1.39746a1.16022,1.16022,0,1,0,2.32031,0v-1.39746c3.34277-.32422,5.08936-2.12012,5.08936-4.86523C90.38672,99.58057,81.28027,101.10205,81.28027,97.8335Z"></path><path d="M41.28027,97.8335c0-.99707.77344-1.9707,2.84424-1.9707a5.15473,5.15473,0,0,1,3.49268,1.32227,1.652,1.652,0,0,0,1.07275.54883,1.33627,1.33627,0,0,0,1.34717-1.32227,1.44015,1.44015,0,0,0-.24951-.79785,6.38122,6.38122,0,0,0-4.49023-2.24609V91.92139a1.16023,1.16023,0,1,0-2.32031,0v1.42188c-3.19336.34961-4.59033,2.27051-4.59033,4.49023,0,6.0127,9.106,4.3418,9.106,7.9834,0,1.54688-1.09766,2.2959-3.36816,2.2959a5.721,5.721,0,0,1-4.09131-1.89648,1.463,1.463,0,0,0-1.09766-.54883,1.34236,1.34236,0,0,0-1.12305,2.0459,7.15934,7.15934,0,0,0,5.16456,2.96875v1.39746a1.16022,1.16022,0,1,0,2.32031,0v-1.39746c3.34277-.32422,5.08936-2.12012,5.08936-4.86523C50.38672,99.58057,41.28027,101.10205,41.28027,97.8335Z"></path><path d="M61.28027,74.8335c0-.99707.77344-1.9707,2.84424-1.9707a5.15473,5.15473,0,0,1,3.49268,1.32227,1.652,1.652,0,0,0,1.07275.54883,1.33627,1.33627,0,0,0,1.34717-1.32227,1.44015,1.44015,0,0,0-.24951-.79785,6.38122,6.38122,0,0,0-4.49023-2.24609V68.92139a1.16023,1.16023,0,1,0-2.32031,0v1.42188c-3.19336.34961-4.59033,2.27051-4.59033,4.49023,0,6.0127,9.106,4.3418,9.106,7.9834,0,1.54688-1.09766,2.2959-3.36816,2.2959a5.721,5.721,0,0,1-4.09131-1.89648,1.463,1.463,0,0,0-1.09766-.54883,1.34236,1.34236,0,0,0-1.12305,2.0459,7.15934,7.15934,0,0,0,5.16456,2.96875v1.39746a1.16022,1.16022,0,1,0,2.32031,0V87.68213c3.34277-.32422,5.08936-2.12012,5.08936-4.86523C70.38672,76.58057,61.28027,78.10205,61.28027,74.8335Z"></path><path d="M85.87988,11.69043H84.12012c-.67969,0-1.29053.00586-1.83936.01172-.9165.00879-1.85645.01855-2.42334-.02344-.09619-3.56445-3.21533-6.8916-9.52686-10.16406a14.22159,14.22159,0,0,0-12.66162,0c-6.311,3.27246-9.43018,6.59961-9.52637,10.16406-.56738.043-1.50635.0332-2.42334.02344-.54883-.00586-1.15967-.01172-1.83936-.01172H42.12012a6.1884,6.1884,0,0,0-5.34277,2.97168,5.45511,5.45511,0,0,0-.11279,5.42871l12.02,23.83984a2.02157,2.02157,0,0,0,.3208.46191C51.47852,47.05176,58.373,48,64,48c5.42139,0,10.30957-.83984,13.05225-2.23535a6.67157,6.67157,0,0,0,1.93652-1.36621,1.99311,1.99311,0,0,0,.32666-.46777L91.29932,20.15918a5.49076,5.49076,0,0,0-.07666-5.49707A6.1884,6.1884,0,0,0,85.87988,11.69043Zm-9.97119,30.1123a3.96858,3.96858,0,0,1-.64551.38477C73.09814,43.28809,68.67676,44,64,44c-6.40332,0-10.72705-1.252-11.90137-2.18262L49.496,36.65631A71.32878,71.32878,0,0,0,64,38a68.93889,68.93889,0,0,0,14.50018-1.337ZM87.76416,18.29,81.057,31.59216a6.25838,6.25838,0,0,1-1.11365.50256C76.78467,33.27051,70.67578,34,64,34c-9.2738,0-15.38092-1.36365-17.05707-2.40643L40.19971,18.22168a1.496,1.496,0,0,1,.02393-1.5293,2.14885,2.14885,0,0,1,1.89648-1.002h1.75977c.66455,0,1.26172.00586,1.79834.01172,2.80225.02344,4.34521.04395,5.481-1.0791a3.73771,3.73771,0,0,0,.981-2.77344c0-.89062.71826-3.334,7.37012-6.78418a10.15851,10.15851,0,0,1,8.979,0c6.65234,3.4502,7.37061,5.89355,7.37061,6.78418a3.73771,3.73771,0,0,0,.981,2.77344c1.13525,1.123,2.67969,1.10352,5.481,1.0791.53662-.00586,1.13379-.01172,1.79834-.01172h1.75977a2.14885,2.14885,0,0,1,1.89648,1.002A1.5414,1.5414,0,0,1,87.76416,18.29Z"></path><path d="M64,8a7.43018,7.43018,0,0,0-5.47119,2.64551,1.99976,1.99976,0,1,0,2.94238,2.709c1.65625-1.79687,3.40137-1.79687,5.05762,0a1.99976,1.99976,0,1,0,2.94238-2.709A7.43018,7.43018,0,0,0,64,8Z"></path><path d="M17.75208,53.17859A4,4,0,0,0,24.002,48.819l-1.53687-4.97351,3.8999-2.97931a3.99942,3.99942,0,0,0-2.36-7.22687H19.31128L17.82172,28.819a4,4,0,0,0-7.64337,0L8.68878,33.63934H4a4,4,0,0,0-2.42822,7.17859l3.96313,3.02759L3.998,48.819a4,4,0,0,0,6.24994,4.35956L14,50.31226ZM7.81964,50l2.36072-7.63934L4,37.63934h7.63934L14,30l2.36072,7.63934H24l-6.18036,4.72131L20.18036,50,14,45.27863Z"></path><path d="M124.005,33.63934h-4.69373L117.82172,28.819a4,4,0,0,0-7.64337,0l-1.48956,4.82031H104a4,4,0,0,0-2.42822,7.17859l3.96313,3.02759L103.998,48.819a4,4,0,0,0,6.24994,4.35956L114,50.31226l3.75208,2.86633A4,4,0,0,0,124.002,48.819l-1.53687-4.97351,3.8999-2.97931a3.99942,3.99942,0,0,0-2.36-7.22687Zm-6.18536,8.72131L120.18036,50,114,45.27863,107.81964,50l2.36072-7.63934L104,37.63934h7.63934L114,30l2.36072,7.63934H124Z"></path></svg>