<svg xmlns="http://www.w3.org/2000/svg" id="Layer_2" viewBox="0 0 64 64" data-name="Layer 2"><path d="m53 58h-15.6c-.553 0-1-.448-1-1s.447-1 1-1h15.6c1.103 0 2-.897 2-2v-22c0-1.103-.897-2-2-2h-42c-1.103 0-2 .897-2 2v22c0 1.103.897 2 2 2h15.6c.553 0 1 .448 1 1s-.447 1-1 1h-15.6c-2.206 0-4-1.794-4-4v-22c0-2.206 1.794-4 4-4h42c2.206 0 4 1.794 4 4v22c0 2.206-1.794 4-4 4z"></path><path d="m38 64h-12c-.553 0-1-.448-1-1s.447-1 1-1h12c.553 0 1 .448 1 1s-.447 1-1 1z"></path><path d="m37.699 61c-.508 0-.942-.385-.994-.9l-1.61-16.1h-6.189l-1.61 16.1c-.056.549-.537.955-1.095.896-.55-.055-.95-.545-.896-1.095l1.7-17c.051-.511.481-.9.995-.9h8c.514 0 .944.389.995.9l1.7 17c.055.55-.346 1.04-.896 1.095-.034.003-.067.005-.101.005z"></path><path d="m36.62 50.24c-.28 0-.56-.118-.757-.347-.361-.418-.314-1.049.104-1.41 1.292-1.116 2.033-2.75 2.033-4.483 0-3.309-2.691-6-6-6s-6 2.691-6 6c0 1.734.741 3.368 2.033 4.483.418.361.465.992.104 1.41-.36.417-.993.464-1.41.104-1.732-1.496-2.727-3.682-2.727-5.997 0-4.411 3.589-8 8-8s8 3.589 8 8c0 2.315-.994 4.501-2.727 5.997-.188.163-.422.243-.653.243z"></path><path d="m63 64h-62c-.553 0-1-.448-1-1v-3c0-.552.447-1 1-1h62c.553 0 1 .448 1 1v3c0 .552-.447 1-1 1zm-61-2h60v-1h-60z"></path><g><path d="m45 27h-6c-4.963 0-9-4.038-9-9v-11c0-3.86 3.141-7 7-7h10c3.859 0 7 3.14 7 7v11c0 4.962-4.037 9-9 9zm-8-25c-2.757 0-5 2.243-5 5v11c0 3.86 3.141 7 7 7h6c3.859 0 7-3.14 7-7v-11c0-2.757-2.243-5-5-5z"></path><path d="m46 30c-.553 0-1-.448-1-1v-2h-6v2c0 .552-.447 1-1 1s-1-.448-1-1v-3c0-.552.447-1 1-1h8c.553 0 1 .448 1 1v3c0 .552-.447 1-1 1z"></path><path d="m54 61c-.553 0-1-.448-1-1v-3.18c0-.552.447-1 1-1s1 .448 1 1v3.18c0 .552-.447 1-1 1z"></path><path d="m63 51c-.553 0-1-.448-1-1v-8c0-4.368-2.584-8.326-6.582-10.084-.506-.223-.735-.812-.513-1.318.221-.505.811-.736 1.317-.513 4.725 2.078 7.777 6.755 7.777 11.916v8c0 .552-.447 1-1 1z"></path><path d="m63 51h-7c-.553 0-1-.448-1-1s.447-1 1-1h7c.553 0 1 .448 1 1s-.447 1-1 1z"></path><path d="m61 63c-.553 0-1-.448-1-1v-12c0-.552.447-1 1-1s1 .448 1 1v12c0 .552-.447 1-1 1z"></path><path d="m31 21h-1c-2.206 0-4-1.794-4-4s1.794-4 4-4h1c.553 0 1 .448 1 1v6c0 .552-.447 1-1 1zm-1-6c-1.103 0-2 .897-2 2s.897 2 2 2z"></path><path d="m54 21h-1c-.553 0-1-.448-1-1v-6c0-.552.447-1 1-1h1c2.206 0 4 1.794 4 4s-1.794 4-4 4zm0-6v4c1.103 0 2-.897 2-2s-.897-2-2-2z"></path><path d="m42 23c-1.738 0-3-.841-3-2 0-.552.447-1 1-1 .478 0 .878.335.977.783.146.089.502.217 1.023.217s.877-.127 1.023-.216c.099-.448.499-.784.977-.784.553 0 1 .448 1 1 0 1.159-1.262 2-3 2z"></path><path d="m39 18c-.51 0-.931-.381-.992-.875-.078-.053-.255-.125-.508-.125s-.43.073-.508.125c-.062.493-.482.875-.992.875-.553 0-1-.448-1-1 0-1.122 1.098-2 2.5-2s2.5.878 2.5 2c0 .552-.447 1-1 1z"></path><path d="m48 18c-.51 0-.931-.381-.992-.875-.078-.053-.255-.125-.508-.125s-.43.073-.508.125c-.062.493-.482.875-.992.875-.553 0-1-.448-1-1 0-1.122 1.098-2 2.5-2s2.5.878 2.5 2c0 .552-.447 1-1 1z"></path><path d="m31.856 15.185c-.131 0-.258-.016-.381-.049-1.476-.399-1.476-2.459-1.476-3.136 0-.552.447-1 1-1s1 .448 1 1c0 .58.053.918.101 1.106.967-.553 3.197-3.459 5.036-6.61.228-.39.688-.579 1.124-.461.437.118.739.514.739.965 0 .813.312 1.509.951 2.128 2.706 2.618 10.312 2.965 13.016 2.872h.033c.537 0 .981.426.999.967.019.552-.414 1.014-.966 1.033-.43.014-10.604.309-14.472-3.433-.357-.346-.654-.715-.89-1.107-1.893 2.962-4.114 5.725-5.815 5.725z"></path></g><g><path d="m21 26h-20c-.553 0-1-.448-1-1v-24c0-.552.447-1 1-1h14c.266 0 .52.105.707.293l6 6c.188.188.293.442.293.707v18c0 .552-.447 1-1 1zm-19-2h18v-16.586l-5.414-5.414h-12.586z"></path><path d="m21 8h-6c-.553 0-1-.448-1-1s.447-1 1-1h6c.553 0 1 .448 1 1s-.447 1-1 1z"></path><path d="m15 8c-.553 0-1-.448-1-1v-5c0-.552.447-1 1-1s1 .448 1 1v5c0 .552-.447 1-1 1z"></path></g><path d="m10.999 18c-.19 0-.383-.054-.554-.168l-3-2c-.46-.306-.584-.927-.277-1.387.306-.46.925-.584 1.387-.277l3 2c.46.306.584.927.277 1.387-.192.289-.51.445-.833.445z"></path><path d="m10.999 18c-.226 0-.452-.076-.64-.232-.424-.354-.481-.984-.128-1.408l5-6c.354-.423.982-.482 1.409-.128.424.354.481.984.128 1.408l-5 6c-.198.237-.482.36-.77.36z"></path><path d="m17 22h-12c-.553 0-1-.448-1-1s.447-1 1-1h12c.553 0 1 .448 1 1s-.447 1-1 1z"></path><path d="m12 7h-7c-.553 0-1-.448-1-1s.447-1 1-1h7c.553 0 1 .448 1 1s-.447 1-1 1z"></path><path d="m12 11h-7c-.553 0-1-.448-1-1s.447-1 1-1h7c.553 0 1 .448 1 1s-.447 1-1 1z"></path></svg>