<svg xmlns="http://www.w3.org/2000/svg" clip-rule="evenodd" fill-rule="evenodd" stroke-linejoin="round" stroke-miterlimit="2" viewBox="0 0 32 32"><g transform="translate(-288)"><path d="m304 20c-2.76 0-5 2.24-5 5s2.24 5 5 5 5-2.24 5-5-2.24-5-5-5zm-10.001 3.5h-.499c-.928 0-1.818.369-2.475 1.025-.656.656-1.025 1.547-1.025 2.475v2c0 .276.224.5.5.5h2.5c.276 0 .5-.224.5-.5s-.224-.5-.5-.5h-2v-1.5c0-.663.263-1.299.732-1.768s1.105-.732 1.768-.732h1c.663 0 1.299.263 1.768.732s.732 1.105.732 1.768v1.5h-2c-.276 0-.5.224-.5.5s.224.5.5.5h2.5c.276 0 .5-.224.5-.5v-2c0-.928-.369-1.819-1.025-2.475-.657-.656-1.547-1.025-2.475-1.025h-.501.002c1.11 0 2.061-.794 2.259-1.885l.285-1.566c.137-.755-.068-1.531-.559-2.12s-1.219-.929-1.985-.929h-.002c-.766 0-1.494.34-1.985.929s-.696 1.365-.559 2.12l.285 1.566c.198 1.091 1.149 1.885 2.259 1.885zm21.001 6h2.5c.276 0 .5-.224.5-.5v-2c0-.928-.369-1.819-1.025-2.475-.657-.656-1.547-1.025-2.475-1.025-.331 0-.669 0-1 0-.928 0-1.818.369-2.475 1.025-.656.656-1.025 1.547-1.025 2.475v2c0 .276.224.5.5.5h2.5c.276 0 .5-.224.5-.5s-.224-.5-.5-.5h-2v-1.5c0-.663.263-1.299.732-1.768s1.105-.732 1.768-.732h1c.663 0 1.299.263 1.768.732s.732 1.105.732 1.768v1.5h-2c-.276 0-.5.224-.5.5s.224.5.5.5zm-11-8.5c2.208 0 4 1.792 4 4s-1.792 4-4 4-4-1.792-4-4 1.792-4 4-4zm-2.354 4.854 1.5 1.5c.1.099.236.152.377.145.14-.006.271-.071.361-.179l2.5-3c.177-.212.148-.527-.064-.704s-.527-.148-.704.064l-2.15 2.579s-1.112-1.113-1.112-1.113c-.196-.195-.512-.195-.708 0-.195.196-.195.512 0 .708zm14.985-5.805c.138-.755-.067-1.531-.559-2.12-.491-.589-1.218-.929-1.985-.929h-.001c-.767 0-1.494.34-1.985.929-.492.589-.696 1.365-.559 2.12l.284 1.566c.199 1.091 1.15 1.885 2.259 1.885h.003c1.109 0 2.06-.794 2.259-1.885zm-.984-.179-.284 1.566c-.112.616-.649 1.064-1.275 1.064-.001 0-.002 0-.003 0-.626 0-1.163-.448-1.275-1.064 0 0-.284-1.566-.284-1.566-.085-.463.041-.939.342-1.3.302-.361.748-.57 1.218-.57h.001c.47 0 .916.209 1.218.57.301.361.427.837.342 1.3zm-20.086 0-.285 1.566c-.112.616-.649 1.064-1.275 1.064-.001 0-.001 0-.002 0-.626 0-1.163-.448-1.275-1.064 0 0-.285-1.566-.285-1.566-.084-.463.041-.939.343-1.3.301-.361.747-.57 1.217-.57h.002c.47 0 .916.209 1.217.57.302.361.427.837.343 1.3zm12.823-7.69s-.086-.18-.39-.18h-.494c-.398 0-.779-.158-1.061-.439-.281-.282-.439-.663-.439-1.061v-5.5c0-.398.158-.779.439-1.061.282-.281.663-.439 1.061-.439h3c.276 0 .5-.224.5-.5s-.224-.5-.5-.5h-3c-.663 0-1.299.263-1.768.732s-.732 1.105-.732 1.768v5.5c0 .663.263 1.299.732 1.768s1.105.732 1.768.732h.266s2.35 2.82 2.35 2.82c.135.162.356.222.554.15s.33-.259.33-.47v-2.5h1c.276 0 .5-.224.5-.5s-.224-.5-.5-.5h-1.5c-.276 0-.5.224-.5.5v1.619s-1.616-1.939-1.616-1.939zm-6.384-2.174v.494c0 .398-.158.779-.439 1.061-.282.281-.663.439-1.061.439h-2c-.133 0-.26.053-.354.146l-2.146 2.147v-1.793c0-.276-.224-.5-.5-.5 0 0-1.608 0-3 0-.398 0-.779-.158-1.061-.439-.281-.282-.439-.663-.439-1.061v-5.5c0-.398.158-.779.439-1.061.282-.281.663-.439 1.061-.439h3c.276 0 .5-.224.5-.5s-.224-.5-.5-.5h-3c-.663 0-1.299.263-1.768.732s-.732 1.105-.732 1.768v5.5c0 .663.263 1.299.732 1.768s1.105.732 1.768.732h2.5v2.5c0 .202.122.385.309.462.186.077.402.035.545-.108l2.853-2.854h1.793c.663 0 1.299-.263 1.768-.732s.732-1.105.732-1.768c0-.264.001-.458 0-.494-.016-.524-1.024-.371-1-.006zm12 2.994h1.5c.663 0 1.299-.263 1.768-.732s.732-1.105.732-1.768c0-1.617 0-3.883 0-5.5 0-.663-.263-1.299-.732-1.768s-1.105-.732-1.768-.732h-3c-.276 0-.5.224-.5.5s.224.5.5.5h3c.398 0 .779.158 1.061.439.281.282.439.663.439 1.061v5.5c0 .398-.158.779-.439 1.061-.282.281-.663.439-1.061.439-.784 0-1.5 0-1.5 0-.276 0-.5.224-.5.5s.224.5.5.5zm-21.5-2.5h8c.276 0 .5-.224.5-.5s-.224-.5-.5-.5h-8c-.276 0-.5.224-.5.5s.224.5.5.5zm15 0h4c.276 0 .5-.224.5-.5s-.224-.5-.5-.5h-4c-.276 0-.5.224-.5.5s.224.5.5.5zm6 0h2c.276 0 .5-.224.5-.5s-.224-.5-.5-.5h-2c-.276 0-.5.224-.5.5s.224.5.5.5zm-10.5-2.5v-3c0-.663-.263-1.299-.732-1.768s-1.105-.732-1.768-.732c-1.392 0-3 0-3 0-.276 0-.5.224-.5.5s.224.5.5.5h3c.398 0 .779.158 1.061.439.281.282.439.663.439 1.061v3c0 .276.224.5.5.5s.5-.224.5-.5zm4.5.5h8c.276 0 .5-.224.5-.5s-.224-.5-.5-.5h-8c-.276 0-.5.224-.5.5s.224.5.5.5zm-15 0h8c.276 0 .5-.224.5-.5s-.224-.5-.5-.5h-8c-.276 0-.5.224-.5.5s.224.5.5.5zm15-2h8c.276 0 .5-.224.5-.5s-.224-.5-.5-.5h-8c-.276 0-.5.224-.5.5s.224.5.5.5zm-15 0h2c.276 0 .5-.224.5-.5s-.224-.5-.5-.5h-2c-.276 0-.5.224-.5.5s.224.5.5.5zm4 0h4c.276 0 .5-.224.5-.5s-.224-.5-.5-.5h-4c-.276 0-.5.224-.5.5s.224.5.5.5z"></path></g></svg>