<svg xmlns="http://www.w3.org/2000/svg" clip-rule="evenodd" fill-rule="evenodd" height="512" viewBox="0 0 173.397 173.397" width="512"><g id="Layer_x0020_1"><g id="_528956552"><path id="_528958400" d="m29.6351 45.974c-.458 0-.9131-.1732-1.2597-.5196-.6949-.6962-.6961-1.8254 0-2.5214l14.2448-14.2438c.6959-.6961 1.8209-.696 2.5172.0002.6972.6959.696 1.8253 0 2.5213l-14.2437 14.2436c-.3452.3465-.8044.5198-1.2586.5197z"></path><path id="_528958832" d="m43.8786 45.974c-.4579 0-.9131-.1732-1.2595-.5196l-14.2425-14.2438c-.6961-.696-.6973-1.8252-.0012-2.5212.6974-.6963 1.8222-.6962 2.5183 0l14.2448 14.2435c.6961.696.6949 1.8253-.0011 2.5215-.3455.3464-.8043.5197-1.2588.5196z"></path><path id="_528958592" d="m36.7575 19.2997c-9.801 0-17.7748 7.9726-17.7748 17.7706.0007 9.8009 7.9727 17.7736 17.7737 17.7736 9.802-.0002 17.7737-7.9726 17.7737-17.7736 0-9.798-7.9727-17.7705-17.7726-17.7706zm0 39.1082c-11.7655 0-21.3388-9.572-21.3388-21.3376.0007-11.7625 9.5723-21.3345 21.3377-21.3345 11.7665-.0001 21.3377 9.5721 21.3377 21.3345 0 11.7655-9.5723 21.3376-21.3366 21.3376z"></path><path id="_528957536" d="m82.9684 91.0129c.5569 11.6107 10.3354 21.418 21.3649 21.418 11.0145 0 20.7806-9.7824 21.3622-21.3747l-.1568-6.3237c-13.8201-6.4845-28.9092-6.4906-42.7288-.0215zm21.3659 24.982c-6.4013 0-12.5341-2.6513-17.2673-7.4652-4.6332-4.715-7.3539-10.8838-7.6603-17.3683.0005-.0155-.003-.0278-.003-.0403l-.1845-7.4713c-.0153-.6931.3701-1.3366.992-1.6428 15.4359-7.6168 32.4317-7.6199 47.8665-.0062.5948.2938.9775.891.9931 1.5531l.1892 7.4774c.0029.0434-.0005.0868-.0005.1301-.3057 6.4844-3.0257 12.6534-7.6603 17.3683-4.7325 4.8139-10.8649 7.4652-17.2649 7.4652z"></path><path id="_528957464" d="m162.735 157.661h-117.108c-.9843 0-1.783-.7981-1.783-1.7819.001-10.8064 6.361-20.6786 16.2019-25.146l30.9233-14.0334v-5.8719c0-.9837.797-1.7819 1.781-1.7819.9838-.0001 1.7818.7982 1.7818 1.782l.0012 7.0197c0 .6992-.4095 1.3334-1.0469 1.6212l-31.9674 14.5096c-8.0272 3.6445-13.396 11.416-14.0457 20.1187l113.414-.0001c-.6502-8.7027-6.0183-16.4741-14.0466-20.1186l-31.9665-14.5096c-.6377-.2879-1.0467-.9219-1.0467-1.6211l.001-6.8279c0-.9839.797-1.782 1.781-1.782.9839-.0002 1.782.7982 1.782 1.782l.001 5.6799 30.9219 14.0333c9.8413 4.4673 16.2009 14.3397 16.2009 25.1461 0 .9838-.7982 1.782-1.7806 1.7819z"></path><path id="_528957320" d="m144.759 157.661c-.9829 0-1.7821-.7981-1.7821-1.7819l.0001-10.8808c0-.9868.7981-1.7819 1.782-1.7819.9843-.0001 1.7819.7951 1.7819 1.782l.0001 10.8806c0 .9839-.7984 1.7821-1.782 1.782z"></path><path id="_528957440" d="m63.6018 157.661c-.9843 0-1.7831-.7981-1.7831-1.7819l.0011-10.8808c0-.9868.797-1.7819 1.7809-1.7819.9852-.0001 1.782.7951 1.782 1.782l.0011 10.8806c0 .9839-.7991 1.7821-1.782 1.782z"></path><path id="_528957680" d="m98.7531 157.661c-.0877 0-.1713-.0061-.2611-.0185-.9712-.1391-1.6487-1.0456-1.5065-2.0202l2.5471-17.557-2.538-7.1805c-.3299-.9283.1579-1.946 1.0861-2.274.9257-.3311 1.9458.1578 2.2738 1.0859l2.6865 7.595c.064.192.1012.3931.1012.5942.0003.0864-.0063.1732-.0188.2598l-2.6107 17.9901c-.1267.888-.8914 1.5253-1.7596 1.5252z"></path><path id="_528958064" d="m109.605 157.661c-.8687 0-1.6305-.6372-1.7606-1.5251l-2.6081-17.9933c-.0432-.2877-.0155-.5784.0803-.8507l2.686-7.5983c.3245-.9281 1.3453-1.4138 2.2736-1.0859.9256.3278 1.4139 1.3458 1.0859 2.2739l-2.5367 7.1837 2.5463 17.56c.1419.9716-.5356 1.8781-1.5071 2.0172-.0856.0124-.1733.0186-.2596.0185z"></path><path id="_528957848" d="m106.998 139.671h-5.637c-.9871 0-1.7823-.798-1.7823-1.7819.0003-.9838.7949-1.7819 1.7816-1.7819h5.6377c.9843 0 1.7813.7981 1.7813 1.7819.0007.9838-.798 1.782-1.7813 1.7819z"></path><path id="_528957608" d="m93.4071 132.556v.0031s-.001.0002 0-.0031zm-.3995 3.363c-.17 0-.341-.0154-.5113-.0432-.828-.1394-1.5468-.6003-2.0232-1.2933l-8.0768-11.6852c-.5597-.8104-.3598-1.921.4507-2.4779.8105-.56 1.9211-.3589 2.4782.4517l7.8034 11.2858 21.4271-15.744c.7949-.5847 1.908-.4145 2.4896.3806.5858.792.4146 1.9089-.3806 2.4905l-21.8223 16.0348c-.5318.3898-1.1795.6003-1.8348.6002z"></path><path id="_528957704" d="m115.363 135.937c-.653 0-1.2846-.2073-1.8199-.6033l-21.8474-16.0504c-.7921-.5816-.9661-1.6983-.3813-2.4904.5818-.7952 1.6983-.9652 2.4902-.3805l21.4622 15.7657 8.0997-11.1963c.575-.7983 1.6912-.9776 2.4864-.4022.7993.5785.9776 1.6923.4024 2.4905l-8.3837 11.5861c-.4886.6743-1.2072 1.1137-2.0268 1.2405-.1603.0279-.3219.0403-.4818.0403z"></path><path id="_528957656" d="m104.15 76.3206c7.8533 0 15.5276 1.7326 22.8382 5.1574 2.1879-6.0699.5691-13.6435.0123-15.8493-5.2587-3.165-13.727-5.0397-22.8505-5.0397-9.1203-.0001-17.5879 1.8748-22.8473 5.0397-.5525 2.2057-2.1656 9.7917.0095 15.8462 7.3136-3.4219 14.986-5.1542 22.8378-5.1543zm23.7327 9.3586c-.2715 0-.5481-.0618-.8047-.1949-14.785-7.5117-31.0675-7.5115-45.8526 0-.8775.4455-1.9492.096-2.3975-.7796-4.3371-8.5357-.9222-20.2331-.7735-20.725.1216-.4053.3834-.7548.7363-.9838 12.3256-8.0036 38.3965-8.0035 50.719 0 .3567.229.6154.5785.7363.9838.1496.4919 3.564 12.1894-.7737 20.725-.3117.6186-.9403.9746-1.5896.9745z"></path><path id="_528957032" d="m64.49 55.8864 14.565 6.9424c12.3404-7.7808 37.8542-7.7808 50.1921 0l14.5654-6.9424-39.662-16.2514zm64.2076 10.9611c-.2577 0-.518-.0555-.756-.1701-.4413-.2072-.7796-.5847-.9343-1.0457-5.2581-3.1649-13.727-5.0427-22.8568-5.0427-9.1259-.0001-17.5972 1.8778-22.8566 5.0427-.1534.461-.4918.8416-.9343 1.0457-.482.2257-1.0394.2259-1.5189-.0031l-19.5185-9.2998c-.6335-.3031-1.0333-.9528-1.0148-1.6581.0221-.7055.4546-1.3335 1.1077-1.5995l44.0617-18.0552c.4329-.1794.9182-.1794 1.3513.0001l44.0616 18.055c.653.2661 1.0856.8941 1.104 1.5996.0196.7051-.3775 1.355-1.0145 1.6581l-19.5146 9.2998c-.2421.1146-.5052.1733-.767.1732z"></path><path id="_528956960" d="m87.3955 75.0212c-.4734 0-.9504-.1886-1.3002-.563-.6738-.7179-.634-1.847.0837-2.5183.1487-.1391 3.728-3.4309 10.9177-5.1139.9601-.2259 1.915.3681 2.1409 1.3272.2241.959-.3713 1.9181-1.3272 2.1408-6.2728 1.4695-9.2687 4.2199-9.2964 4.2478-.3427.3218-.783.4795-1.2185.4794z"></path><path id="_528956864" d="m120.907 75.0212c-.433 0-.8699-.1576-1.2104-.4733-.0607-.0557-3.143-2.8091-9.3028-4.2539-.9584-.2227-1.553-1.1818-1.3271-2.1408.2238-.9592 1.1818-1.553 2.1407-1.3272 7.191 1.6829 10.7693 4.9748 10.9179 5.1139.7182.6713.7549 1.8006.0837 2.5183-.3526.3743-.8261.5631-1.302.563z"></path><path id="_528956696" d="m83.7633 157.661c-.7212 0-1.3989-.4391-1.6682-1.1569l-10.8823-29.0134c-.3466-.9218.1193-1.9489 1.0413-2.2923.9231-.3466 1.9488.1207 2.2956 1.0426l10.8844 29.0131c.3438.922-.1244 1.9492-1.0464 2.2956-.2038.0743-.4145.1114-.6244.1113z"></path><path id="_528957272" d="m124.598 157.661c-.2075 0-.4212-.034-.6253-.1113-.9215-.3465-1.3891-1.3735-1.0427-2.2955l10.8816-29.0132c.3465-.9221 1.3728-1.3891 2.2948-1.0426.9224.3433 1.389 1.3705 1.0425 2.2925l-10.8831 29.013c-.2659.7179-.9475 1.1572-1.6678 1.1571z"></path><path id="_528956888" d="m43.8104 79.0834c-.2992 0-.6036.0526-.8975.1609l-14.0017 5.1944c-2.9417 1.0951-5.6064 2.5338-7.9144 4.2725-11.6264 8.7707-8.0315 19.1348-7.9941 19.237.0222.0617.0401.1236.0556.1855 4.9661 20.2702 33.7373 16.7774 34.0281 16.7403.075-.0094.1515-.0155.2259-.0155.7247-.0001 1.4045-.2815 1.9149-.792.5111-.5105.7921-1.191.7921-1.9119.0002-.7271-.2815-1.4077-.7952-1.9213-.5104-.5105-1.1848-.7889-1.9055-.7889-.0028-.0001-.0032-.0031-.0063 0-.9834-.0001-1.782-.7982-1.782-1.782-.0019-.9839.7919-1.782 1.7788-1.782.0013-.0001.0032 0 .0032 0 .7247-.0031 1.4014-.2846 1.9118-.795.5114-.5106.7921-1.1911.7889-1.912.0011-.7239-.2815-1.4046-.7919-1.915-.5102-.5105-1.1879-.792-1.9057-.792-.0024-.0001-.0063 0-.0063 0-.003-.0001-.003 0-.003 0-.9829-.0001-1.779-.7951-1.7821-1.779.0001-.9837.7952-1.782 1.7788-1.785.0005-.0001 0 0 .0033 0v-.0001c1.4911 0 2.7037-1.2158 2.7037-2.71.0014-.7241-.2813-1.4015-.7948-1.9151-.5069-.5074-1.1818-.7889-1.8996-.7889l-.0121-.0001s-.0005.0001-.0005.0001c-.9824-.0001-1.7818-.7982-1.7818-1.782-.0025-.9839.7951-1.782 1.7788-1.782.0063-.0001.0093 0 .0156 0l20.1259-.0093c1.4228 0 2.582-1.1601 2.582-2.5863.0005-1.4263-1.16-2.5833-2.5863-2.5833l-33.074.0154s-.0013.0001-.0013.0001c-.8311-.0001-1.5529-.5755-1.7386-1.3891-.1814-.8107.2196-1.6428.9713-2.0017l11.3269-5.4017c1.253-.6002 1.8032-2.0666 1.2494-3.3381-.4085-.9406-1.3334-1.5469-2.3603-1.5469zm-1.8866 49.6236c-2.9862 0-6.8752-.2319-10.9466-1.0951-11.5732-2.4533-18.9585-8.8666-21.3623-18.5532-.1999-.6095-1.1076-3.6538-.56-7.7467.5453-4.087 2.6855-10.0825 9.7949-15.4471 2.5867-1.946 5.5531-3.5517 8.8202-4.7644l14.0118-5.2006c.696-.2538 1.4105-.3805 2.1282-.3805 2.4478 0 4.6592 1.4478 5.6307 3.6909 1.3223 3.041.0093 6.5432-2.9854 7.9756l-4.2098 2.0078 25.189-.0124c3.394 0 6.1528 2.7567 6.1528 6.1474.0005 3.3907-2.7595 6.1503-6.147 6.1503l-14.4777.0061c.4023.8353.6112 1.7543.6112 2.7072.0042 1.7571-.7238 3.3474-1.89 4.489.0189.0185.0372.0372.0556.0557 1.1855 1.1848 1.8376 2.7596 1.8376 4.4333.0039 1.6737-.6497 3.2485-1.8315 4.4334-.0179.0184-.0371.0371-.0556.0556.0199.0185.037.0372.0556.0527 1.185 1.1878 1.8378 2.7627 1.8378 4.4395.003 3.4155-2.7442 6.2061-6.1503 6.271-.5041.0618-2.571.2846-5.5092.2845z"></path><path id="_528956720" d="m36.7575 81.4098c-.9844 0-1.7831-.7981-1.7831-1.7818l.0011-23.0023c0-.9838.7969-1.7818 1.7809-1.7818.984-.0002 1.782.7982 1.782 1.782l.001 23.0019c0 .9839-.799 1.7821-1.7819 1.782z"></path><path id="_528957056" d="m92.7513 114.952h-40.9552c-.9844 0-1.7831-.7981-1.7831-1.7819.0011-.9839.7984-1.782 1.782-1.782l40.9563-.0001c.9828 0 1.7808.7983 1.7808 1.7821.0012.9837-.7984 1.782-1.7808 1.7819z"></path></g></g></svg>