<svg xmlns="http://www.w3.org/2000/svg" id="Layer_1" viewBox="0 0 512 512"><path d="m463.545 329.068h-12.431v-10.312c0-7.516-6.115-13.631-13.632-13.631h-30.61v-38.715h11.201c12.201 0 22.127-9.926 22.127-22.127v-42.396c0-12.201-9.926-22.127-22.127-22.127h-79.748c.839-.65 1.661-1.308 2.45-1.981 11.854-10.108 17.433-22.339 16.58-36.354-1.071-17.592-13.311-33.042-31.181-39.358-19.663-6.95-41.171-1.209-57.538 15.351-8.017 8.112-15.135 18.637-21.562 31.882-5.226-9.903-11.417-19.654-18.87-29.789-22.423-30.491-45.716-32.693-57.61-31.296-22.202 2.613-38.859 21.143-39.606 44.058-.615 18.881 8.099 34.948 25.466 47.486h-75.782c-12.201 0-22.128 9.926-22.128 22.127v42.396c0 12.201 9.927 22.127 22.128 22.127h11.2v178.942c0 19.136 15.568 34.704 34.705 34.704h42.844 12.431v10.312c0 7.517 6.115 13.631 13.632 13.631h268.062c7.517 0 13.632-6.115 13.632-13.631v-147.67c-.001-7.514-6.116-13.629-13.633-13.629zm-72.673-23.944h-109.35v-38.714h109.35zm-157.649-109.364h32.3v109.364h-32.3zm190.977 6.127v42.396c0 3.378-2.748 6.127-6.127 6.127h-136.551v-54.65h136.551c3.379 0 6.127 2.749 6.127 6.127zm-144.182-73.221c12.074-12.219 26.953-16.414 40.825-11.513 11.799 4.17 19.862 14.08 20.542 25.245.948 15.583-11.711 28.148-37.612 37.362h-21.748c3.132-.743 6.147-1.519 9.015-2.327 30.268-8.537 45.168-20.215 44.285-34.709-.601-9.886-8.716-17.085-16.494-19.835-11.409-4.03-24.297-.298-34.471 9.995-8.46 8.561-15.958 21.167-22.923 38.538-1.089 2.716-.607 5.81 1.254 8.067.079.096.168.181.251.272h-2.917c-1.25-3.762-2.584-7.444-4.018-11.061 7.101-17.765 14.97-30.887 24.011-40.034zm2.705 34.442c4.162-8.105 8.468-14.374 13.019-18.978 4.422-4.475 9.244-6.84 13.727-6.84 1.384 0 2.735.225 4.031.684 3.104 1.097 5.73 3.663 5.855 5.721.189 3.104-6.394 10.932-32.658 18.339-1.293.364-2.619.722-3.974 1.074zm-135.743-30.313c.486-14.943 11.205-27.008 25.484-28.689 14.584-1.725 29.79 7.124 42.851 24.885 12.623 17.165 21.357 33.092 27.777 50.769h-11.4c.132-.142.267-.28.389-.433 1.857-2.32 2.276-5.478 1.088-8.202-5.581-12.784-12.813-25.039-22.761-38.568-15.775-21.452-30.142-23.234-37.309-22.398-11.247 1.323-19.693 10.914-20.082 22.806-.442 13.585 8.045 32.326 50.999 44.456 2.878.813 5.903 1.593 9.044 2.339h-21.619c-21.039-7.608-45.279-21.847-44.461-46.965zm64.126 29.98c-.929-.248-1.843-.498-2.741-.751-12.002-3.39-39.863-12.956-39.354-28.537.109-3.366 1.995-6.971 5.959-7.438 6.234-.741 14.649 5.245 22.55 15.986 5.315 7.23 9.781 14.037 13.586 20.74zm-136.562 81.508v-42.396c0-3.378 2.749-6.127 6.128-6.127h136.551v54.65h-136.551c-3.379 0-6.128-2.748-6.128-6.127zm81.246 74.472v145.301h-29.213c-10.314 0-18.705-8.391-18.705-18.704v-178.942h109.351v38.714h-47.802c-7.516 0-13.631 6.115-13.631 13.631zm26.062 23.944v121.358h-10.062v-142.933h263.324v7.944h-239.631c-7.516 0-13.631 6.115-13.631 13.631zm279.325 145.301h-263.325v-142.932h263.325zm-243.979-25.97c4.573.575 8.169 4.17 8.743 8.746.667 5.291 5.19 9.281 10.522 9.281h186.101c5.336 0 9.86-3.992 10.522-9.283.574-4.574 4.171-8.169 8.744-8.744 5.292-.665 9.283-5.188 9.283-10.522v-69.948c0-5.333-3.99-9.856-9.283-10.522-4.574-.575-8.169-4.17-8.744-8.741-.662-5.294-5.186-9.286-10.521-9.286h-186.101c-5.332 0-9.855 3.99-10.522 9.283-.574 4.574-4.17 8.169-8.746 8.744-5.291.667-9.281 5.19-9.281 10.522v69.947c-.001 5.335 3.99 9.858 9.283 10.523zm6.716-76.159c8.005-2.563 14.297-8.856 16.86-16.86h177.479c2.564 8.005 8.856 14.297 16.86 16.86v61.327c-8.004 2.563-14.295 8.854-16.859 16.859h-177.48c-2.564-8.004-8.856-14.296-16.86-16.86zm175.749 30.663c0-5.637 4.57-10.207 10.207-10.207s10.208 4.57 10.208 10.207-4.57 10.207-10.208 10.207-10.207-4.57-10.207-10.207zm-160.711 0c0-5.637 4.57-10.207 10.208-10.207 5.637 0 10.207 4.57 10.207 10.207s-4.57 10.207-10.207 10.207c-5.639 0-10.208-4.57-10.208-10.207zm99.571 16.043c.351-.405.711-.945.555-2.235-.161-1.324-.537-4.424-10.81-6.111-18.889-3.101-22.215-13.996-22.516-20.214-.477-9.821 5.782-18.118 15.762-21.212v-.989c0-4.418 3.582-8 8-8s8 3.582 8 8v.877c6.879 2.118 12.588 7.072 15.528 14.077 1.711 4.074-.205 8.763-4.279 10.473-4.068 1.708-8.763-.204-10.473-4.279-2.313-5.509-8.106-5.806-11.166-5.11-1.312.297-5.577 1.565-5.392 5.388.045.923.182 3.732 9.127 5.201 14.676 2.41 22.784 9.129 24.101 19.971.67 5.517-.829 10.576-4.336 14.63-3.098 3.582-7.752 6.206-13.11 7.516v.693c0 4.418-3.582 8-8 8s-8-3.582-8-8v-.835c-8.672-2.41-15.242-8.683-17.364-17.189-1.068-4.287 1.54-8.628 5.827-9.698 4.285-1.068 8.629 1.539 9.698 5.827 1.167 4.685 6.314 6.245 10.364 6.138 3.584-.087 7.072-1.287 8.484-2.919zm-131.738-380.645 15.972 12.837-5.376 19.775c-1.079 3.969.375 8.096 3.703 10.514 3.327 2.417 7.701 2.525 11.144.271l17.145-11.224 17.146 11.224c1.65 1.081 3.517 1.619 5.378 1.619 2.02 0 4.033-.632 5.765-1.89 3.328-2.417 4.782-6.544 3.703-10.516l-5.376-19.773 15.972-12.837c3.206-2.577 4.457-6.771 3.186-10.684s-4.748-6.569-8.855-6.769l-20.468-.998-7.273-19.157c-1.462-3.842-5.064-6.324-9.179-6.324s-7.717 2.482-9.175 6.324l-7.274 19.157-20.467.998c-4.108.2-7.585 2.857-8.856 6.77-1.272 3.912-.021 8.106 3.185 10.683zm30.958-2.667c3.9-.188 7.316-2.67 8.701-6.319l2.928-7.712 2.928 7.71c1.385 3.652 4.801 6.133 8.698 6.321l8.24.402-6.428 5.166c-3.044 2.444-4.349 6.458-3.325 10.228l2.164 7.959-6.903-4.519c-3.265-2.137-7.483-2.134-10.75.001l-6.901 4.518 2.164-7.961c1.024-3.768-.281-7.781-3.322-10.224l-6.431-5.168zm-173.808 120.421 17.145-11.223 17.146 11.223c3.444 2.254 7.817 2.146 11.145-.272 3.328-2.419 4.78-6.547 3.7-10.515l-5.376-19.773 15.974-12.839c3.206-2.578 4.456-6.771 3.184-10.683-1.271-3.912-4.748-6.569-8.855-6.769l-20.467-.998-7.273-19.157c-1.459-3.842-5.061-6.324-9.177-6.324-4.115 0-7.717 2.482-9.176 6.324l-7.273 19.157-20.466.998c-4.108.2-7.585 2.857-8.856 6.769-1.272 3.912-.022 8.105 3.185 10.684l15.972 12.838-5.374 19.771c-1.081 3.97.371 8.098 3.7 10.517 1.732 1.258 3.747 1.891 5.767 1.891 1.858 0 3.724-.538 5.375-1.619zm5.516-46.064c3.905-.189 7.322-2.674 8.699-6.319l2.929-7.714 2.925 7.702c1.382 3.657 4.799 6.142 8.701 6.331l8.24.402-6.434 5.17c-3.039 2.445-4.342 6.457-3.319 10.223l2.164 7.96-6.899-4.517c-3.268-2.14-7.489-2.14-10.753-.001l-6.902 4.519 2.165-7.963c1.022-3.768-.282-7.781-3.323-10.223l-6.43-5.168zm305.627 2.666 15.972 12.837-5.376 19.775c-1.079 3.969.375 8.096 3.703 10.514s7.701 2.525 11.144.271l17.145-11.223 17.146 11.223c1.65 1.081 3.517 1.619 5.378 1.619 2.02 0 4.033-.632 5.765-1.89 3.328-2.417 4.782-6.544 3.703-10.516l-5.376-19.773 15.973-12.838c3.206-2.578 4.456-6.771 3.185-10.684-1.272-3.912-4.748-6.568-8.855-6.768l-20.468-.998-7.273-19.157c-1.459-3.842-5.061-6.324-9.176-6.324s-7.717 2.482-9.175 6.324l-7.274 19.157-20.467.998c-4.108.2-7.584 2.856-8.856 6.769-1.275 3.912-.025 8.105 3.182 10.684zm30.958-2.666c3.9-.188 7.316-2.67 8.701-6.319l2.928-7.712 2.928 7.71c1.385 3.652 4.801 6.133 8.698 6.321l8.24.402-6.428 5.166c-3.044 2.444-4.349 6.458-3.325 10.228l2.164 7.96-6.9-4.517c-1.634-1.07-3.506-1.605-5.378-1.605-1.871 0-3.743.535-5.375 1.604l-6.901 4.518 2.165-7.962c1.022-3.768-.282-7.781-3.323-10.223l-6.431-5.168z"></path></svg>