<svg xmlns="http://www.w3.org/2000/svg" id="Layer_1" data-name="Layer 1" viewBox="0 0 128 128"><title></title><path d="M121.06915,5.41339l-2.30078-4.34888a2.00137,2.00137,0,0,0-3.53711,0l-2.30072,4.34888-5.19971.70581a1.99514,1.99514,0,0,0-1.07764,3.454l3.6792,3.34576-.8623,4.68909a1.99921,1.99921,0,0,0,2.84912,2.15253l4.6806-2.29584,4.68066,2.29584A1.99921,1.99921,0,0,0,124.5296,17.608l-.8623-4.68909,3.6792-3.34576a1.99514,1.99514,0,0,0-1.07764-3.454Zm-.916,5.30035a1.99427,1.99427,0,0,0-.62061,1.83667l.34521,1.87665-1.99609-.97882a2.00169,2.00169,0,0,0-1.76367,0l-1.99609.97882.34521-1.87665a1.99427,1.99427,0,0,0-.62061-1.83667l-1.33441-1.21368,1.97552-.26807a1.99874,1.99874,0,0,0,1.49951-1.04608l1.0127-1.91364,1.0127,1.91364A1.99874,1.99874,0,0,0,119.512,9.232l1.97559.26807Z"></path><path d="M38.61823,72.27856a13.54159,13.54159,0,0,1,1.44824-.75946,14.3727,14.3727,0,0,1,1.63965-.51862,9.18922,9.18922,0,0,0,4.31445-2.09985,9.15678,9.15678,0,0,0,2.10352-4.30792,14.44626,14.44626,0,0,1,.51953-1.63586,13.40772,13.40772,0,0,1,.76074-1.4447,9.12376,9.12376,0,0,0,1.5957-4.61115,9.124,9.124,0,0,0-1.5957-4.61115,13.49233,13.49233,0,0,1-.76074-1.44373,14.59381,14.59381,0,0,1-.51953-1.63684,9.16035,9.16035,0,0,0-2.103-4.30792,9.19,9.19,0,0,0-4.31445-2.09888A14.602,14.602,0,0,1,40.066,42.2829a13.39964,13.39964,0,0,1-1.44678-.75946,9.16216,9.16216,0,0,0-4.61908-1.5929,9.157,9.157,0,0,0-4.61816,1.5929,13.54159,13.54159,0,0,1-1.44824.75946,14.36053,14.36053,0,0,1-1.63965.51862,9.18979,9.18979,0,0,0-4.31445,2.09985,9.15678,9.15678,0,0,0-2.10352,4.30792,14.44626,14.44626,0,0,1-.51953,1.63586,13.40772,13.40772,0,0,1-.76074,1.4447,9.124,9.124,0,0,0-1.5957,4.61115,9.12376,9.12376,0,0,0,1.5957,4.61115,13.487,13.487,0,0,1,.76074,1.44379,14.58853,14.58853,0,0,1,.51953,1.63678,9.16035,9.16035,0,0,0,2.103,4.30792,9.1894,9.1894,0,0,0,4.31445,2.09888,14.61459,14.61459,0,0,1,1.64063.51959,13.39964,13.39964,0,0,1,1.44678.75946,9.1616,9.1616,0,0,0,4.61914,1.5929A9.15636,9.15636,0,0,0,38.61823,72.27856Zm-9.15131-4.4483a17.80752,17.80752,0,0,0-2.106-.67853,6.22418,6.22418,0,0,1-2.55371-1.07428,6.19624,6.19624,0,0,1-1.07617-2.54932,17.81137,17.81137,0,0,0-.6792-2.10181,16.66341,16.66341,0,0,0-.98877-1.90491,6.07034,6.07034,0,0,1-1.063-2.62042,6.07034,6.07034,0,0,1,1.063-2.62042,16.59734,16.59734,0,0,0,.98877-1.90588,17.72583,17.72583,0,0,0,.6792-2.09985,6.19305,6.19305,0,0,1,1.07715-2.55023A6.21554,6.21554,0,0,1,27.361,46.65027a17.77123,17.77123,0,0,0,2.10547-.67847,16.574,16.574,0,0,0,1.90918-.98755,6.098,6.098,0,0,1,2.62451-1.06067,6.09054,6.09054,0,0,1,2.62494,1.06165,16.75123,16.75123,0,0,0,1.9082.98657,17.807,17.807,0,0,0,2.106.67847,6.22335,6.22335,0,0,1,2.55371,1.07434,6.19557,6.19557,0,0,1,1.07617,2.54926,17.81137,17.81137,0,0,0,.6792,2.10181,16.66341,16.66341,0,0,0,.98877,1.90491,6.07034,6.07034,0,0,1,1.063,2.62042,6.07034,6.07034,0,0,1-1.063,2.62042,16.59734,16.59734,0,0,0-.98877,1.90588,17.72584,17.72584,0,0,0-.6792,2.09985A6.19372,6.19372,0,0,1,43.192,66.07745a6.21638,6.21638,0,0,1-2.55273,1.07428,17.77176,17.77176,0,0,0-2.10547.67853,16.57369,16.57369,0,0,0-1.90918.98749,6.09811,6.09811,0,0,1-2.62445,1.06067,6.09046,6.09046,0,0,1-2.625-1.06165A16.751,16.751,0,0,0,29.46692,67.83026Z"></path><path d="M37.70026,51.87653A2.00321,2.00321,0,0,0,34.9,52.27527L28.9,60.26135a1.999,1.999,0,0,0,3.2002,2.39624l5.99994-7.98608A1.99439,1.99439,0,0,0,37.70026,51.87653Z"></path><circle cx="30.00012" cy="51.97591" r="2"></circle><circle cx="38.00006" cy="61.95856" r="2"></circle><path d="M116.99982,30.94617a7,7,0,1,0-6.99994,6.98785A7.0021,7.0021,0,0,0,116.99982,30.94617Zm-9.99994,0a3,3,0,1,1,3,2.99475A3.00069,3.00069,0,0,1,106.99988,30.94617Z"></path><path d="M4.3327,12.91895,3.4704,17.608a1.99921,1.99921,0,0,0,2.84912,2.15253l4.68066-2.29584,4.6806,2.29584A1.99921,1.99921,0,0,0,18.52991,17.608l-.8623-4.68909,3.6792-3.34576a1.99514,1.99514,0,0,0-1.07764-3.454l-5.19971-.70581L12.76874,1.06451a2.00137,2.00137,0,0,0-3.53711,0L6.93085,5.41339,1.73114,6.1192A1.99514,1.99514,0,0,0,.6535,9.57318ZM8.488,9.232A1.99874,1.99874,0,0,0,9.98749,8.18591l1.0127-1.91364,1.0127,1.91364A1.99874,1.99874,0,0,0,13.51239,9.232l1.97552.26807L14.1535,10.71375a1.99427,1.99427,0,0,0-.62061,1.83667l.34521,1.87665L11.882,13.44824a2.00169,2.00169,0,0,0-1.76367,0l-1.99609.97882.34521-1.87665a1.99427,1.99427,0,0,0-.62061-1.83667L6.51239,9.50006Z"></path><path d="M11.00018,30.94617a7,7,0,1,0,6.99994-6.98785A7.0021,7.0021,0,0,0,11.00018,30.94617Zm9.99994,0a3,3,0,1,1-3-2.99481A3.00064,3.00064,0,0,1,21.00012,30.94617Z"></path><path d="M99.20642,89.096a9.30609,9.30609,0,0,1,2.79346-.88788V59.54639a5.99515,5.99515,0,0,0,4-5.6402V45.9201a6.00133,6.00133,0,0,0-6-5.98956H90.16351A14.97,14.97,0,1,0,67,21.511,14.97379,14.97379,0,1,0,42.91748,38.99377a12.74522,12.74522,0,0,1,5.93219,3.08344,9.85,9.85,0,0,1,1.4386,1.84637H59V55.90277H54.94653A9.87236,9.87236,0,0,1,55,56.901a10.26037,10.26037,0,0,1-.45544,2.99481H59v10.9809H49.59888a9.61623,9.61623,0,0,1-.74921.84814,12.9837,12.9837,0,0,1-6.07324,3.123l-.079.02191H59v7.98608H36.00006V77.66022a9.88776,9.88776,0,0,1-3.99994-.00006V92.60187l3.99994-.776V86.84894H59v4.90424l4,1.894V43.92358h8V97.43536l3.143,1.48822a9.82,9.82,0,0,1,.85693.49054V86.84894H97.99988V89.7146ZM65,39.93054H54.00006A10.98091,10.98091,0,1,1,65,28.94965ZM97.99988,70.87671H74.99994V59.89581H97.99988Zm2-26.95313a2.00054,2.00054,0,0,1,2,1.99652v7.98608a2.00059,2.00059,0,0,1-2,1.99658H74.99994V43.92358ZM69,39.93054V28.94965a11,11,0,1,1,10.99994,10.9809Zm5.99994,42.92529V74.86975H97.99988v7.98608Z"></path><path d="M69.47949,126.72192,106.56824,102.594q.04907-.03223.09668-.06726a5.90674,5.90674,0,0,0-.36328-9.66486,5.38438,5.38438,0,0,0-5.26758-.2135L75.44672,105.76691a6.12913,6.12913,0,0,0-3.018-3.23529L53.585,93.60864a5.56238,5.56238,0,0,0-3.61475-.425l-21.3739,4.14667a3.99429,3.99429,0,0,0-3.59576-2.27588h-6a4.0008,4.0008,0,0,0-4,3.993v17.96875a4.0008,4.0008,0,0,0,4,3.993h6a3.99538,3.99538,0,0,0,3.73438-2.598h7.95648a10.17437,10.17437,0,0,1,2.97217.44257l23.49213,8.85181a2.10032,2.10032,0,0,0,.23242.07214,7.71447,7.71447,0,0,0,6.09131-1.05579Zm-50.47888-9.70575V99.04742h6l.00244,17.96875Zm45.44128,6.90594-23.42279-8.8255c-.03613-.01361-.07324-.02631-.11035-.038a14.16258,14.16258,0,0,0-4.21729-.6405H29.00061V101.31848L50.79352,97.0899a1.65293,1.65293,0,0,1,1.07813.12671l18.8432,8.922a2.2706,2.2706,0,0,1,1.12988,1.395,3.12107,3.12107,0,0,1-.2002,2.41766,1.677,1.677,0,0,1-2.13916.95148l-17.34515-7.5094a1.99722,1.99722,0,1,0-1.5918,3.66357l17.34564,7.5094a5.48482,5.48482,0,0,0,2.18457.45819,5.79806,5.79806,0,0,0,5.0639-3.17322,6.90515,6.90515,0,0,0,.66-1.78809l27.03912-13.86243a1.35474,1.35474,0,0,1,1.32813.0517,1.81315,1.81315,0,0,1,.80859,1.48273,1.85832,1.85832,0,0,1-.67285,1.552l-37.03015,24.089A3.765,3.765,0,0,1,64.44189,123.92212Z"></path></svg>