<svg xmlns="http://www.w3.org/2000/svg" viewBox="0 0 32 32"><g id="Layer_2" data-name="Layer 2"><path d="M28,17.25H25.75v-3.5H26A1.75213,1.75213,0,0,0,27.75,12V10A1.75213,1.75213,0,0,0,26,8.25H22.981A3.714,3.714,0,0,0,23.75,6,3.7541,3.7541,0,0,0,20,2.25c-1.43384,0-3.80029,1.64624-5,3.3562-1.19971-1.71-3.56616-3.3562-5-3.3562A3.7541,3.7541,0,0,0,6.25,6a3.714,3.714,0,0,0,.769,2.25H4A1.75213,1.75213,0,0,0,2.25,10v2A1.75213,1.75213,0,0,0,4,13.75h.25V29a.7502.7502,0,0,0,.75.75H28A1.75213,1.75213,0,0,0,29.75,28V26a1.751,1.751,0,0,0-1.05-1.60156A1.73078,1.73078,0,0,0,28.75,24V23a1.73078,1.73078,0,0,0-.05-.39844A1.751,1.751,0,0,0,29.75,21V19A1.75213,1.75213,0,0,0,28,17.25ZM28.25,19v2a.25048.25048,0,0,1-.25.25H18a.25048.25048,0,0,1-.25-.25V19a.25048.25048,0,0,1,.25-.25H28A.25048.25048,0,0,1,28.25,19Zm-1,4v1a.25048.25048,0,0,1-.25.25H17a.25048.25048,0,0,1-.25-.25V23a.25048.25048,0,0,1,.25-.25H27A.25048.25048,0,0,1,27.25,23Zm-3-5.75h-6v-3.5h6ZM20,3.75a2.25,2.25,0,0,1,0,4.5H18.812c-1.09472-.01294-2.52807-.09521-2.97412-.53809A.26282.26282,0,0,1,15.75,7.5C15.75,6.34326,18.68945,3.75,20,3.75ZM7.75,6A2.25246,2.25246,0,0,1,10,3.75c1.31055,0,4.25,2.59326,4.25,3.75a.26282.26282,0,0,1-.08789.21191c-.4397.43714-1.8374.52356-2.92847.53809H10A2.25246,2.25246,0,0,1,7.75,6Zm-4,6V10A.25048.25048,0,0,1,4,9.75h6l.395.002c.12988.00049.2583.00147.38672.00147.12182,0,.24072-.0022.36108-.00342h7.71436c.12036.00122.23926.00342.36108.00342.12793,0,.25733-.001.38672-.00147L20,9.75h6a.25048.25048,0,0,1,.25.25v2a.25048.25048,0,0,1-.25.25H4A.25048.25048,0,0,1,3.75,12Zm2,1.75h6v14.5h-6Zm7.5,0h3.5v4.02917A1.74242,1.74242,0,0,0,16.25,19v2a1.73078,1.73078,0,0,0,.05.39844A1.751,1.751,0,0,0,15.25,23v1a1.751,1.751,0,0,0,1.05,1.60156A1.73078,1.73078,0,0,0,16.25,26v2a1.68884,1.68884,0,0,0,.02539.25H13.25ZM28.25,28a.25048.25048,0,0,1-.25.25H18a.25048.25048,0,0,1-.25-.25V26a.25048.25048,0,0,1,.25-.25H28a.25048.25048,0,0,1,.25.25Z"></path></g></svg>