<svg xmlns="http://www.w3.org/2000/svg" id="Layer_1" viewBox="0 0 512 512"><path d="m251.28 144.04v-7.57h9.41v7.57c0 6.6 5.37 11.96 11.96 11.96h27.72c6.58 0 11.93-5.37 11.93-11.96v-19.62c0-6.58-5.35-11.93-11.93-11.93h-27.72c-5.21 0-9.64 3.35-11.28 7.99h-10.77c-1.64-4.65-6.07-7.99-11.28-7.99h-27.69c-6.6 0-11.96 5.35-11.96 11.93v19.62c0 6.6 5.37 11.96 11.96 11.96h27.69c6.59.01 11.96-5.36 11.96-11.96zm25.4-15.56h19.64v11.54h-19.64zm-41.39 11.54h-19.64v-11.54h19.64zm46.23 54.05c-4.11 6.26-10.36 10.78-17.61 12.74-2.65.71-5.32 1.05-7.96 1.05-10.13 0-19.76-5.04-25.48-13.81-2.41-3.7-1.37-8.65 2.33-11.06s8.65-1.37 11.06 2.33c3.42 5.25 9.81 7.68 15.9 6.06 3.45-.93 6.44-3.09 8.39-6.08 2.42-3.69 7.38-4.72 11.07-2.3s4.72 7.38 2.3 11.07zm63.26 67.32c-8.69-3.06-17.67-6.22-25.58-9.91-10.49-4.88-16.75-14.7-16.75-26.29v-5.45c14.21-10.74 24.49-26.42 28.25-44.47h5.6c13.82 0 25.06-11.24 25.06-25.06v-21.74c0-1.38-.12-2.73-.33-4.05.03-3.97.1-7.88.17-11.66.38-20.41.71-38.03-5.54-52-7.08-15.84-21.22-24.38-44.46-26.8l7.43-10.55c3.28-4.56 3.69-10.48 1.09-15.44-2.56-4.93-7.59-8-13.13-8h-62.56c-24.32 0-47.19 7.76-64.39 21.86-18.77 15.38-29.1 37.35-29.1 61.84v40.69c-.22 1.33-.34 2.7-.34 4.09v21.74c0 13.82 11.24 25.06 25.06 25.06h5.6c3.8 18.24 14.25 34.07 28.7 44.82v5.1c0 11.57-6.26 21.4-16.76 26.29-7.91 3.69-16.89 6.85-25.58 9.9-30.82 10.84-65.75 23.13-65.75 64.78v15 135.69c0 11.81 5.36 22.04 15.07 28.78 6.07 4.23 12.81 6.37 19.73 6.37 4.14 0 8.35-.77 12.5-2.32 32.59-12.17 65.18-24.32 97.76-36.48 3.15-1.17 6.3-2.35 9.44-3.52l107.22 40c4.15 1.55 8.35 2.32 12.5 2.32 6.92 0 13.67-2.14 19.75-6.36 9.71-6.74 15.06-16.97 15.06-28.79v-135.67-15c0-41.64-34.92-53.92-65.72-64.77zm-39 .81-4.98 40.29-8.42-7.9c-.01-.01-.02-.01-.02-.02l-19.17-17.97 22.75-23.48c2.75 3.46 6.05 6.51 9.84 9.08zm-37.73 63.06h-24.13l-9.23-22.91 18.65-17.48h5.3l18.65 17.48zm5.94 50.91-17.98 6.71-18-6.71 7.8-34.91h20.36zm-50.28-138.11c.84-2.88 1.4-5.88 1.66-8.95 8.86 3.7 18.58 5.76 28.77 5.76h3.26c10.35 0 20.22-2.12 29.2-5.93.24 3.17.79 6.24 1.63 9.18l-29.82 30.77h-4.85zm121.65-87.84c0 5-4.07 9.07-9.07 9.07h-4.03v-39.88h4.03c5 0 9.07 4.07 9.07 9.07zm-166.08 9.07h-4.02c-5 0-9.07-4.07-9.07-9.07v-21.74c0-5 4.07-9.07 9.07-9.07h4.02zm2.08-55.87h-6.1c-3.07 0-6.01.56-8.73 1.57v-21.3c0-44.46 38.99-67.72 77.5-67.72h60.29l-7.35 10.43c-3.09 4.37-3.59 9.89-1.33 14.78 2.27 4.91 6.85 8.1 12.18 8.52 34.79 3.02 37.91 18.47 37.5 55.41-2.8-1.09-5.85-1.69-9.03-1.69h-6.1c-4.29-10.72-14.76-18.31-26.98-18.31h-5.53c-4.47 0-8.11-1.1-11.81-3.59l-9.43-6.29c-12.75-8.53-28.59-8.53-41.33 0l-9.46 6.31c-3.68 2.47-7.3 3.57-11.75 3.57h-5.53c-12.24 0-22.72 7.59-27.01 18.31zm13.91 56.58v-45.81c0-7.22 5.87-13.1 13.1-13.1h5.53c7.61 0 14.38-2.06 20.65-6.28l9.45-6.3c7.38-4.94 16.19-4.94 23.56 0 0 0 .01.01.01.01l9.41 6.28c6.3 4.23 13.07 6.29 20.7 6.29h5.53c7.21 0 13.07 5.87 13.07 13.1v45.81c0 20.24-10.27 38.13-25.88 48.73-.21.13-.42.26-.62.41-9.3 6.15-20.42 9.74-32.38 9.74h-3.26c-11.61 0-22.45-3.39-31.58-9.22-.43-.35-.9-.65-1.39-.9-15.62-10.6-25.9-28.5-25.9-48.76zm20.7 93.05 22.81 23.55-19.17 17.98c-.01.01-.01.01-.02.02l-8.42 7.9-4.98-40.31c3.75-2.58 7.04-5.66 9.78-9.14zm-98.51 88.11v-15c0-30.33 25.52-39.3 55.07-49.7 6.13-2.16 12.39-4.37 18.48-6.81l6.22 50.4c.37 2.99 2.38 5.51 5.21 6.54.89.32 1.81.48 2.72.48 2 0 3.96-.75 5.47-2.16l11.55-10.83 8.57 21.26-7.86 35.18-25.52-9.52c-4.7-1.76-9.62-2.62-14.57-2.57v-17.27c0-4.42-3.58-7.99-7.99-7.99s-7.99 3.58-7.99 7.99v41.44h-49.35v-41.44zm115.67 50.25-50.34 18.78v-35.75c3.05-.05 6.08.46 8.97 1.55zm7.81 66.82c-32.59 12.16-65.18 24.32-97.77 36.48-6.1 2.28-12.15 1.53-17.5-2.2-5.37-3.73-8.21-9.15-8.21-15.66v-78.25h49.35v23.1c0 2.62 1.28 5.07 3.44 6.57 2.15 1.49 4.9 1.84 7.35.92l142.64-53.21c6.15-2.3 12.85-2.05 18.87.7 6.01 2.74 10.57 7.63 12.85 13.77 4.76 12.74-1.73 26.98-14.47 31.75-32.18 12.02-64.36 24.02-96.55 36.03zm153.57 18.63c0 6.52-2.83 11.94-8.19 15.66s-11.42 4.48-17.53 2.2l-89.95-33.56c21.42-7.99 42.83-15.98 64.25-23.97 16.47-6.17 26.6-21.94 26.42-38.58h25.01v78.25zm0-135.7v41.44h-28.5c-4-9.08-11.12-16.29-20.27-20.47-.19-.09-.39-.17-.59-.25v-20.72c0-4.42-3.58-7.99-7.99-7.99s-7.99 3.58-7.99 7.99v17.27c-4.9-.04-9.81.8-14.53 2.57l-25.54 9.53-7.88-35.19 8.56-21.25 11.55 10.83c1.51 1.41 3.47 2.16 5.47 2.16.91 0 1.83-.16 2.72-.48 2.83-1.02 4.84-3.55 5.21-6.54l6.23-50.41c6.09 2.45 12.36 4.67 18.5 6.83 29.54 10.39 55.04 19.37 55.04 49.69v14.99zm-246.64-97.62c0-4.1-1.3-7.89-3.52-11 2.21-3.11 3.52-6.9 3.52-11 0-4.09-1.3-7.89-3.51-10.99 2.21-3.1 3.51-6.89 3.51-10.98 0-4.1-1.3-7.89-3.52-11 2.21-3.11 3.52-6.9 3.52-11 0-10.47-8.52-18.99-18.99-18.99h-20.12c2.83-7.52 5.98-16.85 6-25.31 0-12.12-8.87-20.89-21.58-21.31-11-.36-19.38 5.69-19.96 14.4-.01.11-.01.22-.02.33-.34 13.29-12.44 30.84-24.29 40.02-2.28-3.29-6.08-5.46-10.38-5.46h-25.5c-6.94 0-12.59 5.66-12.59 12.61v72.65c0 6.96 5.65 12.61 12.59 12.61h25.51c5.98 0 10.98-4.18 12.28-9.77 9.66.81 13.86 3.4 18.25 6.11 5.34 3.3 11.39 7.03 23.81 7.03h36c10.47.01 18.99-8.49 18.99-18.95zm-112.7-.4h-18.74v-65.9h18.74zm42.3-1.27c-5.47-3.38-12.11-7.47-26.32-8.51v-49.05c17.43-9.71 36.64-34.74 37.98-55.81 1.32-.58 4.35-.98 6.91.18 1.94.88 2.74 2.21 2.74 4.57-.02 6.81-3.6 16.14-6.22 22.96-1.25 3.24-2.32 6.05-2.92 8.31-.64 2.4-.13 4.96 1.38 6.93s3.86 3.12 6.34 3.12h31.52c1.63 0 3 1.38 3 3s-1.38 3-3 3c-4.42 0-7.99 3.58-7.99 7.99s3.58 7.99 7.99 7.99c1.66 0 3 1.35 3 3 0 1.64-1.35 2.98-3 2.98-4.42 0-7.99 3.58-7.99 7.99s3.58 7.99 7.99 7.99c1.63 0 3 1.38 3 3s-1.38 3-3 3c-4.42 0-7.99 3.58-7.99 7.99s3.58 7.99 7.99 7.99c1.66 0 3 1.35 3 3 0 1.64-1.35 2.98-3 2.98h-36c-7.88.05-10.87-1.8-15.41-4.6zm421.47-80.62h-25.51c-4.3 0-8.09 2.16-10.37 5.45-11.84-9.18-23.93-26.73-24.27-40.01 0-.11-.01-.22-.02-.33-.59-8.7-8.97-14.74-19.94-14.4-12.71.42-21.6 9.18-21.62 21.35.04 8.44 3.18 17.74 6.01 25.27h-20.13c-10.47 0-18.99 8.52-18.99 18.99 0 4.1 1.3 7.89 3.52 11-2.21 3.11-3.52 6.9-3.52 11 0 4.09 1.3 7.88 3.51 10.98-2.21 3.1-3.51 6.9-3.51 10.99 0 4.1 1.3 7.89 3.52 11-2.21 3.11-3.52 6.9-3.52 11 0 10.46 8.52 18.96 18.99 18.96h36c12.41 0 18.47-3.74 23.81-7.03 4.39-2.71 8.59-5.3 18.25-6.11 1.29 5.59 6.3 9.77 12.28 9.77h25.51c6.96 0 12.62-5.66 12.62-12.61v-72.65c0-6.96-5.66-12.62-12.62-12.62zm-38.12 72.11c-14.2 1.04-20.84 5.13-26.32 8.51-4.54 2.8-7.53 4.65-15.41 4.65h-36c-1.63 0-3-1.36-3-2.98 0-1.63 1.38-3 3-3 4.42 0 7.99-3.58 7.99-7.99s-3.58-7.99-7.99-7.99c-1.63 0-3-1.38-3-3s1.38-3 3-3c4.42 0 7.99-3.58 7.99-7.99s-3.58-7.99-7.99-7.99c-1.63 0-3-1.36-3-2.98 0-1.63 1.38-3 3-3 4.42 0 7.99-3.58 7.99-7.99s-3.58-7.99-7.99-7.99c-1.63 0-3-1.38-3-3s1.38-3 3-3h31.55c2.49 0 4.84-1.16 6.35-3.14s2.02-4.55 1.37-6.95c-.6-2.23-1.67-4.99-2.89-8.19-2.63-6.84-6.23-16.21-6.27-23.02 0-2.39.8-3.73 2.76-4.61 2.57-1.16 5.6-.76 6.92-.18 1.33 21.07 20.53 46.09 37.95 55.81v49.02zm34.75 9.78h-18.76v-65.9h18.76z"></path></svg>