<svg xmlns="http://www.w3.org/2000/svg" id="Layer_1" viewBox="0 0 64 64" data-name="Layer 1"><path d="m32 34a16 16 0 1 0 -16-16 16 16 0 0 0 16 16zm-5.4-22a15.71 15.71 0 0 0 5.4 1 15.71 15.71 0 0 0 5.4-1 29.36 29.36 0 0 1 .6 5h-12a29.36 29.36 0 0 1 .6-5zm11.4 7a29.36 29.36 0 0 1 -.58 5 16 16 0 0 0 -10.8 0 29.36 29.36 0 0 1 -.62-5zm-10.56 12.22a13.92 13.92 0 0 1 -4.67-2.72 12.94 12.94 0 0 1 2.5-1.76 15.71 15.71 0 0 0 2.17 4.48zm-.33-5.31a14 14 0 0 1 9.78 0c-1.17 3.78-3.09 6.09-4.89 6.09s-3.72-2.31-4.89-6.09zm11.62.83a12.94 12.94 0 0 1 2.5 1.76 13.92 13.92 0 0 1 -4.67 2.72 15.71 15.71 0 0 0 2.17-4.48zm.54-2a31 31 0 0 0 .73-5.74h6a13.93 13.93 0 0 1 -3.31 8.08 15.73 15.73 0 0 0 -3.42-2.31zm.73-7.74a31 31 0 0 0 -.71-5.77 15.73 15.73 0 0 0 3.37-2.31 13.93 13.93 0 0 1 3.34 8.08zm-1.27-7.74a15.71 15.71 0 0 0 -2.17-4.48 13.92 13.92 0 0 1 4.67 2.72 12.94 12.94 0 0 1 -2.5 1.76zm-1.84.83a14 14 0 0 1 -9.78 0c1.17-3.78 3.09-6.09 4.89-6.09s3.72 2.31 4.89 6.09zm-11.62-.83a12.94 12.94 0 0 1 -2.5-1.76 13.92 13.92 0 0 1 4.67-2.72 15.71 15.71 0 0 0 -2.17 4.48zm-.54 2a31 31 0 0 0 -.73 5.74h-6a13.93 13.93 0 0 1 3.31-8.08 15.73 15.73 0 0 0 3.42 2.31zm-.73 7.74a31 31 0 0 0 .71 5.77 15.73 15.73 0 0 0 -3.37 2.31 13.93 13.93 0 0 1 -3.29-8.08z"></path><path d="m38 42a6 6 0 1 0 -6 6 6 6 0 0 0 6-6zm-10 0a4 4 0 1 1 4 4 4 4 0 0 1 -4-4z"></path><path d="m44 61.26 4.88-18.26a4 4 0 0 0 -.73-3.44 4 4 0 0 0 -6.88 1.22l-3.06 9.22h-12.42l-3.06-9.26a4 4 0 0 0 -6.88-1.22 4 4 0 0 0 -.73 3.48l4.88 18.26a1 1 0 0 0 1 .74h22a1 1 0 0 0 1-.74zm-22.23-1.26-4.71-17.52a2 2 0 0 1 .37-1.73 2 2 0 0 1 3.41.61l3.28 10a1 1 0 0 0 .95.69h13.86a1 1 0 0 0 1-.69l3.28-10a2 2 0 0 1 3.78 1.11l-4.76 17.53z"></path><path d="m4.93 34-.62 3.84a1 1 0 0 0 .41 1 1 1 0 0 0 1.06.06l3.22-1.81 3.22 1.79a1.07 1.07 0 0 0 .49.12 1 1 0 0 0 .57-.18 1 1 0 0 0 .41-1l-.62-3.82 2.65-2.72a1 1 0 0 0 .23-1 1 1 0 0 0 -.8-.68l-3.62-.6-1.62-3.42a1 1 0 0 0 -1.82 0l-1.62 3.42-3.62.55a1 1 0 0 0 -.8.68 1 1 0 0 0 .23 1zm2.37-3.06a1 1 0 0 0 .75-.56l.95-2 .95 2a1 1 0 0 0 .75.56l2.23.34-1.65 1.72a1 1 0 0 0 -.27.86l.38 2.31-1.91-1.09a1 1 0 0 0 -1 0l-1.87 1.05.39-2.31a1 1 0 0 0 -.28-.82l-1.65-1.72z"></path><path d="m50.93 34-.62 3.84a1 1 0 0 0 .41 1 1 1 0 0 0 1.06.06l3.22-1.81 3.22 1.79a1.07 1.07 0 0 0 .49.12 1 1 0 0 0 .57-.18 1 1 0 0 0 .41-1l-.62-3.82 2.65-2.72a1 1 0 0 0 .23-1 1 1 0 0 0 -.8-.68l-3.62-.6-1.62-3.46a1 1 0 0 0 -1.82 0l-1.62 3.46-3.62.55a1 1 0 0 0 -.8.68 1 1 0 0 0 .23 1zm2.37-3.06a1 1 0 0 0 .75-.56l1-2 1 2a1 1 0 0 0 .75.56l2.23.34-1.75 1.72a1 1 0 0 0 -.27.86l.38 2.31-1.91-1.05a1 1 0 0 0 -1 0l-1.91 1.05.43-2.35a1 1 0 0 0 -.27-.86l-1.65-1.68z"></path><path d="m8 13h2v4h-2z"></path><path d="m8 19h2v4h-2z"></path><path d="m10 17h4v2h-4z"></path><path d="m4 17h4v2h-4z"></path><path d="m54 13h2v4h-2z"></path><path d="m54 19h2v4h-2z"></path><path d="m56 17h4v2h-4z"></path><path d="m50 17h4v2h-4z"></path></svg>