<svg xmlns="http://www.w3.org/2000/svg" id="Capa_1" height="512" viewBox="0 0 512 512" width="512"><g><path d="m489.607 174.62c-10.446-6.126-22.655-7.816-34.37-4.762-5.745 1.498-11.03 4.054-15.652 7.496l-51.507-46.553 51.776-48.881c4.559 3.342 9.749 5.833 15.384 7.303 3.813.994 7.675 1.485 11.514 1.485 7.959 0 15.809-2.115 22.855-6.247 21.564-12.644 28.821-40.475 16.176-62.039-6.125-10.446-15.951-17.882-27.67-20.937-11.718-3.054-23.923-1.363-34.37 4.761-17.879 10.484-25.908 31.406-20.928 50.542l-43.122 40.712c-14.115-55.95-64.86-97.487-125.13-97.487-59.479 0-109.678 40.455-124.551 95.292l-40.784-38.504c1.948-7.422 1.984-15.256-.005-22.884-3.055-11.718-10.491-21.545-20.937-27.67-21.562-12.645-49.394-5.389-62.039 16.175-6.126 10.446-7.817 22.652-4.761 34.37 3.055 11.718 10.491 21.544 20.936 27.669 7.048 4.133 14.896 6.247 22.856 6.247 3.838 0 7.702-.492 11.514-1.485 5.635-1.469 10.825-3.96 15.384-7.303l51.775 48.881-51.507 46.553c-4.622-3.442-9.908-5.998-15.652-7.496-11.719-3.054-23.924-1.364-34.37 4.762-10.446 6.125-17.881 15.952-20.937 27.67-3.055 11.717-1.364 23.923 4.761 34.37 8.431 14.378 23.61 22.394 39.184 22.394 7.785 0 15.67-2.004 22.856-6.218 10.446-6.125 17.882-15.952 20.937-27.67 1.967-7.545 1.955-15.29.07-22.64l41.374-37.394c10.183 34.911 34.753 63.744 66.832 79.629v228.538l57.641 38.701 57.641-38.702v-50.112l-17.031-31.394 19.094-35.197-19.094-35.191 17.031-31.389v-45.829c32.15-16.322 56.582-45.719 66.266-81.146l43.703 39.499c-4.848 19.069 3.189 39.857 20.992 50.297 7.047 4.133 14.895 6.247 22.855 6.247 3.838 0 7.703-.492 11.514-1.485 11.718-3.055 21.545-10.491 27.67-20.938 12.646-21.565 5.389-49.396-16.174-62.04zm-22.928-144.672c8.489 0 15.37 6.882 15.37 15.37s-6.882 15.37-15.37 15.37c-8.489 0-15.37-6.882-15.37-15.37s6.881-15.37 15.37-15.37zm-421.324 30.741c-8.489 0-15.37-6.882-15.37-15.37s6.882-15.37 15.37-15.37c8.489 0 15.37 6.882 15.37 15.37s-6.882 15.37-15.37 15.37zm0 168.409c-8.489 0-15.37-6.882-15.37-15.37s6.882-15.37 15.37-15.37c8.489 0 15.37 6.882 15.37 15.37s-6.882 15.37-15.37 15.37zm188.564-174.811c7.167-16.788 15.533-24.302 20.644-24.302 7.095 0 15.48 12.206 20.644 24.302 2.536 5.94 4.736 12.616 6.576 19.815h-54.441c1.841-7.199 4.041-13.875 6.577-19.815zm-27.572-11.748c-4.027 9.438-7.31 20.093-9.808 31.564h-24.364c8.718-13.03 20.442-23.882 34.172-31.564zm-47.657 111.487c-2.081-7.982-3.191-16.352-3.191-24.976 0-2.835.126-5.64.361-8.415l.463-.491-.387-.365c.501-5.369 1.428-10.617 2.754-15.705h33.317c-.732 8.143-1.116 16.498-1.116 24.976s.384 16.833 1.116 24.976zm13.485 29.972h24.364c2.498 11.47 5.78 22.125 9.808 31.564-13.73-7.683-25.454-18.536-34.172-31.564zm110.635 98.409-21.158 38.996 19.094 35.192-19.094 35.196 21.158 39v26.529l-27.67 18.58-27.669-18.579v-202.106c8.74 1.875 17.801 2.871 27.093 2.871 9.701 0 19.152-1.084 28.247-3.122v27.443zm-55.467-98.409h54.441c-1.84 7.199-4.041 13.875-6.576 19.815-7.166 16.788-15.532 24.302-20.644 24.302-7.094 0-15.48-12.206-20.644-24.302-2.537-5.941-4.737-12.616-6.577-19.815zm59.649-29.972h-64.858c-.832-8.124-1.272-16.51-1.272-24.976s.44-16.852 1.272-24.976h64.858c.832 8.124 1.272 16.51 1.272 24.976.001 8.466-.44 16.852-1.272 24.976zm49.959-79.924h-24.363c-2.498-11.47-5.78-22.125-9.807-31.563 13.729 7.683 25.452 18.535 34.17 31.563zm-34.17 141.459c4.027-9.438 7.309-20.093 9.807-31.563h24.363c-8.718 13.028-20.441 23.88-34.17 31.563zm47.656-61.535h-33.317c.732-8.143 1.116-16.498 1.116-24.976s-.384-16.833-1.116-24.976h33.317c2.081 7.982 3.191 16.352 3.191 24.976s-1.111 16.994-3.191 24.976zm116.242 75.072c-8.489 0-15.37-6.882-15.37-15.37s6.882-15.37 15.37-15.37c8.489 0 15.37 6.882 15.37 15.37s-6.881 15.37-15.37 15.37z"></path></g></svg>