<svg xmlns="http://www.w3.org/2000/svg" id="Outline" height="512" viewBox="0 0 64 64" width="512"><g><path d="m30.293 31.708c.195.194.451.292.707.292s.512-.098.707-.293c.391-.391.391-1.024 0-1.415-.941-.94-2.473-.94-3.414 0-.391.391-.391 1.023 0 1.415.391.391 1.023.39 1.414 0 .162-.162.424-.162.586.001z"></path><path d="m34.293 30.292c-.391.391-.391 1.023 0 1.415.391.391 1.023.39 1.414 0 .162-.162.424-.162.586 0 .195.195.451.293.707.293s.512-.098.707-.293c.391-.391.391-1.024 0-1.415-.941-.94-2.473-.94-3.414 0z"></path><path d="m35.445 35.168c-1.486.99-3.404.99-4.891 0-.462-.307-1.081-.183-1.387.277-.307.459-.183 1.081.277 1.387 1.08.72 2.317 1.08 3.555 1.08s2.475-.36 3.555-1.08c.46-.306.584-.927.277-1.387-.306-.46-.925-.584-1.386-.277z"></path><path d="m42 51c-.553 0-1 .448-1 1v9c0 .552.447 1 1 1s1-.448 1-1v-9c0-.552-.447-1-1-1z"></path><path d="m22 47h-3v-1c0-1.654-1.346-3-3-3h-6c-1.654 0-3 1.346-3 3v1h-3c-.553 0-1 .448-1 1v5c0 .552.447 1 1 1h6v1c0 .552.447 1 1 1h4c.553 0 1-.448 1-1v-1h5v6h-16v-3c0-.552-.447-1-1-1s-1 .448-1 1v4c0 .552.447 1 1 1h18c.553 0 1-.448 1-1v-13c0-.552-.447-1-1-1zm-13-1c0-.551.448-1 1-1h6c.552 0 1 .449 1 1v1h-8zm5 8h-2v-2h2zm2-2v-1c0-.552-.447-1-1-1h-4c-.553 0-1 .448-1 1v1h-5v-3h16v3z"></path><path d="m59.094 5.875c-.368-.414-1-.451-1.412-.083-.413.367-.45.999-.084 1.412 1.549 1.743 2.402 3.979 2.402 6.296 0 5.238-4.262 9.5-9.5 9.5-1.908 0-3.748-.563-5.321-1.63-.206-.14-.457-.2-.703-.162l-3.728.532 1.404-2.808c.146-.292.141-.636-.015-.923-.743-1.377-1.137-2.936-1.137-4.509 0-5.238 4.262-9.5 9.5-9.5 1.47 0 2.891.337 4.224 1.001.498.247 1.095.045 1.342-.449.246-.494.045-1.095-.449-1.341-1.614-.804-3.335-1.211-5.117-1.211-6.341 0-11.5 5.159-11.5 11.5 0 .991.143 1.973.394 2.926-1.634-.923-3.48-1.426-5.394-1.426h-2c-6.065 0-11 4.935-11 11 0 .527.099 1.052.269 1.558-.765.544-1.269 1.433-1.269 2.442 0 2.43 1.744 4.456 4.046 4.904.274 2.737 1.78 5.117 3.954 6.575v.521h-2c-2.04 0-4.038.703-5.626 1.979-.431.346-.499.975-.153 1.406.197.246.487.374.78.374.22 0 .44-.072.625-.221 1.253-1.006 2.765-1.538 4.374-1.538h.28l1.772 5.316c.091.275.298.497.565.607s.57.101.83-.029l.612-.306c.109.545.372 1.032.734 1.427l-.788 7.885c-.029.298.076.595.288.807l2 2c.195.195.451.293.707.293s.512-.098.707-.293l2-2c.212-.212.317-.508.288-.807l-.789-7.884c.362-.396.625-.882.734-1.427l.612.306c.141.07.295.105.448.105.13 0 .26-.025.383-.076.268-.111.475-.333.565-.607l1.772-5.317h.28c3.859 0 7 3.14 7 7v10c0 .552.447 1 1 1s1-.448 1-1v-10c0-4.962-4.037-9-9-9h-2v-.522c2.174-1.458 3.68-3.837 3.954-6.575 2.302-.447 4.046-2.473 4.046-4.903 0-1.009-.504-1.898-1.27-2.442.171-.506.27-1.031.27-1.558 0-.875-.117-1.741-.326-2.592 1.763 1.04 3.761 1.592 5.826 1.592 6.341 0 11.5-5.159 11.5-11.5 0-2.807-1.032-5.515-2.906-7.625zm-37.094 24.125c0-.551.448-1 1-1h1v3.829c-1.164-.413-2-1.525-2-2.829zm14 12.586-3 3-3-3v-.111c.94.334 1.947.525 3 .525s2.06-.191 3-.525zm-7.613 1.414h.199l2.726 2.726-1.728.864zm4.613 15.586-.958-.958.666-6.657c.098.009.192.029.292.029s.194-.02.292-.029l.666 6.657zm1-10.586c0 .551-.448 1-1 1s-1-.449-1-1v-.382l1-.5 1 .5zm2.416-1.41-1.728-.864 2.726-2.726h.199zm-3.416-6.59c-3.859 0-7-3.14-7-7v-7c0-.552-.447-1-1-1s-1 .448-1 1h-.795c-.121-.325-.205-.657-.205-1 0-4.962 4.037-9 9-9h2c2.143 0 4.186.763 5.811 2.142l-1.706 3.411c-.166.333-.134.73.083 1.032.218.302.581.46.953.405l3.494-.499c.241.82.365 1.661.365 2.509 0 .343-.083.675-.205 1h-.795c0-.552-.447-1-1-1-1.154 0-2.31-.273-3.342-.789l-4.211-2.105c-.259-.129-.562-.14-.83-.029s-.474.333-.565.607c-.463 1.385-1.754 2.316-3.214 2.316-.553 0-1 .448-1 1s.447 1 1 1c1.935 0 3.683-1.027 4.638-2.645l3.288 1.645c1.01.505 2.113.826 3.236.946v6.054c0 3.86-3.141 7-7 7zm9-8.171v-3.829h1c.552 0 1 .449 1 1 0 1.304-.836 2.416-2 2.829z"></path><path d="m50.787 9.196c-1.503-1.498-4.119-1.497-5.622.005-1.552 1.551-1.552 4.075 0 5.626l4.915 4.915c.195.195.451.293.707.293s.512-.098.707-.293l4.915-4.915c1.552-1.551 1.552-4.075 0-5.626-.751-.751-1.75-1.166-2.813-1.166-1.061.001-2.058.413-2.809 1.161zm4.208 4.218-4.208 4.208-4.208-4.208c-.771-.771-.771-2.027 0-2.798.374-.374.871-.58 1.399-.58s1.025.206 1.399.58l.702.702c.391.391 1.023.391 1.414 0l.702-.702c.748-.748 2.051-.748 2.799 0 .773.771.773 2.026.001 2.798z"></path></g></svg>