<svg xmlns="http://www.w3.org/2000/svg" viewBox="0 0 48 48" width="512" height="512"><g id="Layer_29" data-name="Layer 29"><path d="M39,32H37.828a2.978,2.978,0,0,0-2.121.879l-2.828,2.828a1,1,0,0,1-.707.293H22.624a2.979,2.979,0,0,1-1.874-.665,5.925,5.925,0,0,0-6.783-.5A.985.985,0,0,0,13,34H1a1,1,0,0,0-1,1V47a1,1,0,0,0,1,1H13a.984.984,0,0,0,.848-.5A4.924,4.924,0,0,0,16,48H29.343a4.969,4.969,0,0,0,3.536-1.465l8.828-8.828A1,1,0,0,0,42,37V35A3,3,0,0,0,39,32ZM12,46H10V39a1,1,0,0,0-2,0v7H2V36H12V46Zm28-9.414-8.535,8.535A2.98,2.98,0,0,1,29.343,46H16a2.931,2.931,0,0,1-2-.784V37.381A3.951,3.951,0,0,1,17,36a3.91,3.91,0,0,1,2.489.888A4.991,4.991,0,0,0,22.624,38H30a1,1,0,0,1,0,2H23a1,1,0,0,0,0,2h7a2.981,2.981,0,0,0,2.8-4.068,2.975,2.975,0,0,0,1.5-.811l2.828-2.828A1,1,0,0,1,37.828,34H39a1,1,0,0,1,1,1Z"></path><path d="M22,24a1,1,0,0,1-1-1,1,1,0,0,0-2,0,3,3,0,0,0,3,3h1v1a1,1,0,0,0,2,0V26h1a3,3,0,0,0,3-3V21a3,3,0,0,0-3-3H25V14h1a1,1,0,0,1,1,1,1,1,0,0,0,2,0,3,3,0,0,0-3-3H25V11a1,1,0,0,0-2,0v1H22a3,3,0,0,0-3,3v2a3,3,0,0,0,3,3h1v4Zm0-6a1,1,0,0,1-1-1V15a1,1,0,0,1,1-1h1v4Zm3,2h1a1,1,0,0,1,1,1v2a1,1,0,0,1-1,1H25Z"></path><path d="M24,32A13,13,0,1,0,11,19,13.015,13.015,0,0,0,24,32ZM24,8A11,11,0,1,1,13,19,11.013,11.013,0,0,1,24,8Z"></path><path d="M1,18H2v3a3,3,0,0,0,6,0V18H9a1,1,0,0,0,.707-1.707l-4-4a1,1,0,0,0-1.414,0l-4,4A1,1,0,0,0,1,18Zm4-3.586,1.649,1.649A1,1,0,0,0,6,17v4a1,1,0,0,1-2,0V17a1,1,0,0,0-.649-.937Z"></path><path d="M47.707,4.293l-4-4a1,1,0,0,0-1.414,0l-4,4A1,1,0,0,0,39,6h1V9a3,3,0,0,0,6,0V6h1a1,1,0,0,0,.707-1.707ZM44,5V9a1,1,0,0,1-2,0V5a1,1,0,0,0-.649-.937L43,2.414l1.649,1.649A1,1,0,0,0,44,5Z"></path><path d="M13,4h1V5a1,1,0,0,0,2,0V4h1a1,1,0,0,0,0-2H16V1a1,1,0,0,0-2,0V2H13a1,1,0,0,0,0,2Z"></path><path d="M45,20H44V19a1,1,0,0,0-2,0v1H41a1,1,0,0,0,0,2h1v1a1,1,0,0,0,2,0V22h1a1,1,0,0,0,0-2Z"></path></g></svg>