<svg xmlns="http://www.w3.org/2000/svg" id="money" height="512" viewBox="0 0 32 32" width="512"><path d="m24 31.75h-16c-.9648 0-1.75-.7852-1.75-1.75v-14c0-.4141.3359-.75.75-.75h18c.4141 0 .75.3359.75.75v14c0 .9648-.7852 1.75-1.75 1.75zm-16.25-15v13.25c0 .1377.1123.25.25.25h16c.1377 0 .25-.1123.25-.25v-13.25z"></path><path d="m7.0005 16.75c-.2603 0-.5132-.1357-.6519-.3779l-4-7c-.2056-.3594-.0806-.8174.2793-1.0234.3594-.2031.8174-.0801 1.0234.2793l4 7c.2056.3594.0806.8174-.2793 1.0234-.1172.0664-.2451.0986-.3716.0986z"></path><path d="m24.9995 16.75c-.1265 0-.2544-.0312-.3716-.0986-.3599-.2061-.4849-.6641-.2793-1.0234l4-7c.2065-.3594.6655-.4854 1.0234-.2793.3599.2061.4849.6641.2793 1.0234l-4 7c-.1387.2422-.3916.3779-.6519.3779z"></path><path d="m18 31.75h-4c-.4141 0-.75-.3359-.75-.75v-15c0-.4141.3359-.75.75-.75h4c.4141 0 .75.3359.75.75v15c0 .4141-.3359.75-.75.75zm-3.25-1.5h2.5v-13.5h-2.5z"></path><path d="m6.3511 4.749c-.4141 0-.75-.3359-.75-.75v-2.7021c0-.4141.3359-.75.75-.75s.75.3359.75.75v2.7021c0 .4141-.3359.75-.75.75z"></path><path d="m7.7021 3.3975h-2.7021c-.4141 0-.75-.3359-.75-.75s.3359-.75.75-.75h2.7021c.4141 0 .75.3359.75.75s-.3359.75-.75.75z"></path><path d="m25.6489 6.5879c-.4141 0-.75-.3359-.75-.75v-2.7022c0-.4141.3359-.75.75-.75s.75.3359.75.75v2.7021c0 .4141-.3359.75-.75.75z"></path><path d="m27 5.2373h-2.7021c-.4141 0-.75-.3359-.75-.75s.3359-.75.75-.75h2.7021c.4141 0 .75.3359.75.75s-.3359.75-.75.75z"></path><path d="m22.4497 16.75c-.0996 0-.2007-.0195-.2979-.0615-.3799-.165-.5547-.6064-.3896-.9863.3237-.7471.4878-1.5557.4878-2.4023 0-3.4463-2.8037-6.25-6.25-6.25s-6.25 2.8037-6.25 6.25c0 .8467.1641 1.6553.4878 2.4023.165.3799-.0098.8213-.3896.9863-.3794.165-.8218-.0098-.9863-.3906-.4062-.9355-.6118-1.9443-.6118-2.998 0-4.2734 3.4766-7.75 7.75-7.75s7.75 3.4766 7.75 7.75c0 1.0537-.2056 2.0625-.6118 2.998-.1226.2832-.3984.4521-.6885.4521z"></path><path d="m17.3906 16.75c-.2358 0-.4683-.1113-.6143-.3184-.2378-.3389-.1562-.8066.1826-1.0449.1763-.124.2812-.3398.2812-.5771 0-.4131-.3364-.75-.75-.75h-1c-1.2407 0-2.25-1.0098-2.25-2.25s1.0093-2.25 2.25-2.25h2.5195c.4141 0 .75.3359.75.75s-.3359.75-.75.75h-2.5195c-.4136 0-.75.3369-.75.75s.3364.75.75.75h1c1.2407 0 2.25 1.0098 2.25 2.25 0 .7256-.3433 1.3994-.9189 1.8037-.1309.0928-.2817.1367-.4307.1367z"></path><path d="m16.0107 11.0566c-.4141 0-.75-.3359-.75-.75v-1c0-.4141.3359-.75.75-.75s.75.3359.75.75v1c0 .4141-.3359.75-.75.75z"></path></svg>