<svg xmlns="http://www.w3.org/2000/svg" id="Layer_1" viewBox="0 0 512 512"><path d="m463.244 422.49c-8.349 0-16.118 2.527-22.587 6.852l-49.719-49.719 11.168-11.168c2.34-2.341 2.997-5.88 1.654-8.904l-10.998-24.763c7.014-12.103 12.37-25.021 15.964-38.503l25.268-9.726c3.088-1.188 5.126-4.156 5.126-7.466v-47.589c0-3.31-2.038-6.277-5.126-7.466l-25.261-9.723c-3.595-13.491-8.952-26.414-15.967-38.517l10.994-24.753c1.343-3.024.686-6.564-1.655-8.904l-10.467-10.467 49.019-49.019c6.47 4.325 14.238 6.852 22.587 6.852 22.473 0 40.756-18.282 40.756-40.755 0-22.47-18.283-40.752-40.756-40.752s-40.754 18.282-40.754 40.754c0 8.35 2.528 16.119 6.853 22.589l-49.02 49.019-11.869-11.869c-2.339-2.339-5.877-2.998-8.903-1.654l-24.762 10.998c-12.101-7.014-25.019-12.369-38.503-15.964l-9.726-25.268c-1.188-3.088-4.156-5.126-7.466-5.126h-47.589c-3.31 0-6.277 2.038-7.466 5.126l-9.727 25.268c-13.486 3.595-26.404 8.95-38.503 15.964l-24.762-10.998c-3.025-1.344-6.564-.686-8.904 1.654l-11.168 11.168-48.318-48.319c4.325-6.47 6.853-14.239 6.853-22.588 0-22.472-18.283-40.754-40.755-40.754s-40.755 18.282-40.755 40.754c0 22.473 18.283 40.755 40.755 40.755 8.35 0 16.118-2.528 22.588-6.853l48.318 48.319-11.168 11.168c-2.34 2.341-2.998 5.88-1.655 8.904l10.996 24.759c-7.013 12.101-12.369 25.02-15.964 38.508l-25.265 9.725c-3.088 1.188-5.126 4.156-5.126 7.466v47.589c0 3.31 2.038 6.277 5.126 7.466l25.261 9.723c3.597 13.495 8.953 26.416 15.966 38.517l-10.994 24.752c-1.344 3.024-.686 6.563 1.654 8.904l11.868 11.868-49.019 49.019c-6.47-4.325-14.239-6.853-22.588-6.853-22.471 0-40.753 18.282-40.753 40.755s18.282 40.755 40.755 40.755 40.755-18.282 40.755-40.755c0-8.35-2.528-16.118-6.853-22.588l49.019-49.02 10.468 10.468c2.339 2.34 5.878 2.996 8.904 1.654l24.763-10.997c12.104 7.014 25.02 12.369 38.503 15.963l9.726 25.268c1.188 3.088 4.156 5.126 7.466 5.126h47.589c3.31 0 6.277-2.038 7.466-5.126l9.723-25.261c13.494-3.596 26.415-8.952 38.517-15.967l24.752 10.994c3.023 1.343 6.563.686 8.904-1.654l11.168-11.168 49.719 49.719c-4.325 6.47-6.853 14.239-6.853 22.589 0 22.473 18.282 40.755 40.755 40.755s40.754-18.282 40.754-40.755-18.283-40.755-40.756-40.755zm0-398.49c13.651 0 24.756 11.104 24.756 24.754s-11.105 24.755-24.756 24.755-24.754-11.106-24.754-24.755 11.104-24.754 24.754-24.754zm-414.489 49.509c-13.65 0-24.755-11.106-24.755-24.755s11.105-24.754 24.755-24.754 24.755 11.104 24.755 24.754-11.105 24.755-24.755 24.755zm0 414.491c-13.65 0-24.755-11.105-24.755-24.755s11.105-24.755 24.755-24.755 24.755 11.105 24.755 24.755-11.105 24.755-24.755 24.755zm312.271-101.093-23.522-10.447c-2.409-1.071-5.194-.884-7.442.5-12.9 7.945-26.898 13.748-41.606 17.248-2.566.61-4.667 2.446-5.614 4.908l-9.239 24.003h-36.603l-9.242-24.01c-.947-2.462-3.048-4.298-5.613-4.908-14.694-3.497-28.689-9.3-41.597-17.245-2.246-1.383-5.029-1.569-7.441-.499l-23.532 10.45-25.883-25.882 10.447-23.522c1.071-2.411.884-5.195-.5-7.442-7.944-12.898-13.747-26.897-17.248-41.607-.611-2.565-2.447-4.666-4.909-5.613l-24.003-9.239v-36.603l24.007-9.241c2.462-.947 4.298-3.048 4.909-5.613 3.499-14.702 9.301-28.698 17.246-41.599 1.383-2.247 1.57-5.031.5-7.442l-10.45-23.529 25.882-25.882 23.532 10.451c2.41 1.071 5.196.885 7.442-.5 12.901-7.944 26.895-13.746 41.595-17.245 2.565-.61 4.666-2.446 5.613-4.908l9.242-24.01h36.604l9.241 24.01c.947 2.461 3.048 4.298 5.613 4.908 14.699 3.498 28.694 9.301 41.597 17.246 2.247 1.385 5.032 1.57 7.441.499l23.531-10.451 25.883 25.882-10.447 23.522c-1.07 2.411-.884 5.195.5 7.442 7.946 12.903 13.749 26.901 17.248 41.606.61 2.566 2.446 4.667 4.908 5.614l24.003 9.239v36.603l-24.01 9.241c-2.461.947-4.298 3.048-4.908 5.614-3.497 14.695-9.3 28.69-17.246 41.596-1.383 2.246-1.569 5.03-.499 7.441l10.451 23.532zm102.218 101.093c-13.65 0-24.755-11.105-24.755-24.755s11.104-24.755 24.755-24.755 24.756 11.106 24.756 24.755-11.105 24.755-24.756 24.755zm-207.945-342.151c-60.351 0-109.45 49.1-109.45 109.45s49.1 109.45 109.45 109.45 109.45-49.1 109.45-109.45-49.099-109.45-109.45-109.45zm-61.922 179.375c4.225-24.766 22.655-44.175 46.331-50.188l-8.494 41.184c-.516 2.498.191 5.092 1.902 6.982l16.25 17.965c1.517 1.677 3.672 2.634 5.933 2.634s4.416-.957 5.933-2.634l16.249-17.965c1.711-1.891 2.418-4.484 1.902-6.982l-8.494-41.184c23.678 6.013 42.108 25.423 46.331 50.189-16.5 14.627-38.189 23.524-61.921 23.524s-45.422-8.897-61.922-23.525zm34.104-95.961c0-15.34 12.479-27.819 27.819-27.819s27.819 12.479 27.819 27.819c0 15.333-12.469 27.809-27.8 27.82-.007 0-.014 0-.021 0s-.013 0-.02 0c-15.329-.012-27.797-12.487-27.797-27.82zm27.817 49.392 7.596 36.823-7.595 8.396-7.596-8.396zm74.873 32.506c-7.394-22.527-24.519-40.324-46.258-48.751 9.303-8.042 15.207-19.914 15.207-33.146 0-24.162-19.657-43.819-43.819-43.819s-43.819 19.657-43.819 43.819c0 13.232 5.904 25.104 15.206 33.146-21.74 8.427-38.865 26.225-46.26 48.751-11.664-15.593-18.578-34.935-18.578-55.862 0-51.528 41.922-93.45 93.45-93.45s93.45 41.922 93.45 93.45c-.001 20.926-6.915 40.268-18.579 55.862z"></path></svg>