<svg xmlns="http://www.w3.org/2000/svg" id="Layer_1" viewBox="0 0 512 512"><path d="m143 449.6c0 4.4-3.6 8-8 8s-8-3.6-8-8v-60.6c0-7.1 9-11.3 14.4-4.8l41.7 45v-40.2c0-4.4 3.6-8 8-8s8 3.6 8 8v60.6h-.1c0 7.2-8.9 10.7-13.8 5.4l-42.2-45.6zm96-38.3h19.5c4.4 0 8 3.6 8 8s-3.6 8-8 8h-19.5v14.3h33.6c4.4 0 8 3.6 8 8s-3.6 8-8 8h-41.6c-4.4 0-8-3.6-8-8v-60.6c0-4.4 3.6-8 8-8h40.9c4.4 0 8 3.6 8 8s-3.6 8-8 8h-32.9zm59.7-22.3c0-4.4 3.6-8 8-8s8 3.6 8 8v40.3l23.2-24.8c3.2-3.4 8.5-3.4 11.7 0 7.8 8.2 15.4 16.5 23.2 24.8v-40.3c0-4.4 3.6-8 8-8s8 3.6 8 8v60.6c0 7.2-8.9 10.7-13.8 5.4l-31.2-33.4-30.8 33c-5.3 6-14.2 2.1-14.2-5v-60.6zm122.6-40.3c31.4 8.5 54.2 37.3 54.2 70.6 0 40.2-32.9 73.1-73.1 73.1h-289c-40.3 0-73.1-32.9-73.1-73.1 0-33.4 22.8-62.2 54.2-70.6-6.7-7.3-10.7-17-10.7-27.6v-85.5c-9.3-6.8-14.9-17.7-14.9-29.7v-76.3c0-20.4 16.6-36.9 36.9-36.9h66c0-12.3-.8-21.6 4.1-33.3 8.2-19.8 27.6-32.9 49.1-32.9h66c29.3 0 53.2 23.9 53.2 53.2v13h66c20.4 0 36.9 16.6 36.9 36.9v76.3c0 12-5.6 22.8-14.9 29.7v85.4c-.2 10.6-4.3 20.3-10.9 27.7zm-18.9 13.5h-289c-31.4 0-57.1 25.7-57.1 57.1s25.7 57.1 57.1 57.1h289c31.4 0 57.1-25.7 57.1-57.1s-25.7-57.1-57.1-57.1zm-155.6-143.6h22.1c10.9 0 19.8 8.9 19.8 19.8v11.6l125.2-23.6c9.8-1.9 17-10.3 17-20.6v-76.3c0-11.5-9.4-20.9-20.9-20.9h-15v42.4c0 13.9-9.7 25.5-23.4 28.1l-112.2 21.1c-1 .2-2 .2-3.1 0l-112.3-21.1c-13.6-2.6-23.3-14.3-23.3-28.1v-42.4h-15c-11.5 0-20.9 9.4-20.9 20.9v76.3c0 10.3 7.2 18.7 17 20.6l125.2 23.6v-11.6c0-10.9 8.9-19.8 19.8-19.8zm41.9 47.7v16.3c0 10.9-8.9 19.8-19.8 19.8h-22.1c-10.9 0-19.8-8.9-19.8-19.8v-16.3l-127.3-24v78.7c0 13.8 11.3 25.1 25.1 25.1h266.1c13.8 0 25.2-11.3 25.2-25.1v-78.7zm-19.8-31.7h-22.1c-2.1 0-3.8 1.7-3.8 3.8v44.1c0 2.1 1.7 3.8 3.8 3.8h22.1c2.1 0 3.8-1.7 3.8-3.8v-44.1c0-2.1-1.7-3.8-3.8-3.8zm-132.2-126v42.4c0 6.2 4.2 11.3 10.3 12.4l110.9 20.9 110.9-20.9c6-1.1 10.3-6.2 10.3-12.4v-42.4zm50.9-16h16.8v-13c0-5.6 2.3-10.7 6-14.4 3.8-3.8 8.9-6 14.3-6h66c11.1 0 20.4 9.2 20.4 20.4v13h16.9v-13c0-20.5-16.7-37.2-37.2-37.2h-66c-20.5 0-37.2 16.7-37.2 37.2zm32.9 0h74.7v-13c0-2.4-2-4.3-4.3-4.3h-66c-1.2 0-2.2.5-3 1.3-.8.8-1.3 1.9-1.3 3.1v12.9z"></path></svg>