<svg xmlns="http://www.w3.org/2000/svg" id="Layer_3" data-name="Layer 3" viewBox="0 0 64 64" width="512" height="512"><path d="M62,50H43V49a3,3,0,0,0-2-2.816V33a3,3,0,0,0-2-2.816V30a7.008,7.008,0,0,0-7-7H30V21.918A8,8,0,0,0,34,15V10a9,9,0,0,0-18,0,1,1,0,0,0,1,1h1v4a8,8,0,0,0,4,6.918V23H20a7.008,7.008,0,0,0-7,7v.184A3,3,0,0,0,11,33V46.184A3,3,0,0,0,9,49v1H2a1,1,0,0,0-1,1v6a1,1,0,0,0,1,1H5v4a1,1,0,0,0,1,1h6a1,1,0,0,0,1-1V58h2v4a1,1,0,0,0,1,1H36a1,1,0,0,0,1-1V58H51v4a1,1,0,0,0,1,1h6a1,1,0,0,0,1-1V58h3a1,1,0,0,0,1-1V51A1,1,0,0,0,62,50ZM25,3a7.011,7.011,0,0,1,6.981,6.478l-.872.581a5.7,5.7,0,0,1-6.218,0A6.281,6.281,0,0,0,21.4,9H18.071A7.011,7.011,0,0,1,25,3ZM20,15V11H21.4a4.286,4.286,0,0,1,2.386.723A7.56,7.56,0,0,0,32,11.846V15a6,6,0,0,1-12,0Zm6,8a7.953,7.953,0,0,0,2-.263V24a2,2,0,0,1-4,0V22.737A7.953,7.953,0,0,0,26,23Zm-6,2h2.142a3.981,3.981,0,0,0,7.716,0H32a5.006,5.006,0,0,1,5,5H15A5.006,5.006,0,0,1,20,25Zm-6,7H38a1,1,0,0,1,1,1V46H13V33A1,1,0,0,1,14,32ZM11,49a1,1,0,0,1,1-1H40a1,1,0,0,1,1,1v1H11Zm0,12H7V58h4Zm24,0H17V58H35Zm22,0H53V58h4Zm4-5H3V52H61Z"></path><path d="M26,40a3,3,0,1,0-3-3A3,3,0,0,0,26,40Zm0-4a1,1,0,1,1-1,1A1,1,0,0,1,26,36Z"></path><path d="M50,27A13,13,0,1,0,37,14,13.015,13.015,0,0,0,50,27ZM61,14a10.949,10.949,0,0,1-2.521,7H56a1,1,0,0,1-1-1,3,3,0,0,0-3-3H49a1,1,0,0,1,0-2h3a3,3,0,0,0,0-6,1,1,0,0,1,0-2h6.479A10.949,10.949,0,0,1,61,14ZM56.305,5H52a3,3,0,0,0,0,6,1,1,0,0,1,0,2H49a3,3,0,0,0,0,6h3a1,1,0,0,1,1,1,3,3,0,0,0,3,3h.3A10.968,10.968,0,0,1,39.7,17.818,4.494,4.494,0,0,0,43,13.5a.5.5,0,0,1,.5-.5,3.5,3.5,0,0,0,0-7H42.474A10.939,10.939,0,0,1,56.305,5ZM40.792,8H43.5a1.5,1.5,0,0,1,0,3A2.5,2.5,0,0,0,41,13.5a2.5,2.5,0,0,1-1.825,2.4A10.8,10.8,0,0,1,40.792,8Z"></path></svg>