<svg xmlns="http://www.w3.org/2000/svg" id="Layer_1" viewBox="0 0 512 512" data-name="Layer 1"><path d="m443.219 28.581a7 7 0 0 1 0 9.9l-28.283 28.319a7.006 7.006 0 0 1 -4.952 2.054 7.008 7.008 0 0 1 -4.951-2.051l-11.623-11.622a7 7 0 1 1 9.9-9.9l6.667 6.669 23.339-23.363a7 7 0 0 1 9.903-.006zm-4.629 62.269a114.759 114.759 0 0 1 10.11 47.083 7 7 0 0 1 -7 7h-30.655a24.154 24.154 0 0 1 -46.232 0h-30.685a7 7 0 0 1 -7-7v-30.686a24.145 24.145 0 0 1 0-46.2v-30.688a7 7 0 0 1 7-7 114.006 114.006 0 0 1 39.746 7.089 47.686 47.686 0 1 1 64.716 60.4zm-4.133 40.081a100.553 100.553 0 0 0 -9.411-36.031 47.642 47.642 0 0 1 -54.409-47.223c0-1.154.056-2.294.137-3.428a99.809 99.809 0 0 0 -29.644-6.649v29.411a7 7 0 0 1 -7 7 10.133 10.133 0 0 0 0 20.266 7 7 0 0 1 7 7v29.65h29.65a7 7 0 0 1 7 7 10.147 10.147 0 0 0 20.294 0 7 7 0 0 1 7-7zm17.562-83.252a33.689 33.689 0 1 0 -33.7 33.7 33.727 33.727 0 0 0 33.7-33.7zm-234.63 221.6c-18.318-21.936-39.079-46.8-39.079-89.765a114.7 114.7 0 0 1 114.575-114.573 7 7 0 0 1 7 7v36.651a7 7 0 0 1 -7 7 10.134 10.134 0 1 0 0 20.267 7 7 0 0 1 7 7v29.649h29.65a7 7 0 0 1 7 7 10.133 10.133 0 1 0 20.266 0 7 7 0 0 1 7-7h36.652a7 7 0 0 1 7 7c0 42.966-20.762 67.829-39.079 89.765-9.113 10.912-17.738 21.241-23.567 33.144v40.393a21.058 21.058 0 0 1 -21.033 21.034h-4.109a26.862 26.862 0 0 1 -53.575 0h-4.11a21.058 21.058 0 0 1 -21.032-21.034v-40.385c-5.822-11.903-14.448-22.232-23.559-33.144zm88.187 94.571h-25.383a12.847 12.847 0 0 0 25.383 0zm25.235-28.29h-75.853v7.256a7.124 7.124 0 0 0 7.029 7.03h61.794a7.124 7.124 0 0 0 7.03-7.03zm0-27.722h-75.853v13.718h75.853zm-138.5-128.324c0 37.889 18.212 59.7 35.824 80.79 8.688 10.405 17.634 21.134 24.147 33.53h81.2c6.514-12.4 15.46-23.126 24.148-33.53 16.5-19.757 33.524-40.143 35.611-73.788h-23.47a24.135 24.135 0 0 1 -46.2 0h-30.686a7 7 0 0 1 -7-7v-30.683a24.136 24.136 0 0 1 0-46.206v-23.441a100.7 100.7 0 0 0 -93.572 100.33zm-105.411 202.986a6.962 6.962 0 0 0 -8.843-4.386 7.024 7.024 0 1 0 8.871 4.471zm321.459 15.321c6.02 21.644-10.258 29.676-19.982 34.475-1.244.614-2.472 1.22-3.652 1.841l-.159.081-130.815 64.657a40.632 40.632 0 0 1 -18.34 4.272c-9.719 0-19.146-3.139-28.187-6.586l-57.7-21.978-11.038 2.747 2.123 7.639a13.847 13.847 0 0 1 -1.276 10.59 13.993 13.993 0 0 1 -8.484 6.673l-33.265 9.245a14.03 14.03 0 0 1 -17.271-9.766l-33.813-121.642a14.031 14.031 0 0 1 9.747-17.269l33.253-9.238a14.064 14.064 0 0 1 17.286 9.718l1.506 5.418 40.91-12.642c12.029-3.735 26.619-6.5 43.53 1.327l67.492 31.238c9.852 4.549 15.56 14.048 17.755 23.605l99.521-33.526c.123-.041.246-.078.371-.112 12.849-3.556 26.529 5.076 30.491 19.233zm-281.275 90.923-33.784-121.685-33.286 9.231 33.8 121.691zm267.791-87.16c-1.835-6.554-7.815-10.894-13.116-9.54l-103.147 34.745a34.343 34.343 0 0 1 -2.007 7.466c-4.667 11.888-14.97 18.563-27.133 18.563a38.313 38.313 0 0 1 -13.86-2.731l-45.48-17.778a7 7 0 1 1 5.1-13.043l45.468 17.773c7.909 3.073 18.653 2.847 22.88-7.916a20.962 20.962 0 0 0 1.444-7.56v-.017c.094-8.956-4.3-17.268-10.675-20.214l-67.5-31.241c-10.164-4.7-19.871-4.894-33.507-.659l-41.3 12.763 22.692 81.639 13.538-3.37a7 7 0 0 1 4.184.251l59.754 22.761c15.049 5.737 25.138 7.889 35.334 2.847l130.741-64.623c1.259-.662 2.571-1.309 3.9-1.964 11.554-5.7 15.359-8.551 12.69-18.152z"></path></svg>