<svg xmlns="http://www.w3.org/2000/svg" xmlns:xlink="http://www.w3.org/1999/xlink" id="Capa_1" x="0px" y="0px" viewBox="0 0 512 512" style="enable-background:new 0 0 512 512;" xml:space="preserve"><g>	<g>		<path style="fill:none;stroke:#000000;stroke-width:15;stroke-linecap:round;stroke-linejoin:round;stroke-miterlimit:10;" d="&#10;&#9;&#9;&#9;M368.57,26.9c33.77,21.75,56.13,59.67,56.13,102.83c0,67.51-54.73,122.23-122.23,122.23c-67.51,0-122.23-54.72-122.23-122.23&#10;&#9;&#9;&#9;S234.96,7.5,302.47,7.5c11.89,0,23.38,1.7,34.25,4.87"></path>					<circle style="fill:none;stroke:#000000;stroke-width:15;stroke-linecap:round;stroke-linejoin:round;stroke-miterlimit:10;" cx="302.467" cy="129.73" r="89.635"></circle>					<line style="fill:none;stroke:#000000;stroke-width:15;stroke-linecap:round;stroke-linejoin:round;stroke-miterlimit:10;" x1="302.467" y1="72.689" x2="302.467" y2="113.432"></line>					<circle style="fill:none;stroke:#000000;stroke-width:15;stroke-linecap:round;stroke-linejoin:round;stroke-miterlimit:10;" cx="302.467" cy="129.73" r="16.297"></circle>					<line style="fill:none;stroke:#000000;stroke-width:15;stroke-linecap:round;stroke-linejoin:round;stroke-miterlimit:10;" x1="100.435" y1="401.009" x2="100.435" y2="355.451"></line>		<path style="fill:none;stroke:#000000;stroke-width:15;stroke-linecap:round;stroke-linejoin:round;stroke-miterlimit:10;" d="&#10;&#9;&#9;&#9;M100.43,479.04v5.26c0,11.16,9.05,20.2,20.21,20.2h253.91"></path>		<path style="fill:none;stroke:#000000;stroke-width:15;stroke-linecap:round;stroke-linejoin:round;stroke-miterlimit:10;" d="&#10;&#9;&#9;&#9;M177.69,251.96H484.3c11.16,0,20.2,9.04,20.2,20.2V484.3c0,11.16-9.04,20.2-20.2,20.2h-74.65"></path>		<path style="fill:none;stroke:#000000;stroke-width:15;stroke-linecap:round;stroke-linejoin:round;stroke-miterlimit:10;" d="&#10;&#9;&#9;&#9;M100.43,277.42v-5.26c0-11.16,9.05-20.2,20.21-20.2h21.95"></path>		<path style="fill:none;stroke:#000000;stroke-width:15;stroke-linecap:round;stroke-linejoin:round;stroke-miterlimit:10;" d="&#10;&#9;&#9;&#9;M441.87,284.285H163.065c0,16.737-13.568,30.305-30.305,30.305v127.28c16.737,0,30.305,13.568,30.305,30.305H441.87&#10;&#9;&#9;&#9;c0-16.737,13.568-30.305,30.305-30.305v-127.28C455.438,314.589,441.87,301.021,441.87,284.285z"></path>					<circle style="fill:none;stroke:#000000;stroke-width:15;stroke-linecap:round;stroke-linejoin:round;stroke-miterlimit:10;" cx="302.467" cy="378.23" r="55.559"></circle>		<path style="fill:none;stroke:#000000;stroke-width:15;stroke-linecap:round;stroke-linejoin:round;stroke-miterlimit:10;" d="&#10;&#9;&#9;&#9;M75.701,275.54c-6.313,6.312-6.313,16.545,0,22.857l1.877,1.877H23.663c-8.926,0-16.163,7.236-16.163,16.163&#10;&#9;&#9;&#9;c0,8.926,7.236,16.163,16.163,16.163h53.915l-1.877,1.877c-6.313,6.312-6.313,16.545,0,22.857c6.312,6.312,16.545,6.312,22.857,0&#10;&#9;&#9;&#9;l29.468-29.468c3.156-3.156,4.734-7.292,4.734-11.428c0-4.136-1.578-8.273-4.734-11.428L98.558,275.54&#10;&#9;&#9;&#9;C92.246,269.228,82.013,269.228,75.701,275.54z"></path>		<path style="fill:none;stroke:#000000;stroke-width:15;stroke-linecap:round;stroke-linejoin:round;stroke-miterlimit:10;" d="&#10;&#9;&#9;&#9;M75.701,399.127c-6.313,6.312-6.313,16.545,0,22.857l1.877,1.877l-53.915,0c-8.926,0-16.163,7.236-16.163,16.163&#10;&#9;&#9;&#9;c0,8.926,7.236,16.163,16.163,16.163h53.915l-1.877,1.877c-6.313,6.312-6.313,16.545,0,22.857c6.312,6.312,16.545,6.312,22.857,0&#10;&#9;&#9;&#9;l29.468-29.468c3.156-3.156,4.734-7.292,4.734-11.428s-1.578-8.273-4.734-11.428l-29.468-29.468&#10;&#9;&#9;&#9;C92.246,392.814,82.013,392.814,75.701,399.127z"></path>					<line style="fill:none;stroke:#000000;stroke-width:15;stroke-linecap:round;stroke-linejoin:round;stroke-miterlimit:10;" x1="147.913" y1="129.73" x2="70.13" y2="129.73"></line>					<line style="fill:none;stroke:#000000;stroke-width:15;stroke-linecap:round;stroke-linejoin:round;stroke-miterlimit:10;" x1="153.266" y1="89.323" x2="100.435" y2="89.323"></line>					<line style="fill:none;stroke:#000000;stroke-width:15;stroke-linecap:round;stroke-linejoin:round;stroke-miterlimit:10;" x1="170.762" y1="48.917" x2="130.74" y2="48.917"></line>					<line style="fill:none;stroke:#000000;stroke-width:15;stroke-linecap:round;stroke-linejoin:round;stroke-miterlimit:10;" x1="100.435" y1="170.136" x2="153.266" y2="170.136"></line>					<line style="fill:none;stroke:#000000;stroke-width:15;stroke-linecap:round;stroke-linejoin:round;stroke-miterlimit:10;" x1="130.74" y1="210.543" x2="170.762" y2="210.543"></line>	</g></g><g></g><g></g><g></g><g></g><g></g><g></g><g></g><g></g><g></g><g></g><g></g><g></g><g></g><g></g><g></g></svg>