<svg xmlns="http://www.w3.org/2000/svg" clip-rule="evenodd" fill-rule="evenodd" stroke-linejoin="round" stroke-miterlimit="2" viewBox="0 0 510 510"><path d="m155.775 294.035h-39.012c-4.418 0-8-3.582-8-8v-94.911c0-4.418 3.582-8 8-8h39.501c7.611-5.528 15.95-10.792 22.561-17.231 5.973-5.818 10.443-12.679 10.443-22.234v-28.812c0-4.419 3.582-8 8-8 23.402 0 42.558 19.156 42.558 42.558v22.347c0 .366-.025.731-.075 1.093-.239 1.735-.716 3.709-1.454 5.819 1.173-.198 2.378-.301 3.605-.301h34.209c11.952 0 21.729 9.777 21.729 21.729 0 3.728-.952 7.244-2.623 10.319 5.109 3.984 8.409 10.194 8.409 17.138 0 8.196-4.596 15.368-11.339 19.068 1.091 2.584 1.695 5.42 1.695 8.39 0 7.736-4.078 14.55-10.184 18.407 1.28 2.764 1.996 5.838 1.996 9.071 0 11.952-9.777 21.728-21.729 21.728h-22.163c-1.554 0-3.071-.165-4.534-.479-37.65 6.482-59.478 9.833-81.593-9.699zm-4.881-94.911h-26.131v78.911h26.131zm66.115 38.743c-2.876 2.185-5.58 3.903-7.692 5.116-3.829 2.198-8.722.875-10.921-2.954s-.876-8.722 2.953-10.921c7.086-4.07 27.131-16.498 14.295-35.226-2.178-3.177-1.782-7.456.942-10.18 4.201-4.201 6.608-9.046 7.24-12.571v-21.726c0-11.82-7.83-21.903-18.558-25.319v19.573c0 14.392-6.283 24.933-15.28 33.696-6.79 6.613-15.235 12.136-23.091 17.813.047 48.584.055 77.703.025 87.348 10.145 8.656 20.321 10.916 32.944 10.335 6.567-.302 13.722-1.311 21.735-2.639-.922-2.404-1.428-5.009-1.428-7.727 0-5.199 1.85-9.986 4.924-13.736-3.074-3.755-4.924-8.545-4.924-13.742 0-3.728.951-7.245 2.623-10.319-2.367-1.845-4.345-4.169-5.787-6.821zm23.265 50.109c.516.155 23.791.237 23.791.237 3.151 0 5.729-2.577 5.729-5.728 0-3.152-2.578-5.729-5.729-5.729h-.009-22.118c-.012 0-.024 0-.036 0-3.151 0-5.729 2.577-5.729 5.729 0 2.501 1.624 4.64 3.869 5.417.077.025.155.05.232.074zm1.628-27.22h30.351c3.154 0 5.729-2.586 5.729-5.749 0-3.151-2.578-5.729-5.729-5.729h-30.351c-3.151 0-5.729 2.578-5.729 5.729 0 3.142 2.555 5.729 5.693 5.749zm-5.787-27.478h45.783c3.151 0 5.728-2.577 5.728-5.729 0-3.151-2.577-5.728-5.728-5.728h-45.783c-3.151 0-5.729 2.577-5.729 5.728 0 3.152 2.578 5.729 5.729 5.729zm39.996-27.457c3.151 0 5.729-2.578 5.729-5.729s-2.578-5.729-5.729-5.729h-34.209c-3.151 0-5.729 2.578-5.729 5.729s2.578 5.729 5.729 5.729zm43.774 212.2-8.491-3.634c-12.173-5.218-19.202-17.392-17.648-30.527l.001-.01 1.914-16.008c.001-.008.002-.017.003-.025.337-2.751-.109-5.181-1.339-7.645 0 0-7.266-14.371-7.26-14.358-5.998-11.812-3.56-25.662 6.105-34.734l11.752-11.025.015-.014c2.017-1.882 3.243-4.018 3.865-6.691l.004-.016s3.684-15.679 3.688-15.696c3-12.886 13.771-21.927 26.991-22.667l.006-.001 16.093-.889c2.757-.151 5.079-.984 7.265-2.631.006-.005.012-.009.017-.014l12.91-9.675.015-.012c10.615-7.915 24.633-7.915 35.248 0l.016.012 12.904 9.672c2.21 1.653 4.521 2.496 7.288 2.648l16.092.889.006.001c13.22.74 23.992 9.781 26.987 22.651l3.692 15.712.004.016c.622 2.673 1.848 4.809 3.865 6.691l.015.014 11.752 11.025c9.665 9.072 12.104 22.922 6.111 34.721 0 0-7.266 14.371-7.275 14.388-1.223 2.459-1.666 4.883-1.329 7.628.001.008.002.017.003.025l1.913 16.008.001.01c1.555 13.138-5.443 25.312-17.651 30.528l-8.488 3.633c7.186 15.442 23.043 49.515 23.063 49.559 1.697 3.538 1.24 7.347-1.075 10.29-2.291 3.036-5.8 4.425-9.586 3.741l-23.38-4.078s-11.926 20.48-11.939 20.501c-1.837 3.217-5.171 5.099-8.961 4.959-3.765-.139-6.887-2.151-8.56-5.638-.014-.028-.027-.056-.04-.085l-22.678-48.706-6.501-1.963c-.014-.004-.027-.008-.04-.012-2.605-.802-5.06-.802-7.665 0-.014.004-.027.008-.041.012l-6.501 1.963c-5.29 11.363-22.653 48.654-22.648 48.643-1.583 3.509-4.815 5.645-8.63 5.786-3.786.14-7.117-1.739-8.951-4.941l-11.927-20.519s-23.402 4.079-23.402 4.079c-3.805.684-7.323-.719-9.576-3.73-2.317-2.973-2.771-6.744-1.112-10.244zm133.74 9.3-7.765 11.874c-5.242 8.024-13.576 12.746-22.587 13.309 4.019 8.633 9.098 19.54 12.775 27.439l8.895-15.274c1.685-2.892 4.991-4.43 8.288-3.855l17.393 3.034zm-90.068 25.183c-9.01-.562-17.344-5.284-22.585-13.306l-7.767-11.877-17 36.529 17.422-3.036c3.299-.575 6.607.966 8.29 3.861l8.87 15.258zm37.918-197.928-.016-.012c-4.851-3.607-11.251-3.604-16.1.009 0 0-12.861 9.64-12.879 9.653-4.822 3.635-9.937 5.497-16.017 5.831l-16.083.889c-6.023.337-10.936 4.449-12.302 10.319l-.004.017s-3.684 15.678-3.688 15.695c-1.373 5.897-4.081 10.607-8.517 14.747l-11.749 11.021c-4.403 4.134-5.522 10.442-2.789 15.824l.007.013 7.276 14.391c.006.011.011.021.016.032 2.701 5.402 3.654 10.73 2.917 16.736l-1.912 16c-.709 5.998 2.503 11.557 8.062 13.939 0 0 14.74 6.31 14.766 6.321 5.591 2.37 9.746 5.878 13.078 10.951l.009.013 8.815 13.478c3.31 5.068 9.326 7.239 15.12 5.5 0 0 15.426-4.657 15.426-4.657 5.78-1.772 11.229-1.772 17.009 0l15.426 4.657c5.793 1.739 11.809-.432 15.12-5.5l8.814-13.478.009-.013c3.333-5.073 7.487-8.581 13.052-10.94l14.795-6.333.005-.002c5.574-2.382 8.763-7.94 8.054-13.936 0 0-1.906-15.951-1.909-15.975-.74-6.031.213-11.359 2.914-16.761.005-.011.011-.021.016-.032l7.277-14.391.006-.013c2.733-5.382 1.614-11.69-2.789-15.824 0 0-11.719-10.993-11.734-11.007-4.45-4.154-7.159-8.864-8.527-14.744l-3.693-15.712-.003-.017c-1.367-5.87-6.28-9.982-12.302-10.319l-16.081-.889c-6.073-.333-11.145-2.185-15.996-5.813l-.006-.005zm-8.046 153.936c-35.426 0-64.326-28.901-64.326-64.326s28.9-64.326 64.326-64.326c35.395 0 64.298 28.899 64.298 64.326 0 35.426-28.903 64.326-64.298 64.326zm0-16c26.589 0 48.298-21.713 48.298-48.326s-21.709-48.326-48.298-48.326c-26.614 0-48.326 21.712-48.326 48.326s21.712 48.326 48.326 48.326zm-31.988-41.173c-3.051-3.191-2.936-8.26.255-11.311 3.192-3.05 8.26-2.936 11.311.256 0 0 9.769 10.219 9.769 10.219l31.323-29.727c3.203-3.04 8.27-2.907 11.31.296 3.039 3.202 2.907 8.27-.296 11.309l-37.105 35.215c-3.197 3.034-8.245 2.911-11.29-.275zm-75.266 83.267c3.768-2.301 8.696-1.11 10.996 2.659 2.301 3.768 1.11 8.696-2.659 10.997-24.024 14.667-51.011 25.096-79.994 30.143l-6.947 1.234c-.925.165-1.873.165-2.798 0 0 0-6.947-1.234-6.947-1.234-109.709-19.115-190.826-115.411-190.826-226.877v-154.558c0-3.2 1.907-6.092 4.847-7.352l191.172-81.971c2.013-.863 4.292-.863 6.305 0l191.218 81.97c2.941 1.261 4.848 4.153 4.848 7.353v118.688c0 4.416-3.585 8-8 8s-8-3.584-8-8v-113.413l-183.218-78.541c-24.472 10.493-183.172 78.54-183.172 78.54v149.284c0 103.728 75.492 193.337 177.588 211.118.009.001.018.003.027.004l5.557.987 5.558-.987c.009-.001.018-.003.027-.005 26.963-4.693 52.068-14.394 74.418-28.039zm64.294-204.333c0 4.415-3.585 8-8 8-4.416 0-8-3.585-8-8v-91.871l-128.296-54.971s-128.252 54.971-128.252 54.971v113.126c0 75.758 54.356 141.537 128.253 156.338 24.947-4.994 47.662-15.795 66.812-30.824 3.474-2.725 8.507-2.118 11.233 1.355 2.726 3.474 2.119 8.507-1.355 11.232-21.502 16.874-47.088 28.901-75.197 34.248-.988.187-2.003.187-2.991-.001-82.144-15.633-142.755-88.429-142.755-172.348v-118.401c0-3.2 1.907-6.093 4.849-7.353l136.25-58.4c2.013-.863 4.291-.863 6.303 0l136.296 58.399c2.942 1.261 4.85 4.153 4.85 7.354z"></path></svg>