<svg xmlns="http://www.w3.org/2000/svg" xmlns:xlink="http://www.w3.org/1999/xlink" id="Capa_1" x="0px" y="0px" viewBox="0 0 480.048 480.048" style="enable-background:new 0 0 480.048 480.048;" xml:space="preserve"><g>	<g>		<path d="M319.224,32.848c-43.661-43.741-114.515-43.805-158.256-0.144c-0.048,0.048-0.096,0.096-0.144,0.144   c-3.069,3.178-2.981,8.243,0.197,11.312c3.1,2.994,8.015,2.994,11.115,0l0.024,0.024c37.432-37.48,98.16-37.52,135.64-0.088   c0.029,0.029,0.059,0.059,0.088,0.088c3.13,3.13,8.206,3.13,11.336,0C322.354,41.054,322.354,35.978,319.224,32.848z"></path>	</g></g><g>	<g>		<path d="M296.56,63.512c-31.135-31.224-81.687-31.296-112.911-0.161c-0.054,0.054-0.108,0.107-0.161,0.161   c-3.178,3.069-3.266,8.134-0.197,11.312c3.069,3.178,8.134,3.266,11.312,0.197c0.067-0.065,0.132-0.13,0.197-0.197   c24.892-24.977,65.318-25.045,90.295-0.153c0.051,0.051,0.102,0.102,0.153,0.153c1.5,1.5,3.534,2.344,5.656,2.344   c4.418-0.001,7.999-3.583,7.998-8.002C298.902,67.045,298.059,65.012,296.56,63.512z"></path>	</g></g><g>	<g>		<path d="M273.968,94.04c-18.784-18.657-49.104-18.657-67.888,0h0c-3.192,3.054-3.304,8.119-0.25,11.311   c3.054,3.192,8.118,3.304,11.311,0.25c0.063-0.061,0.126-0.122,0.187-0.185c12.72-12.079,32.672-12.079,45.392,0   c3.193,3.054,8.257,2.942,11.311-0.25C277.014,102.047,276.986,97.124,273.968,94.04z"></path>	</g></g><g>	<g>		<path d="M480.024,216.048v-192c0-13.255-10.745-24-24-24h-96c-13.255,0-24,10.745-24,24v104h-296c-13.255,0-24,10.745-24,24v264   h-16v24c0.026,22.08,17.92,39.974,40,40h400c22.08-0.026,39.974-17.92,40-40v-24h-16V238.576   C473.579,235.198,479.982,226.182,480.024,216.048z M360.024,16.048h96c4.418,0,8,3.582,8,8h-112   C352.024,19.63,355.606,16.048,360.024,16.048z M352.024,40.048h112v152h-112V40.048z M360.024,240.048h56v144h-352v-208h272v40   C336.024,229.303,346.769,240.048,360.024,240.048z M32.024,152.048c0-4.418,3.582-8,8-8h296v16h-288v240h384v-160h16v176h-176v8   c0,4.418-3.582,8-8,8h-56c-4.418,0-8-3.582-8-8v-8h-168V152.048z M464.024,440.048c0,13.255-10.745,24-24,24h-400   c-13.255,0-24-10.745-24-24v-8h169.368c3.403,9.582,12.464,15.988,22.632,16h56c10.168-0.012,19.229-6.418,22.632-16h177.368   V440.048z M456.024,224.048h-96c-4.418,0-8-3.582-8-8v-8h112v8C464.024,220.466,460.442,224.048,456.024,224.048z"></path>	</g></g><g>	<g>		<rect x="232.024" y="272.048" width="16" height="16"></rect>	</g></g><g>	<g>		<rect x="264.024" y="272.048" width="16" height="16"></rect>	</g></g><g>	<g>		<rect x="200.024" y="272.048" width="16" height="16"></rect>	</g></g><g>	<g>		<rect x="400.024" y="112.048" width="16" height="16"></rect>	</g></g><g>	<g>		<rect x="432.024" y="112.048" width="16" height="16"></rect>	</g></g><g>	<g>		<rect x="368.024" y="112.048" width="16" height="16"></rect>	</g></g><g></g><g></g><g></g><g></g><g></g><g></g><g></g><g></g><g></g><g></g><g></g><g></g><g></g><g></g><g></g></svg>