<svg xmlns="http://www.w3.org/2000/svg" height="512" viewBox="0 0 512 512" width="512"><g id="_x31_7_x2C__info_x2C__information_x2C__lense_x2C__search_x2C__tool"><g><g><path d="m495.27 417.501-78.227-78.228c-1.876-1.875-4.419-2.929-7.071-2.929s-5.196 1.054-7.071 2.929l-7.301 7.301-31.265-31.266c54.689-77.978 47.231-186.571-22.387-256.191-77.98-77.979-204.862-77.979-282.843 0-77.979 77.98-77.979 204.863 0 282.844 38.99 38.989 90.206 58.484 141.421 58.484 40.023 0 80.045-11.906 114.234-35.716l31.342 31.342-6.841 6.841c-3.905 3.905-3.905 10.237 0 14.143l78.227 78.228c10.723 10.722 24.808 16.083 38.892 16.083s28.168-5.361 38.891-16.083c10.389-10.389 16.109-24.2 16.109-38.892s-5.722-28.502-16.11-38.89zm-422.022-89.682c-70.182-70.182-70.182-184.377 0-254.559 35.095-35.096 81.179-52.637 127.279-52.637 46.088 0 92.193 17.55 127.279 52.637 70.183 70.182 70.183 184.377 0 254.559-70.181 70.181-184.376 70.182-254.558 0zm257.453 24.566c3.849-3.305 7.602-6.779 11.247-10.424 3.49-3.49 6.818-7.082 9.995-10.76l29.515 29.515-21.213 21.213zm150.427 128.756c-13.646 13.646-35.851 13.646-49.497 0l-71.155-71.156 6.841-6.841 35.355-35.355 7.301-7.301 71.155 71.156c6.611 6.61 10.252 15.399 10.252 24.748s-3.641 18.139-10.252 24.749z"></path><path d="m200.526 50.539c-82.71 0-150 67.29-150 150s67.29 150 150 150 150-67.29 150-150-67.289-150-150-150zm0 280c-71.682 0-130-58.317-130-130s58.318-130 130-130 130 58.317 130 130-58.317 130-130 130z"></path><path d="m200.526 169.986c-17.279 0-31.336 14.058-31.336 31.336v66.774c0 17.278 14.058 31.336 31.336 31.336s31.336-14.058 31.336-31.336v-66.774c.001-17.279-14.057-31.336-31.336-31.336zm11.337 98.11c0 6.251-5.085 11.336-11.336 11.336s-11.336-5.085-11.336-11.336v-66.774c0-6.251 5.085-11.336 11.336-11.336s11.336 5.085 11.336 11.336z"></path><path d="m201.863 99.986h-2.673c-16.542 0-30 13.458-30 30s13.458 30 30 30h2.673c16.542 0 30-13.458 30-30s-13.458-30-30-30zm0 40h-2.673c-5.514 0-10-4.486-10-10s4.486-10 10-10h2.673c5.514 0 10 4.486 10 10s-4.486 10-10 10z"></path></g></g></g></svg>