<svg xmlns="http://www.w3.org/2000/svg" xmlns:xlink="http://www.w3.org/1999/xlink" id="Capa_1" x="0px" y="0px" viewBox="0 0 510 510" style="enable-background:new 0 0 510 510;" xml:space="preserve" width="512" height="512"><g>			<line id="XMLID_134_" style="fill:none;stroke:#000000;stroke-width:30;stroke-miterlimit:10;" x1="124.14" y1="150" x2="60" y2="150"></line>	<line id="XMLID_133_" style="fill:none;stroke:#000000;stroke-width:30;stroke-miterlimit:10;" x1="30" y1="150" x2="0" y2="150"></line>	<line id="XMLID_132_" style="fill:none;stroke:#000000;stroke-width:30;stroke-miterlimit:10;" x1="90" y1="210" x2="0" y2="210"></line>	<g>		<g id="XMLID_114_">			<g>									<line id="XMLID_131_" style="fill:none;stroke:#000000;stroke-width:30;stroke-miterlimit:10;" x1="210" y1="15" x2="360" y2="15"></line>				<polyline id="XMLID_130_" style="fill:none;stroke:#000000;stroke-width:30;stroke-miterlimit:10;" points="255,77.13 255,15 &#10;&#9;&#9;&#9;&#9;&#9;315,15 315,77.13 &#9;&#9;&#9;&#9;"></polyline>				<circle id="XMLID_128_" style="fill:none;stroke:#000000;stroke-width:30;stroke-miterlimit:10;" cx="285" cy="285" r="210"></circle>				<circle id="XMLID_127_" style="fill:none;stroke:#000000;stroke-width:30;stroke-miterlimit:10;" cx="285" cy="285" r="150"></circle>									<line id="XMLID_126_" style="fill:none;stroke:#000000;stroke-width:30;stroke-miterlimit:10;" x1="431.36" y1="45.754" x2="495" y2="109.394"></line>									<line id="XMLID_125_" style="fill:none;stroke:#000000;stroke-width:30;stroke-miterlimit:10;" x1="463.18" y1="77.57" x2="418.15" y2="122.601"></line>									<line id="XMLID_123_" style="fill:none;stroke:#000000;stroke-width:30;stroke-miterlimit:10;" x1="285" y1="135" x2="285" y2="180"></line>									<line id="XMLID_122_" style="fill:none;stroke:#000000;stroke-width:30;stroke-miterlimit:10;" x1="285" y1="390" x2="285" y2="435"></line>									<line id="XMLID_121_" style="fill:none;stroke:#000000;stroke-width:30;stroke-miterlimit:10;" x1="178.934" y1="178.935" x2="210.754" y2="210.754"></line>									<line id="XMLID_120_" style="fill:none;stroke:#000000;stroke-width:30;stroke-miterlimit:10;" x1="359.246" y1="359.246" x2="391.066" y2="391.066"></line>									<line id="XMLID_119_" style="fill:none;stroke:#000000;stroke-width:30;stroke-miterlimit:10;" x1="135" y1="285" x2="180" y2="285"></line>									<line id="XMLID_118_" style="fill:none;stroke:#000000;stroke-width:30;stroke-miterlimit:10;" x1="390" y1="285" x2="435" y2="285"></line>									<line id="XMLID_117_" style="fill:none;stroke:#000000;stroke-width:30;stroke-miterlimit:10;" x1="178.934" y1="391.066" x2="210.754" y2="359.246"></line>									<line id="XMLID_116_" style="fill:none;stroke:#000000;stroke-width:30;stroke-miterlimit:10;" x1="359.246" y1="210.754" x2="391.066" y2="178.935"></line>				<polyline id="XMLID_115_" style="fill:none;stroke:#000000;stroke-width:30;stroke-miterlimit:10;" points="285,225 285,285 &#10;&#9;&#9;&#9;&#9;&#9;330,285 &#9;&#9;&#9;&#9;"></polyline>			</g>		</g>					<line id="XMLID_113_" style="fill:none;stroke:#000000;stroke-width:30;stroke-miterlimit:10;" x1="112.64" y1="405" x2="0" y2="405"></line>					<line id="XMLID_111_" style="fill:none;stroke:#000000;stroke-width:30;stroke-miterlimit:10;" x1="176.78" y1="465" x2="90" y2="465"></line>					<line id="XMLID_110_" style="fill:none;stroke:#000000;stroke-width:30;stroke-miterlimit:10;" x1="30" y1="465" x2="60" y2="465"></line>	</g></g></svg>