<svg xmlns="http://www.w3.org/2000/svg" id="Layer_1" height="512" viewBox="0 0 512.253 512.253" width="512"><g><g><path d="m480.3 379.582c84.857-150.872-8.07-346.078-178.482-375.526-5.436-.981-10.636 2.63-11.617 8.065-.98 5.435 2.631 10.636 8.066 11.616 157.488 27.236 242.985 207.88 164.106 346.949-10.138-3.363-21.083-4.403-31.681-3.094 127.639-211.68-141.185-428.357-321.114-258.128-129.558 127.871-36.709 354.098 145.224 353.689 40.587.271 79.5-11.127 112.896-32.563-1.307 10.598-.269 21.541 3.094 31.679-155.374 87.624-351.999-27.739-350.71-206.295-1.77-111.412 84.472-214.348 194.189-232.307 5.437-.972 9.057-6.167 8.085-11.604-.973-5.437-6.173-9.058-11.604-8.084-119.046 19.497-212.585 131.118-210.67 251.997-1.422 193.273 211.16 318.477 379.605 224.219 13.052 19.166 35.044 31.78 59.93 31.78 71.394-.279 98.973-92.918 40.683-132.393zm-224.212 63.575c-.387 0-.778-.001-1.166-.004-164.361.349-248.271-204.014-131.197-319.547 72.982-72.987 191.739-72.973 264.725.011 71.889 69.03 72.715 192.911 1.779 262.889-1.25 1.166-2.466 2.382-3.628 3.628-35.153 34.22-81.455 53.023-130.513 53.023zm183.53 48.818c-24.395 0-44.954-16.738-50.798-39.333-9.743-37.814 26.044-73.754 63.955-63.921 58.795 16.442 48.519 101.845-13.157 103.254z"></path><path d="m463.446 415.823c-3.905-3.904-10.237-3.904-14.142 0l-9.547 9.547-9.547-9.547c-3.905-3.903-10.237-3.903-14.142 0-3.905 3.905-3.906 10.237 0 14.143l9.547 9.547-9.546 9.547c-3.905 3.905-3.905 10.237 0 14.143 3.905 3.905 10.237 3.905 14.142 0l9.546-9.547 9.546 9.547c9.687 9.038 23.177-4.465 14.143-14.143l-9.547-9.547 9.547-9.547c3.906-3.906 3.905-10.238 0-14.143z"></path><path d="m246.85 13.794c3.355 8.192 15.361 7.991 18.549-.228 3.364-8.673-6.495-16.939-14.457-12.167-4.189 2.512-5.972 7.886-4.092 12.395z"></path><path d="m392.075 336.883v-98.444-41.612c0-14.384-11.702-26.086-26.086-26.086h-60.437v-22.021c0-12.244-9.782-22.205-21.806-22.205h-55.309c-12.023 0-21.806 9.961-21.806 22.205v22.021h-60.439c-14.384 0-26.086 11.702-26.086 26.086v41.612 98.444c0 14.384 11.702 26.086 26.086 26.086h219.796c14.384 0 26.087-11.702 26.087-26.086zm-165.443-188.163c0-1.195.827-2.205 1.806-2.205h55.309c.979 0 1.806 1.01 1.806 2.205v22.018h-58.92v-22.018zm-86.526 48.107c0-3.355 2.73-6.086 6.086-6.086h219.796c3.356 0 6.086 2.73 6.086 6.086v34.534l-80.535 28.388c-11.421 4.021-23.35 6.063-35.45 6.069-12.126 0-24.049-2.041-35.446-6.068l-80.538-28.389v-34.534zm225.883 146.142h-219.797c-3.356 0-6.086-2.73-6.086-6.086v-84.316l73.882 26.042c13.535 4.783 27.7 7.208 42.107 7.208 14.369-.008 28.529-2.432 42.089-7.205l73.89-26.045v84.316c.001 3.356-2.729 6.086-6.085 6.086z"></path><path d="m247.29 245.655h19.533c13.254-.492 13.244-19.513 0-20h-19.533c-13.253.492-13.243 19.512 0 20z"></path></g></g></svg>