<svg xmlns="http://www.w3.org/2000/svg" id="Capa_1" height="512" viewBox="0 0 512.333 512.333" width="512"><g><path d="m178.406 161.101h15.125v15h-15.125z"></path><path d="m238.281 161.101h15.125v15h-15.125z"></path><path d="m216.776 408.662c-15.04 0-27.276 12.236-27.276 27.276s12.236 27.276 27.276 27.276 27.276-12.236 27.276-27.276-12.236-27.276-27.276-27.276zm0 39.551c-6.769 0-12.276-5.507-12.276-12.276s5.507-12.276 12.276-12.276 12.276 5.507 12.276 12.276-5.507 12.276-12.276 12.276z"></path><path d="m255.5 285.938c0-20.643-16.794-37.438-37.438-37.438s-37.438 16.794-37.438 37.438 16.794 37.438 37.438 37.438 37.438-16.795 37.438-37.438zm-59.875 0c0-12.372 10.065-22.438 22.438-22.438s22.438 10.065 22.438 22.438-10.065 22.438-22.438 22.438-22.438-10.066-22.438-22.438z"></path><path d="m511.708 210.294c0-15.637-4.191-30.978-12.119-44.364l-12.906 7.645c6.559 11.073 10.025 23.771 10.025 36.72 0 39.794-32.375 72.169-72.169 72.169s-72.169-32.375-72.169-72.169 32.375-72.169 72.169-72.169c20.624 0 40.309 8.855 54.007 24.296l11.221-9.954c-16.542-18.647-40.317-29.342-65.228-29.342-44.84 0-81.876 34.035-86.644 77.627h-39.843v-9.526h8.526c14.457 0 26.219-11.762 26.219-26.219 0-9.611-5.201-18.026-12.934-22.59 6.576-6.759 10.638-15.976 10.638-26.128v-35.29c0-15.164-12.336-27.5-27.5-27.5h-2.5v-16c-.001-20.678-16.823-37.5-37.501-37.5h-100c-31.706 0-57.5 25.794-57.5 57.5v58.788c0 10.204 4.102 19.465 10.737 26.233-7.633 4.589-12.753 12.95-12.753 22.487 0 14.457 11.762 26.218 26.219 26.218h8.093v9.526h-77.025v15h276.775c2.666 42.94 36.557 77.555 79.185 81.358v146.39h-140.271l-17.262-90h-82.294l-18.795 90h-138.839v-227.748h26.626v-15h-41.626v257.748h17.57c-12.98 11.255-21.214 27.845-21.214 46.333v7.5l314.646-.183v-15h-28.522l-7.413-38.651h112.846v38.651h-61.912v15h76.912v-53.65h24.547v-161.335c44.714-3.669 79.978-41.227 79.978-86.871zm-205.13-34.068h-8.093v-22.438h8.093c6.186 0 11.219 5.033 11.219 11.219-.001 6.186-5.033 11.219-11.219 11.219zm-186.078-118.726c0-23.435 19.065-42.5 42.5-42.5h100c12.407 0 22.5 10.093 22.5 22.5v31h17.5c6.893 0 12.5 5.607 12.5 12.5v35.288c0 10.679-7.48 19.637-17.474 21.927-.544-25.297-13.195-49.042-34.09-63.786l-6.638-4.684-4.14 6.991c-7.346 12.406-20.848 20.113-35.234 20.113s-27.888-7.707-35.235-20.113l-4.14-6.99-6.638 4.684c-20.885 14.737-33.534 38.467-34.089 63.751-9.918-2.345-17.323-11.267-17.323-21.892v-58.789zm9.203 118.726c-6.186 0-11.219-5.033-11.219-11.219s5.033-11.219 11.219-11.219h8.093v22.438zm23.093 24.526v-9.526-51.311c0-18.566 8.063-36.228 21.882-48.556 10.536 12.807 26.447 20.49 43.246 20.49 16.798 0 32.71-7.685 43.246-20.49 13.819 12.329 21.882 29.99 21.882 48.557v60.837h-130.256zm-69.296 296.581v-16.333h-15v16.333h-52.269c3.595-21.995 22.731-38.833 45.727-38.833s42.132 16.838 45.727 38.833zm39.293-.182c-1.931-15.37-9.564-28.981-20.716-38.651h52.9l-8.072 38.651zm39.435 0 26.868-128.651h57.706l24.675 128.651z"></path><path d="m380.506 193.128v57.454h88.067v-57.454l-44.034-39.723zm73.067 42.454h-21.534v-19.916h-15v19.916h-21.533v-35.784l29.033-26.191 29.034 26.191z"></path></g></svg>