<svg xmlns="http://www.w3.org/2000/svg" xmlns:svg="http://www.w3.org/2000/svg" id="svg1920" xml:space="preserve" width="682.66669" height="682.66669" viewBox="0 0 682.66669 682.66669"><defs id="defs1924"><clipPath clipPathUnits="userSpaceOnUse" id="clipPath1934"><path d="M 0,512 H 512 V 0 H 0 Z" id="path1932"></path></clipPath></defs><g id="g1926" transform="matrix(1.3333333,0,0,-1.3333333,0,682.66667)"><g id="g1928"><g id="g1930" clip-path="url(#clipPath1934)"><g id="g1936" transform="translate(243.1504,240.2798)"><path d="m 0,0 c -25.99,-39.22 -21.71,-92.58 12.85,-127.14 l 76.049,-76.05 M 28.569,28.57 c 39.221,25.99 92.58,21.71 127.13,-12.85 L 231.76,-60.33 M 58.14,-1 c 8.059,3.87 16.94,5.9 26.139,5.9 16.191,0 31.401,-6.3 42.851,-17.75 l 18.91,-18.91 m -116.48,2.19 c -3.861,-8.06 -5.89,-16.94 -5.89,-26.14 0,-16.19 6.3,-31.41 17.75,-42.86 l 18.899,-18.9" style="fill:none;stroke:#000000;stroke-width:15;stroke-linecap:round;stroke-linejoin:round;stroke-miterlimit:10;stroke-dasharray:none;stroke-opacity:1" id="path1938"></path></g><g id="g1940" transform="translate(329.2002,176.9702)"><path d="m 0,0 c 18.45,20.02 44.899,32.56 74.28,32.56 55.789,0 101.02,-45.22 101.02,-101.01 0,-55.79 -45.231,-101.02 -101.02,-101.02 -55.79,0 -101.02,45.23 -101.02,101.02 0,13.84 2.78,27.02 7.82,39.02" style="fill:none;stroke:#000000;stroke-width:15;stroke-linecap:round;stroke-linejoin:round;stroke-miterlimit:10;stroke-dasharray:none;stroke-opacity:1" id="path1942"></path></g><g id="g1944" transform="translate(332.3096,38.4937)"><path d="m 0,0 v 1.148 c 0,22.82 18.505,41.325 41.325,41.325 h 59.692 c 22.82,0 41.324,-18.505 41.324,-41.325 V 0" style="fill:none;stroke:#000000;stroke-width:15;stroke-linecap:round;stroke-linejoin:round;stroke-miterlimit:10;stroke-dasharray:none;stroke-opacity:1" id="path1946"></path></g><g id="g1948" transform="translate(449.3965,126.8828)"><path d="m 0,0 c 0,-25.359 -20.558,-45.917 -45.916,-45.917 -25.359,0 -45.917,20.558 -45.917,45.917 0,25.359 20.558,45.917 45.917,45.917 C -20.558,45.917 0,25.359 0,0 Z" style="fill:none;stroke:#000000;stroke-width:15;stroke-linecap:round;stroke-linejoin:round;stroke-miterlimit:10;stroke-dasharray:none;stroke-opacity:1" id="path1950"></path></g><g id="g1952" transform="translate(137.4805,238.0298)"><path d="M 0,0 C 32.319,-17.04 71.939,-15.33 102.8,5.12 M -27.641,21.27 -100.4,94.02 M -14.681,65.45 4.229,46.54 C 15.68,35.09 30.899,28.79 47.09,28.79 c 9.199,0 18.08,2.03 26.139,5.9 m -2.19,116.47 18.9,-18.9 c 11.451,-11.45 17.76,-26.67 17.76,-42.86 0,-9.2 -2.04,-18.08 -5.899,-26.14 m -59.34,173.62 76.06,-76.05 c 34.559,-34.56 38.839,-87.92 12.849,-127.14" style="fill:none;stroke:#000000;stroke-width:15;stroke-linecap:round;stroke-linejoin:round;stroke-miterlimit:10;stroke-dasharray:none;stroke-opacity:1" id="path1954"></path></g><g id="g1956" transform="translate(179.6836,381.2603)"><path d="M 0,0 C 0,-5.579 -4.523,-10.102 -10.102,-10.102 H -132.24 c -5.579,0 -10.102,4.523 -10.102,10.102" style="fill:none;stroke:#000000;stroke-width:15;stroke-linecap:round;stroke-linejoin:round;stroke-miterlimit:10;stroke-dasharray:none;stroke-opacity:1" id="path1958"></path></g><g id="g1960" transform="translate(37.3418,331.8018)"><path d="m 0,0 v 77.743 c 0,5.579 4.522,10.102 10.102,10.102 H 132.24 c 5.578,0 10.102,-4.523 10.102,-10.102 V 0" style="fill:none;stroke:#000000;stroke-width:15;stroke-linecap:round;stroke-linejoin:round;stroke-miterlimit:10;stroke-dasharray:none;stroke-opacity:1" id="path1962"></path></g><g id="g1964" transform="translate(124.6748,371.1587)"><path d="m 0,0 v -24.244 c 0,-4.463 -3.618,-8.081 -8.081,-8.081 h -16.162 c -4.464,0 -8.082,3.618 -8.082,8.081 V 0" style="fill:none;stroke:#000000;stroke-width:15;stroke-linecap:round;stroke-linejoin:round;stroke-miterlimit:10;stroke-dasharray:none;stroke-opacity:1" id="path1966"></path></g><g id="g1968" transform="translate(76.1875,419.6465)"><path d="m 0,0 v 18.183 c 0,7.811 6.332,14.142 14.143,14.142 h 36.366 c 7.81,0 14.141,-6.331 14.141,-14.142 V 0" style="fill:none;stroke:#000000;stroke-width:15;stroke-linecap:round;stroke-linejoin:round;stroke-miterlimit:10;stroke-dasharray:none;stroke-opacity:1" id="path1970"></path></g><g id="g1972" transform="translate(39.1904,476.9502)"><path d="m 0,0 c 18.09,17.08 42.489,27.55 69.319,27.55 55.79,0 101.021,-45.23 101.021,-101.02 0,-55.79 -45.231,-101.01 -101.021,-101.01 -55.79,0 -101.009,45.22 -101.009,101.01 0,16.35 3.879,31.79 10.78,45.45" style="fill:none;stroke:#000000;stroke-width:15;stroke-linecap:round;stroke-linejoin:round;stroke-miterlimit:10;stroke-dasharray:none;stroke-opacity:1" id="path1974"></path></g><g id="g1976" transform="translate(304.6562,235.9121)"><path d="m 0,0 -68.748,68.748 c -7.89,7.89 -20.682,7.89 -28.571,0 -7.89,-7.89 -7.89,-20.682 0,-28.572 l 68.748,-68.748 c 7.889,-7.889 20.681,-7.889 28.571,0 v 10e-4 C 7.89,-20.682 7.89,-7.89 0,0 Z" style="fill:none;stroke:#000000;stroke-width:15;stroke-linecap:round;stroke-linejoin:round;stroke-miterlimit:10;stroke-dasharray:none;stroke-opacity:1" id="path1978"></path></g></g></g></g></svg>